<svg xmlns="http://www.w3.org/2000/svg" xmlns:xlink="http://www.w3.org/1999/xlink" width="381.49" height="93.168" viewBox="0 0 381.49 93.168">
  <defs>
    <clipPath id="clip-path">
      <path id="Clip_4" data-name="Clip 4" d="M0,0H25.919V29.129H0Z" transform="translate(0.369 0.832)" fill="none"/>
    </clipPath>
    <clipPath id="clip-path-2">
      <path id="Clip_31" data-name="Clip 31" d="M0,0H17.715V35.669H0Z" transform="translate(0 0.439)" fill="none"/>
    </clipPath>
    <clipPath id="clip-path-3">
      <path id="Clip_34" data-name="Clip 34" d="M0,93.168H381.49V0H0Z" transform="translate(0 1)" fill="none"/>
    </clipPath>
  </defs>
  <g id="Group_43" data-name="Group 43" transform="translate(0 -1)">
    <path id="Fill_1" data-name="Fill 1" d="M0,27.346l2.854-6.183C5.767,14.8,7.907,7.193,7.907.594V0h6.778V.594c0,5.351-1.487,11.89-3.924,18.905L10.4,20.51h4.34V15.278h6.777V20.51H25.8v6.836h-4.28v8.323H14.744V27.346Z" transform="translate(148.474 1.892)" fill="#060101"/>
    <g id="Group_5" data-name="Group 5" transform="translate(177 0.168)">
      <path id="Clip_4-2" data-name="Clip 4" d="M0,0H25.919V29.129H0Z" transform="translate(0.369 0.832)" fill="none"/>
      <g id="Group_5-2" data-name="Group 5" clip-path="url(#clip-path)">
        <path id="Fill_3" data-name="Fill 3" d="M12.959,29.129a12.146,12.146,0,0,1-9.288-4.407,14.986,14.986,0,0,1-2.7-4.647,16.114,16.114,0,0,1,0-11.022,14.985,14.985,0,0,1,2.7-4.647A12.146,12.146,0,0,1,12.959,0a12.147,12.147,0,0,1,9.289,4.407,14.984,14.984,0,0,1,2.7,4.647,16.114,16.114,0,0,1,0,11.022,14.985,14.985,0,0,1-2.7,4.647A12.147,12.147,0,0,1,12.959,29.129Zm0-22.352c-3.8,0-6.063,3.96-6.063,7.788s2.268,7.789,6.063,7.789,6.064-3.96,6.064-7.789S16.755,6.777,12.959,6.777Z" transform="translate(0.369 0.832)" fill="#060101"/>
      </g>
    </g>
    <path id="Fill_6" data-name="Fill 6" d="M0,27.346l2.854-6.183C5.767,14.8,7.907,7.193,7.907.594V0h6.778V.594c0,5.351-1.487,11.89-3.924,18.905L10.4,20.51h4.34V15.278h6.777V20.51H25.8v6.836h-4.28v8.323H14.744V27.346Z" transform="translate(207.214 1.892)" fill="#060101"/>
    <path id="Fill_8" data-name="Fill 8" d="M18.726,0A18.726,18.726,0,0,0,0,18.726H11.573a7.153,7.153,0,1,1,7.153,7.153V37.451A18.726,18.726,0,1,0,18.726,0" transform="translate(136.456 55.825)" fill="#27b291"/>
    <path id="Fill_10" data-name="Fill 10" d="M0,0H0V18.726H18.726A18.726,18.726,0,0,1,0,0" transform="translate(136.457 74.551)" fill="#e6da25"/>
    <path id="Fill_12" data-name="Fill 12" d="M11.572,0H0A18.726,18.726,0,0,0,18.725,18.726V7.153A7.152,7.152,0,0,1,11.572,0" transform="translate(136.457 74.551)" fill="#2151a2"/>
    <path id="Fill_14" data-name="Fill 14" d="M0,0A7.563,7.563,0,0,0,7.563,7.563V0Z" transform="translate(253.523 74.564)" fill="#2151a2"/>
    <path id="Fill_16" data-name="Fill 16" d="M0,0V7.563H7.563A7.563,7.563,0,0,0,0,0" transform="translate(261.086 67)" fill="#e6da25"/>
    <path id="Fill_18" data-name="Fill 18" d="M11.149,0H0A18.712,18.712,0,0,0,18.712,18.712V7.563A7.563,7.563,0,0,1,11.149,0" transform="translate(242.374 74.564)" fill="#25ab9b"/>
    <path id="Fill_20" data-name="Fill 20" d="M7.563,18.712H18.712A18.712,18.712,0,0,0,0,0V11.149a7.564,7.564,0,0,1,7.563,7.563" transform="translate(261.087 55.852)" fill="#25ab9b"/>
    <path id="Fill_22" data-name="Fill 22" d="M0,7.563A7.563,7.563,0,0,0,7.563,0H0Z" transform="translate(261.086 74.564)" fill="#2151a2"/>
    <path id="Fill_24" data-name="Fill 24" d="M18.713,0H7.564A7.564,7.564,0,0,1,0,7.563V18.712A18.713,18.713,0,0,0,18.713,0" transform="translate(261.086 74.564)" fill="#2151a2"/>
    <path id="Fill_26" data-name="Fill 26" d="M7.563,0A7.562,7.562,0,0,0,0,7.563H7.563Z" transform="translate(253.523 67)" fill="#e6da25"/>
    <path id="Fill_28" data-name="Fill 28" d="M18.713,11.149V0A18.713,18.713,0,0,0,0,18.712H11.15a7.562,7.562,0,0,1,7.563-7.563" transform="translate(242.374 55.851)" fill="#e6da25"/>
    <g id="Group_32" data-name="Group 32" transform="translate(0 57.168)">
      <path id="Clip_31-2" data-name="Clip 31" d="M0,0H17.715V35.669H0Z" transform="translate(0 0.439)" fill="none"/>
      <g id="Group_32-2" data-name="Group 32" clip-path="url(#clip-path-2)">
        <path id="Fill_30" data-name="Fill 30" d="M0,35.669V0H17.715V7.014H7.015v7.015H17.121v7.015H7.015V35.669Z" transform="translate(-0.001 0.439)" fill="#060101"/>
      </g>
    </g>
    <path id="Clip_34-2" data-name="Clip 34" d="M0,93.168H381.49V0H0Z" transform="translate(0 1)" fill="none"/>
    <g id="マスクグループ_3" data-name="マスクグループ 3" clip-path="url(#clip-path-3)">
      <path id="Fill_33" data-name="Fill 33" d="M0,35.669H7.134V0H0Z" transform="translate(24.198 57.607)" fill="#060101"/>
      <path id="Fill_35" data-name="Fill 35" d="M7.015,28.654h11.89v7.015H0V0H7.015Z" transform="translate(39.001 57.607)" fill="#060101"/>
      <path id="Fill_36" data-name="Fill 36" d="M19.5,28.654v7.015H0V0H18.9V7.014H7.015v6.421H17.121V20.45H7.015v8.2Z" transform="translate(62.546 57.607)" fill="#060101"/>
      <path id="Fill_37" data-name="Fill 37" d="M20.807,35.669,7.015,12.127V35.669H0V0H7.015L20.807,23.541V0h7.015V35.669Z" transform="translate(102.321 57.607)" fill="#060101"/>
      <path id="Fill_38" data-name="Fill 38" d="M8.918,35.669V7.014H0V0H24.85V7.014H15.933V35.669Z" transform="translate(176.688 57.607)" fill="#060101"/>
      <path id="Fill_39" data-name="Fill 39" d="M0,35.669V0H17.715V7.014H7.015v7.015H17.121v7.015H7.015V35.669Z" transform="translate(220.387 57.607)" fill="#060101"/>
      <path id="Fill_40" data-name="Fill 40" d="M27.822,20.807c0,8.858-5.826,15.754-13.911,15.754S0,29.665,0,20.807V0H7.015V18.192c0,6.479,1.784,11.354,6.9,11.354s6.9-4.875,6.9-11.354V0h7.015Z" transform="translate(284.522 57.606)" fill="#060101"/>
      <path id="Fill_41" data-name="Fill 41" d="M20.807,35.669,7.015,12.127V35.669H0V0H7.015L20.807,23.541V0h7.015V35.669Z" transform="translate(318.946 57.607)" fill="#060101"/>
      <path id="Fill_42" data-name="Fill 42" d="M11.236,35.67H0V0H11.236A15.344,15.344,0,0,1,22.672,5.187a18.219,18.219,0,0,1,3.419,5.5,19.242,19.242,0,0,1,1.374,6.557,20.64,20.64,0,0,1-1.223,7.042,18.809,18.809,0,0,1-3.391,5.872A15.17,15.17,0,0,1,11.236,35.67ZM7.015,7.015v21.64h4.221a8.2,8.2,0,0,0,6.6-3.456,13.224,13.224,0,0,0,2.5-7.958,11.829,11.829,0,0,0-2.63-7.1,8.373,8.373,0,0,0-6.465-3.129Z" transform="translate(354.025 57.606)" fill="#060101"/>
    </g>
  </g>
</svg>
