<svg xmlns="http://www.w3.org/2000/svg" width="320.199" height="49.772" viewBox="0 0 320.199 49.772">
  <g id="logo" transform="translate(0 0.408)">
    <text id="世界一ワクワクする_印刷工場" data-name="世界一ワクワクする 印刷工場" transform="translate(262.85 36.364)" fill="#656565" font-size="8.178" font-family="HiraKakuProN-W3, Hiragino Kaku Gothic ProN" letter-spacing="0.001em"><tspan x="-36.836" y="0">世界一ワクワクする</tspan><tspan x="-16.369" y="11.682">印刷工場</tspan></text>
    <text id="デジタルテキスタイル_プラットフォーム" data-name="デジタルテキスタイル プラットフォーム" transform="translate(140.771 36.364)" fill="#656565" font-size="8.178" font-family="HiraKakuProN-W3, Hiragino Kaku Gothic ProN" letter-spacing="0.001em"><tspan x="-40.112" y="0">デジタルテキスタイル</tspan><tspan x="-32.211" y="11.682">プラットフォーム</tspan></text>
    <text id="デジタル印刷_プラットフォーム" data-name="デジタル印刷 プラットフォーム" transform="translate(35.047 36.364)" fill="#656565" font-size="8.178" font-family="HiraKakuProN-W3, Hiragino Kaku Gothic ProN" letter-spacing="0.001em"><tspan x="-24.188" y="0">デジタル印刷</tspan><tspan x="-32.211" y="11.682">プラットフォーム</tspan></text>
    <g id="logo_happyprinters" data-name="logo/happyprinters" transform="translate(205.607 1.168)">
      <g id="logo_happyprinters-2" data-name="logo/happyprinters" transform="translate(0.229 0.304)">
        <path id="Fill_1" data-name="Fill 1" d="M18.488,11.606H.412A.41.41,0,0,1,0,11.2V5.514A.408.408,0,0,1,.145,5.2L6.173.1A.405.405,0,0,1,6.438,0a.419.419,0,0,1,.172.037A.412.412,0,0,1,6.848.41V4.63L12.2.1a.41.41,0,0,1,.677.312V4.63L18.222.1a.414.414,0,0,1,.268-.1.419.419,0,0,1,.172.037A.41.41,0,0,1,18.9.41V11.2A.41.41,0,0,1,18.488,11.606ZM6.026,1.294.822,5.7v5.084H18.077V1.294l-5.35,4.532a.414.414,0,0,1-.266.1.391.391,0,0,1-.171-.039.408.408,0,0,1-.24-.371V1.3L6.7,5.827a.416.416,0,0,1-.266.1.389.389,0,0,1-.171-.039.409.409,0,0,1-.24-.371Z" transform="translate(0 0)"/>
        <path id="Fill_4" data-name="Fill 4" d="M1.842,7.41h.445a1.012,1.012,0,0,1,.551.111A.43.43,0,0,1,3,7.9a.49.49,0,0,1-.141.4,1.13,1.13,0,0,1-.612.108H.494a.491.491,0,0,1-.369-.128A.535.535,0,0,1,0,7.9a.454.454,0,0,1,.144-.382A.969.969,0,0,1,.687,7.41h.12V1.021H.7A.947.947,0,0,1,.152.908.465.465,0,0,1,0,.51.529.529,0,0,1,.124.124.517.517,0,0,1,.506,0H2.181a1.286,1.286,0,0,1,.674.11A.484.484,0,0,1,3,.51a.432.432,0,0,1-.179.4,1.4,1.4,0,0,1-.679.114h-.3V3.487H5.881V1.021h-.45A.92.92,0,0,1,4.89.9.458.458,0,0,1,4.726.51a.472.472,0,0,1,.149-.4A1.493,1.493,0,0,1,5.61,0h1.62a.48.48,0,0,1,.36.128A.534.534,0,0,1,7.714.51.481.481,0,0,1,7.575.9a.768.768,0,0,1-.5.119H6.918V7.41h.107a.97.97,0,0,1,.545.108.458.458,0,0,1,.144.381.493.493,0,0,1-.139.4,1.217,1.217,0,0,1-.644.108H5.556A1.362,1.362,0,0,1,4.872,8.3a.482.482,0,0,1-.146-.4A.409.409,0,0,1,4.9,7.517a1.377,1.377,0,0,1,.658-.107h.325V4.461H1.842Z" transform="translate(22.229 3.084)"/>
        <path id="Fill_6" data-name="Fill 6" d="M2.206,6.9a2.2,2.2,0,0,1-1.6-.592A2.029,2.029,0,0,1,0,4.779,2.068,2.068,0,0,1,.806,3.043a3.675,3.675,0,0,1,2.268-.618,5.671,5.671,0,0,1,.778.055,5.944,5.944,0,0,1,.8.167V2.6a1.706,1.706,0,0,0-.366-1.2A1.49,1.49,0,0,0,3.154,1,2.77,2.77,0,0,0,2,1.3a2.671,2.671,0,0,1-.842.3.389.389,0,0,1-.32-.167A.689.689,0,0,1,.71,1c0-.28.24-.511.735-.707A5.174,5.174,0,0,1,3.321,0,2.318,2.318,0,0,1,5.087.635a2.655,2.655,0,0,1,.6,1.876V5.723h.326a1.26,1.26,0,0,1,.632.106.42.42,0,0,1,.158.383.509.509,0,0,1-.131.383.556.556,0,0,1-.4.127H5.225a.4.4,0,0,1-.3-.122.622.622,0,0,1-.158-.345l-.054-.431a4.054,4.054,0,0,1-1.186.8A3.359,3.359,0,0,1,2.206,6.9ZM3.269,3.339a3.061,3.061,0,0,0-1.615.37,1.127,1.127,0,0,0-.591.993,1,1,0,0,0,.368.795,1.414,1.414,0,0,0,.94.312,2.823,2.823,0,0,0,1.565-.472c.477-.314.719-.644.719-.982V3.586A4.772,4.772,0,0,0,3.949,3.4,3.874,3.874,0,0,0,3.269,3.339Z" transform="translate(30.935 4.771)"/>
        <path id="Fill_8" data-name="Fill 8" d="M2.377,9.395H.538a.56.56,0,0,1-.4-.128A.485.485,0,0,1,0,8.89a.439.439,0,0,1,.17-.4A1.261,1.261,0,0,1,.8,8.381H.924V1.021H.8A1.2,1.2,0,0,1,.17.907.436.436,0,0,1,0,.511.477.477,0,0,1,.138.139a.569.569,0,0,1,.4-.124H1.549a.454.454,0,0,1,.287.07.259.259,0,0,1,.091.22V.992a3.077,3.077,0,0,1,1-.743A2.855,2.855,0,0,1,4.106,0a2.93,2.93,0,0,1,2.23.964,3.422,3.422,0,0,1,.9,2.42,3.213,3.213,0,0,1-.852,2.292,2.858,2.858,0,0,1-2.17.9,3.161,3.161,0,0,1-1.3-.265,2.659,2.659,0,0,1-.99-.761V8.381h.5a.516.516,0,0,1,.378.126.534.534,0,0,1,.127.383.507.507,0,0,1-.125.392A.646.646,0,0,1,2.377,9.395Zm1.609-8.3a1.988,1.988,0,0,0-1.5.624,2.258,2.258,0,0,0-.583,1.6,2.275,2.275,0,0,0,.582,1.6,1.974,1.974,0,0,0,1.5.624A2.011,2.011,0,0,0,5.5,4.918a2.239,2.239,0,0,0,.59-1.606A2.22,2.22,0,0,0,5.5,1.721,2.006,2.006,0,0,0,3.985,1.092Z" transform="translate(38.431 4.927)"/>
        <path id="Fill_10" data-name="Fill 10" d="M2.375,9.395H.539a.563.563,0,0,1-.4-.128A.485.485,0,0,1,0,8.89a.442.442,0,0,1,.17-.4A1.252,1.252,0,0,1,.8,8.381H.924V1.021H.8A1.213,1.213,0,0,1,.17.907.439.439,0,0,1,0,.511.477.477,0,0,1,.137.139a.572.572,0,0,1,.4-.124h1.01a.451.451,0,0,1,.287.07.257.257,0,0,1,.09.22V.992a3.05,3.05,0,0,1,1-.743A2.853,2.853,0,0,1,4.106,0a2.93,2.93,0,0,1,2.23.964,3.432,3.432,0,0,1,.9,2.42,3.219,3.219,0,0,1-.85,2.292,2.865,2.865,0,0,1-2.171.9,3.154,3.154,0,0,1-1.3-.265,2.666,2.666,0,0,1-.991-.761V8.381h.506a.509.509,0,0,1,.377.126.525.525,0,0,1,.126.383.522.522,0,0,1-.121.392A.67.67,0,0,1,2.375,9.395Zm1.612-8.3a1.982,1.982,0,0,0-1.5.624,2.249,2.249,0,0,0-.583,1.6,2.274,2.274,0,0,0,.581,1.6,1.972,1.972,0,0,0,1.505.624A2.007,2.007,0,0,0,5.5,4.918a2.242,2.242,0,0,0,.592-1.606,2.215,2.215,0,0,0-.6-1.59A2,2,0,0,0,3.987,1.092Z" transform="translate(46.467 4.927)"/>
        <path id="Fill_12" data-name="Fill 12" d="M3.2,8.366h.285a1.336,1.336,0,0,1,.657.11.433.433,0,0,1,.174.4.486.486,0,0,1-.137.375.549.549,0,0,1-.393.129H1.565a.634.634,0,0,1-.433-.114.5.5,0,0,1-.126-.391.519.519,0,0,1,.13-.384.541.541,0,0,1,.39-.126h.6L3.2,6.105.764,1.006a1.115,1.115,0,0,1-.6-.114A.443.443,0,0,1,0,.5.479.479,0,0,1,.135.124.548.548,0,0,1,.533,0h1.85a.791.791,0,0,1,.5.108A.49.49,0,0,1,3.009.5a.444.444,0,0,1-.166.4,1.164,1.164,0,0,1-.612.114H1.987l1.8,3.906L5.62,1.006H5.36A1.236,1.236,0,0,1,4.729.892.445.445,0,0,1,4.556.5.5.5,0,0,1,4.683.108.815.815,0,0,1,5.19,0H6.828a.553.553,0,0,1,.4.124A.487.487,0,0,1,7.36.5a.453.453,0,0,1-.147.381.923.923,0,0,1-.518.128Z" transform="translate(53.985 4.943)"/>
        <path id="Fill_14" data-name="Fill 14" d="M.505,4.037a.494.494,0,0,1-.384-.184.539.539,0,0,1,.057-.74L3.57.125a.493.493,0,0,1,.712.059.539.539,0,0,1-.057.74L.834,3.913a.486.486,0,0,1-.329.124" transform="translate(71.404 5.021)"/>
        <path id="Fill_16" data-name="Fill 16" d="M.507,2.41A.5.5,0,0,1,.12,2.226a.538.538,0,0,1,.06-.74L1.724.125a.494.494,0,0,1,.714.06.535.535,0,0,1-.059.738L.833,2.286a.489.489,0,0,1-.326.124" transform="translate(76.997 1.729)"/>
        <path id="Fill_18" data-name="Fill 18" d="M3.524,8.391H.441a.419.419,0,0,1-.328-.13A.559.559,0,0,1,0,7.881a.523.523,0,0,1,.109-.37.453.453,0,0,1,.344-.117h.813V1.021H.827A1.31,1.31,0,0,1,.134.909.483.483,0,0,1,0,.511.551.551,0,0,1,.113.135.4.4,0,0,1,.441,0H3.36A3.576,3.576,0,0,1,5.689.665a2.434,2.434,0,0,1,.795,1.963A2.408,2.408,0,0,1,5.7,4.578a3.591,3.591,0,0,1-2.336.657h-1.1v2.16H3.577a.672.672,0,0,1,.445.117.447.447,0,0,1,.142.37.5.5,0,0,1-.134.4A.8.8,0,0,1,3.524,8.391ZM2.258,1.021V4.3H3.436a2.281,2.281,0,0,0,1.482-.412,1.508,1.508,0,0,0,.491-1.237,1.5,1.5,0,0,0-.5-1.223,2.272,2.272,0,0,0-1.478-.411Z" transform="translate(62.786 3.084)"/>
        <path id="Fill_20" data-name="Fill 20" d="M2.485,5.538H3.733a.492.492,0,0,1,.364.117.5.5,0,0,1,.116.37.56.56,0,0,1-.11.4.585.585,0,0,1-.408.11H.5A.507.507,0,0,1,.126,6.41.542.542,0,0,1,0,6.025a.486.486,0,0,1,.13-.37.577.577,0,0,1,.4-.117H1.542V1H1.115A1.605,1.605,0,0,1,.349.893.461.461,0,0,1,.2.5.5.5,0,0,1,.322.124.5.5,0,0,1,.7,0H2.134a.373.373,0,0,1,.259.075.259.259,0,0,1,.091.214v5.25Z" transform="translate(69.84 4.939)"/>
        <path id="Fill_22" data-name="Fill 22" d="M.509,4.037A.5.5,0,0,1,.12,3.853a.539.539,0,0,1,.059-.74L3.57.125a.494.494,0,0,1,.713.059.54.54,0,0,1-.059.74L.833,3.913a.472.472,0,0,1-.324.124" transform="translate(103.915 5.021)"/>
        <path id="Fill_24" data-name="Fill 24" d="M2.483,5.538H3.731a.5.5,0,0,1,.366.117.511.511,0,0,1,.114.37.561.561,0,0,1-.109.4.581.581,0,0,1-.407.11H.5A.52.52,0,0,1,.124,6.41.55.55,0,0,1,0,6.025a.486.486,0,0,1,.13-.37.582.582,0,0,1,.4-.117H1.542V1H1.115A1.6,1.6,0,0,1,.35.893.459.459,0,0,1,.2.5.49.49,0,0,1,.323.124.5.5,0,0,1,.7,0H2.135a.379.379,0,0,1,.258.075.263.263,0,0,1,.09.214v5.25Z" transform="translate(102.353 4.939)"/>
        <path id="Fill_26" data-name="Fill 26" d="M2.655,5.538H3.833a.491.491,0,0,1,.364.117.5.5,0,0,1,.117.37.565.565,0,0,1-.111.4.579.579,0,0,1-.407.11H.506a.522.522,0,0,1-.38-.125A.542.542,0,0,1,0,6.025a.487.487,0,0,1,.133-.37.592.592,0,0,1,.4-.117H1.7V1H1.055A.526.526,0,0,1,.661.871.5.5,0,0,1,.526.5.491.491,0,0,1,.653.124.509.509,0,0,1,1.031,0H2.289a.425.425,0,0,1,.267.078.261.261,0,0,1,.1.21Z" transform="translate(76.374 4.939)"/>
        <path id="Fill_28" data-name="Fill 28" d="M.882,5.71V1.175H.759a1.108,1.108,0,0,1-.6-.114A.447.447,0,0,1,0,.668.481.481,0,0,1,.134.289.638.638,0,0,1,.568.171h.913A.426.426,0,0,1,1.748.25a.266.266,0,0,1,.094.21V.944a3.4,3.4,0,0,1,.92-.713A2.092,2.092,0,0,1,3.709,0,1.863,1.863,0,0,1,5.223.668,2.8,2.8,0,0,1,5.775,2.5V5.71h.3a.712.712,0,0,1,.46.117.454.454,0,0,1,.138.37.471.471,0,0,1-.148.394.935.935,0,0,1-.533.117H4.583A.86.86,0,0,1,4.058,6.6a.543.543,0,0,1-.114-.4.454.454,0,0,1,.134-.379.848.848,0,0,1,.506-.108h.222V2.767A2.045,2.045,0,0,0,4.467,1.5a1.17,1.17,0,0,0-.979-.432,1.592,1.592,0,0,0-1.149.488,1.623,1.623,0,0,0-.5,1.21V5.71h.223a.859.859,0,0,1,.514.108.449.449,0,0,1,.136.379.539.539,0,0,1-.117.4.937.937,0,0,1-.559.107H.536a.559.559,0,0,1-.393-.125A.51.51,0,0,1,.014,6.2a.439.439,0,0,1,.149-.385,1.142,1.142,0,0,1,.584-.1Z" transform="translate(81.659 4.768)"/>
        <path id="Fill_30" data-name="Fill 30" d="M5.207,1.673a.7.7,0,0,1,.451.12.473.473,0,0,1,.141.384.48.48,0,0,1-.132.37.559.559,0,0,1-.4.127H2.547V5.032a3.33,3.33,0,0,0,.144,1.53.829.829,0,0,0,.794.365,2.875,2.875,0,0,0,1.25-.375,3.785,3.785,0,0,1,.99-.375.385.385,0,0,1,.3.142.51.51,0,0,1,.123.347.584.584,0,0,1-.154.406,1.505,1.505,0,0,1-.526.338,7.106,7.106,0,0,1-1.115.4,2.923,2.923,0,0,1-.8.126,2.133,2.133,0,0,1-1.117-.266,1.654,1.654,0,0,1-.746-.789,8.38,8.38,0,0,1-.111-1.633V2.674H.5a.531.531,0,0,1-.385-.12A.507.507,0,0,1,0,2.177a.436.436,0,0,1,.163-.4,1.489,1.489,0,0,1,.7-.106h.713V.6A.7.7,0,0,1,1.692.146.439.439,0,0,1,2.056,0,.411.411,0,0,1,2.44.177a1.831,1.831,0,0,1,.107.806v.691Z" transform="translate(88.481 3.661)"/>
        <path id="Fill_32" data-name="Fill 32" d="M3.116,6.9a2.926,2.926,0,0,1-2.264-.93A3.527,3.527,0,0,1,0,3.5,3.581,3.581,0,0,1,.9.969,3.055,3.055,0,0,1,3.246,0,2.894,2.894,0,0,1,5.419.906,3.066,3.066,0,0,1,6.282,3.1a.733.733,0,0,1-.148.534,1.376,1.376,0,0,1-.788.133H1.079a2.321,2.321,0,0,0,.607,1.574A2.063,2.063,0,0,0,3.2,5.892,3.505,3.505,0,0,0,4.788,5.45a3.993,3.993,0,0,1,1.034-.442.408.408,0,0,1,.312.133.476.476,0,0,1,.122.332.6.6,0,0,1-.129.376,1.434,1.434,0,0,1-.417.335,5.784,5.784,0,0,1-1.282.528A4.961,4.961,0,0,1,3.116,6.9ZM3.246.969a2.04,2.04,0,0,0-1.389.494,2.392,2.392,0,0,0-.743,1.375h4.04a2.168,2.168,0,0,0-.62-1.358A1.774,1.774,0,0,0,3.246.969Z" transform="translate(95.303 4.755)"/>
        <path id="Fill_34" data-name="Fill 34" d="M0,6.2V4.94a.746.746,0,0,1,.106-.448.394.394,0,0,1,.335-.133c.174,0,.309.133.412.4a1.883,1.883,0,0,0,.182.357,1.809,1.809,0,0,0,.781.614,2.815,2.815,0,0,0,1.143.232,1.727,1.727,0,0,0,1.07-.307.952.952,0,0,0,.408-.8.8.8,0,0,0-.325-.715A2.158,2.158,0,0,0,3,3.925H2.649a3.252,3.252,0,0,1-1.962-.5A1.7,1.7,0,0,1,.011,1.966,1.74,1.74,0,0,1,.672.517,2.929,2.929,0,0,1,2.523,0a3.381,3.381,0,0,1,.991.155q.5.149.528.149A.63.63,0,0,0,4.309.168.667.667,0,0,1,4.695.028.342.342,0,0,1,5.01.2a1.058,1.058,0,0,1,.1.532v.83a1.117,1.117,0,0,1-.1.54.349.349,0,0,1-.321.164c-.127,0-.286-.118-.469-.36-.131-.167-.239-.293-.32-.376a2.036,2.036,0,0,0-.714-.5A2.309,2.309,0,0,0,2.3.885a1.471,1.471,0,0,0-.956.293.921.921,0,0,0-.366.748.666.666,0,0,0,.372.636,4.347,4.347,0,0,0,1.6.218,3.242,3.242,0,0,1,1.917.514,1.765,1.765,0,0,1,.606,1.476,1.907,1.907,0,0,1-.668,1.524,2.7,2.7,0,0,1-1.8.575,4.821,4.821,0,0,1-.8-.075q-.442-.075-1.109-.25a2.707,2.707,0,0,1-.381.241.6.6,0,0,1-.261.083A.382.382,0,0,1,.117,6.7.881.881,0,0,1,0,6.2" transform="translate(108.881 4.768)"/>
      </g>
    </g>
    <g id="logo_happyfabric" data-name="logo/happyfabric" transform="translate(108.645)">
      <g id="logo_happyfabric-2" data-name="logo/happyfabric" transform="translate(0 0.081)">
        <path id="Stroke_37" data-name="Stroke 37" d="M0,17.325H64.206V0H0Z" transform="translate(0 0)" fill="none" stroke="#000" stroke-miterlimit="10" stroke-width="0.977"/>
        <path id="Stroke_39" data-name="Stroke 39" d="M.977.828V.172" transform="translate(1.675 16.497)" fill="none" stroke="#000" stroke-linecap="round" stroke-miterlimit="10" stroke-width="0.977"/>
        <path id="Stroke_40" data-name="Stroke 40" d="M.977,14.164V0" transform="translate(1.675 1.273)" fill="none" stroke="#000" stroke-linecap="round" stroke-miterlimit="10" stroke-width="0.977" stroke-dasharray="3.022 3.022"/>
        <path id="Stroke_41" data-name="Stroke 41" d="M.977.828V.172" transform="translate(1.675 -0.172)" fill="none" stroke="#000" stroke-linecap="round" stroke-miterlimit="10" stroke-width="0.977"/>
        <path id="Stroke_42" data-name="Stroke 42" d="M.977.833V.2" transform="translate(60.576 16.492)" fill="none" stroke="#000" stroke-linecap="round" stroke-miterlimit="10" stroke-width="0.977"/>
        <path id="Stroke_43" data-name="Stroke 43" d="M.977,14.2V0" transform="translate(60.576 1.252)" fill="none" stroke="#000" stroke-linecap="round" stroke-miterlimit="10" stroke-width="0.977" stroke-dasharray="3.031 3.031"/>
        <path id="Stroke_44" data-name="Stroke 44" d="M.977.833V.2" transform="translate(60.576 -0.198)" fill="none" stroke="#000" stroke-linecap="round" stroke-miterlimit="10" stroke-width="0.977"/>
        <path id="Fill_45" data-name="Fill 45" d="M1.027.66H4.009V0H0V7.562H1.027V3.709H3.184v-.6H1.027Z" transform="translate(34.05 4.668)"/>
        <path id="Fill_46" data-name="Fill 46" d="M1.208,5.013a1.325,1.325,0,0,1-.5-.092,1.139,1.139,0,0,1-.383-.253,1.081,1.081,0,0,1-.241-.381A1.31,1.31,0,0,1,0,3.811a1.277,1.277,0,0,1,.121-.558,1.539,1.539,0,0,1,.33-.446,2.37,2.37,0,0,1,.487-.35,5.3,5.3,0,0,1,.59-.273c.211-.082.427-.154.644-.215s.428-.119.647-.175v-.3A2.049,2.049,0,0,0,2.756.942.96.96,0,0,0,2.574.577a.674.674,0,0,0-.287-.2,1.112,1.112,0,0,0-.38-.061A1,1,0,0,0,1.52.381a.593.593,0,0,0-.235.166.575.575,0,0,0-.117.235,1.2,1.2,0,0,0-.03.267,1.525,1.525,0,0,1-.019.242.608.608,0,0,1-.073.2A.406.406,0,0,1,.9,1.634a.441.441,0,0,1-.23.054.458.458,0,0,1-.2-.043.449.449,0,0,1-.155-.118.532.532,0,0,1-.1-.18A.675.675,0,0,1,.18,1.124.732.732,0,0,1,.334.68,1.346,1.346,0,0,1,.747.325,2.342,2.342,0,0,1,1.353.087,3.014,3.014,0,0,1,2.082,0a2.913,2.913,0,0,1,.787.092,1.4,1.4,0,0,1,.517.257.972.972,0,0,1,.286.4,1.516,1.516,0,0,1,.088.524V4.909h-.94V4.25c-.118.092-.225.179-.327.264a2.7,2.7,0,0,1-.347.246,1.845,1.845,0,0,1-.413.182A1.811,1.811,0,0,1,1.208,5.013ZM2.819,2.1c-.15.05-.287.1-.419.153s-.285.12-.426.19a3.87,3.87,0,0,0-.4.228,2.145,2.145,0,0,0-.331.261,1.223,1.223,0,0,0-.226.3.7.7,0,0,0-.083.328A.9.9,0,0,0,1,3.894a.964.964,0,0,0,.169.278.83.83,0,0,0,.244.188.631.631,0,0,0,.287.069A1.024,1.024,0,0,0,2,4.387a1.428,1.428,0,0,0,.276-.114A2.225,2.225,0,0,0,2.545,4.1c.087-.062.177-.128.274-.2Z" transform="translate(37.909 7.038)"/>
        <path id="Fill_47" data-name="Fill 47" d="M1.809,7.377a3.455,3.455,0,0,1-.988-.139A2.308,2.308,0,0,1,0,6.8V.268L.662,0H.936V3.364a1.69,1.69,0,0,1,.3-.382,2.328,2.328,0,0,1,.406-.319A2.228,2.228,0,0,1,2.1,2.446a1.4,1.4,0,0,1,.457-.081,1.684,1.684,0,0,1,.757.171A1.877,1.877,0,0,1,3.908,3a2.152,2.152,0,0,1,.391.681,2.451,2.451,0,0,1,.141.832,3.027,3.027,0,0,1-.095.764,3.115,3.115,0,0,1-.263.683,2.774,2.774,0,0,1-.411.58,2.684,2.684,0,0,1-.534.449,2.572,2.572,0,0,1-.628.288A2.385,2.385,0,0,1,1.809,7.377ZM2.082,3.1a1.241,1.241,0,0,0-.328.045,1.532,1.532,0,0,0-.323.126,1.569,1.569,0,0,0-.283.188,1.115,1.115,0,0,0-.212.229V6.486c.056.057.121.117.192.177a1.691,1.691,0,0,0,.232.16,1.357,1.357,0,0,0,.286.116A1.3,1.3,0,0,0,2,6.983a1.149,1.149,0,0,0,.6-.161,1.466,1.466,0,0,0,.458-.451,2.322,2.322,0,0,0,.3-.685A3.363,3.363,0,0,0,3.46,4.82a2.076,2.076,0,0,0-.107-.672A1.8,1.8,0,0,0,3.058,3.6a1.409,1.409,0,0,0-.439-.365A1.13,1.13,0,0,0,2.082,3.1Z" transform="translate(42.721 4.672)"/>
        <path id="Fill_48" data-name="Fill 48" d="M2.8.173a.839.839,0,0,0-.23-.126A.856.856,0,0,0,2.279,0a.9.9,0,0,0-.371.081A1.564,1.564,0,0,0,1.555.3a2.55,2.55,0,0,0-.329.323,4.039,4.039,0,0,0-.294.386V.1H0v4.81H.931V1.577q.1-.161.193-.3a2,2,0,0,1,.191-.237A.841.841,0,0,1,1.5.885.367.367,0,0,1,1.691.828a.5.5,0,0,1,.2.034c.052.022.105.048.156.076a1.13,1.13,0,0,0,.171.076.774.774,0,0,0,.253.034.6.6,0,0,0,.4-.119A.431.431,0,0,0,3.008.578.462.462,0,0,0,2.95.356.592.592,0,0,0,2.8.173" transform="translate(47.841 7.037)"/>
        <path id="Fill_49" data-name="Fill 49" d="M1.169.2A.7.7,0,0,0,.951.053.675.675,0,0,0,.683,0,.65.65,0,0,0,.42.053.693.693,0,0,0,.205.2.706.706,0,0,0,.056.416.621.621,0,0,0,0,.679.629.629,0,0,0,.056.943.715.715,0,0,0,.42,1.3a.65.65,0,0,0,.263.053A.675.675,0,0,0,.951,1.3a.712.712,0,0,0,.218-.147A.742.742,0,0,0,1.318.943.654.654,0,0,0,1.373.679.645.645,0,0,0,1.318.416.735.735,0,0,0,1.169.2" transform="translate(51.134 4.601)"/>
        <path id="Fill_50" data-name="Fill 50" d="M0,.273V4.909H.931V0H.659Z" transform="translate(51.297 7.037)"/>
        <path id="Fill_51" data-name="Fill 51" d="M4.106,2.974a4.4,4.4,0,0,1-.229.5,1.781,1.781,0,0,1-.305.417,1.33,1.33,0,0,1-.419.285,1.422,1.422,0,0,1-.572.105A1.3,1.3,0,0,1,1.906,4.1a1.688,1.688,0,0,1-.518-.491,2.434,2.434,0,0,1-.333-.721,3.12,3.12,0,0,1-.118-.874,2.205,2.205,0,0,1,.092-.643A1.591,1.591,0,0,1,1.3.846a1.293,1.293,0,0,1,.43-.355A1.227,1.227,0,0,1,2.3.358a1.07,1.07,0,0,1,.39.061.573.573,0,0,1,.242.166.6.6,0,0,1,.123.25,1.334,1.334,0,0,1,.035.311.517.517,0,0,0,.038.193.511.511,0,0,0,.109.168.579.579,0,0,0,.174.121.537.537,0,0,0,.229.047.625.625,0,0,0,.225-.043.709.709,0,0,0,.2-.114.6.6,0,0,0,.143-.168.408.408,0,0,0,.055-.2A.812.812,0,0,0,4.128.695,1.23,1.23,0,0,0,3.751.329,2.027,2.027,0,0,0,3.176.087,2.92,2.92,0,0,0,2.446,0a2.238,2.238,0,0,0-.952.206A2.5,2.5,0,0,0,.716.769a2.686,2.686,0,0,0-.525.838A2.753,2.753,0,0,0,0,2.633a2.487,2.487,0,0,0,.174.927,2.41,2.41,0,0,0,.474.757,2.238,2.238,0,0,0,.707.508,2.067,2.067,0,0,0,.867.186,2.124,2.124,0,0,0,.749-.13,1.958,1.958,0,0,0,.618-.377,2.34,2.34,0,0,0,.477-.6,3.392,3.392,0,0,0,.321-.811Z" transform="translate(52.952 7.038)"/>
        <path id="Fill_52" data-name="Fill 52" d="M4.1,3.259H1.028V0H0V7.562H1.028V3.983H4.1V7.562H5.129V0H4.1Z" transform="translate(7.255 4.668)"/>
        <path id="Fill_53" data-name="Fill 53" d="M1.208,5.013a1.331,1.331,0,0,1-.5-.092,1.139,1.139,0,0,1-.383-.253,1.09,1.09,0,0,1-.241-.381A1.311,1.311,0,0,1,0,3.811a1.277,1.277,0,0,1,.12-.558,1.555,1.555,0,0,1,.33-.446,2.387,2.387,0,0,1,.487-.35,5.323,5.323,0,0,1,.591-.273c.209-.082.426-.154.643-.215s.42-.117.648-.175v-.3A2.049,2.049,0,0,0,2.756.942.96.96,0,0,0,2.573.577a.674.674,0,0,0-.287-.2,1.129,1.129,0,0,0-.38-.061,1.008,1.008,0,0,0-.386.063.6.6,0,0,0-.235.166.569.569,0,0,0-.117.235,1.2,1.2,0,0,0-.031.267,1.483,1.483,0,0,1-.019.242.594.594,0,0,1-.072.2A.41.41,0,0,1,.9,1.634a.441.441,0,0,1-.23.054.455.455,0,0,1-.2-.043.469.469,0,0,1-.156-.118.537.537,0,0,1-.1-.18A.7.7,0,0,1,.18,1.124.732.732,0,0,1,.333.68,1.356,1.356,0,0,1,.746.325,2.344,2.344,0,0,1,1.352.087,3.02,3.02,0,0,1,2.081,0a2.913,2.913,0,0,1,.787.092,1.393,1.393,0,0,1,.517.257.959.959,0,0,1,.286.4,1.525,1.525,0,0,1,.088.524V4.909h-.94V4.25c-.108.084-.216.171-.328.264a2.6,2.6,0,0,1-.347.246,1.83,1.83,0,0,1-.413.182A1.806,1.806,0,0,1,1.208,5.013ZM2.819,2.1c-.146.049-.283.1-.419.153s-.285.119-.427.19a3.869,3.869,0,0,0-.4.228,2.151,2.151,0,0,0-.332.261,1.208,1.208,0,0,0-.225.3.688.688,0,0,0-.085.328A.9.9,0,0,0,1,3.894a.964.964,0,0,0,.169.278.827.827,0,0,0,.244.188.639.639,0,0,0,.287.069A1.024,1.024,0,0,0,2,4.387a1.456,1.456,0,0,0,.277-.114A2.346,2.346,0,0,0,2.545,4.1c.086-.061.175-.128.274-.2Z" transform="translate(13.218 7.038)"/>
        <path id="Fill_54" data-name="Fill 54" d="M.272,7.126H0V.1H.936v.981c.1-.127.2-.253.314-.374A2.71,2.71,0,0,1,1.634.358,1.966,1.966,0,0,1,2.1.1,1.48,1.48,0,0,1,2.653,0a1.635,1.635,0,0,1,.76.178A1.809,1.809,0,0,1,4,.665a2.262,2.262,0,0,1,.374.718,2.912,2.912,0,0,1,.131.878,3.6,3.6,0,0,1-.162,1.1,2.7,2.7,0,0,1-.462.871,2.121,2.121,0,0,1-.724.573,2.185,2.185,0,0,1-.957.206,2.868,2.868,0,0,1-.364-.022,2.12,2.12,0,0,1-.319-.062,1.707,1.707,0,0,1-.292-.11,2.7,2.7,0,0,1-.285-.161v2.2l-.663.268ZM2.236.649a1.209,1.209,0,0,0-.394.065,1.635,1.635,0,0,0-.35.173,1.871,1.871,0,0,0-.306.249,2.453,2.453,0,0,0-.25.293V3.61a.939.939,0,0,0,.092.407.983.983,0,0,0,.259.334,1.279,1.279,0,0,0,.4.224,1.516,1.516,0,0,0,.509.083.951.951,0,0,0,.494-.137,1.291,1.291,0,0,0,.4-.387,2.013,2.013,0,0,0,.273-.6,2.852,2.852,0,0,0,.1-.772,4.161,4.161,0,0,0-.092-.93,2.169,2.169,0,0,0-.257-.66A1.126,1.126,0,0,0,2.728.779.969.969,0,0,0,2.236.649Z" transform="translate(18.03 7.038)"/>
        <path id="Fill_55" data-name="Fill 55" d="M.272,7.126H0V.1H.936v.981c.1-.127.2-.253.314-.374A2.71,2.71,0,0,1,1.634.358,1.966,1.966,0,0,1,2.1.1,1.48,1.48,0,0,1,2.653,0a1.639,1.639,0,0,1,.76.178A1.815,1.815,0,0,1,4,.665a2.262,2.262,0,0,1,.374.718,2.912,2.912,0,0,1,.131.878,3.568,3.568,0,0,1-.163,1.1,2.673,2.673,0,0,1-.46.871,2.121,2.121,0,0,1-.725.573,2.175,2.175,0,0,1-.956.206,2.868,2.868,0,0,1-.364-.022,2.12,2.12,0,0,1-.319-.062,1.707,1.707,0,0,1-.292-.11,2.574,2.574,0,0,1-.285-.161v2.2l-.663.268ZM2.236.649a1.209,1.209,0,0,0-.394.065,1.66,1.66,0,0,0-.351.173,1.9,1.9,0,0,0-.305.249,2.453,2.453,0,0,0-.25.293V3.61a.939.939,0,0,0,.092.407.983.983,0,0,0,.259.334,1.273,1.273,0,0,0,.4.224,1.516,1.516,0,0,0,.509.083.951.951,0,0,0,.494-.137,1.291,1.291,0,0,0,.4-.387,2.014,2.014,0,0,0,.272-.6,2.823,2.823,0,0,0,.1-.772,4.161,4.161,0,0,0-.092-.93,2.208,2.208,0,0,0-.257-.66A1.13,1.13,0,0,0,2.728.779.973.973,0,0,0,2.236.649Z" transform="translate(23.212 7.038)"/>
        <path id="Fill_56" data-name="Fill 56" d="M2.889,3.471,1.067,0H0L2.415,4.582,2.1,5.3c-.039.087-.081.18-.128.282a1.677,1.677,0,0,1-.163.28.966.966,0,0,1-.207.212.417.417,0,0,1-.258.086.568.568,0,0,1-.216-.033,1.3,1.3,0,0,1-.149-.076,1.04,1.04,0,0,0-.155-.076.667.667,0,0,0-.235-.033.58.58,0,0,0-.231.045.581.581,0,0,0-.175.117.494.494,0,0,0-.112.168.5.5,0,0,0-.039.194.449.449,0,0,0,.059.224.563.563,0,0,0,.163.178.808.808,0,0,0,.241.114,1.065,1.065,0,0,0,.292.04,1.341,1.341,0,0,0,.456-.083,2.037,2.037,0,0,0,.52-.251,2.2,2.2,0,0,0,.419-.427,2.949,2.949,0,0,0,.352-.614L4.939,0H4.374Z" transform="translate(27.875 7.14)"/>
      </g>
    </g>
    <g id="logo_logo1" data-name="logo/logo1" transform="translate(0 1)">
      <g id="Group_10" data-name="Group 10" transform="translate(0 0)">
        <path id="Fill_8-2" data-name="Fill 8" d="M49.549,13.865a5.073,5.073,0,0,1-5.126-5.007,5.127,5.127,0,0,1,10.252,0A5.073,5.073,0,0,1,49.549,13.865Zm0-7.7a2.694,2.694,0,1,0,2.758,2.693A2.729,2.729,0,0,0,49.549,6.165Zm-13.328,7.7h0a5.684,5.684,0,0,1-1.481-1.89,5.479,5.479,0,0,1-.47-2.346V6.508H32.506V4.2H34.27V1.36h2.366V4.2H38.5v2.31H36.636V9.629a3.6,3.6,0,0,0,1.577,3.081l-1.992,1.155ZM25.494,13.52H23.128V8.209a3.6,3.6,0,0,0-1.577-3.081l1.992-1.155.083.081a6.692,6.692,0,0,1,1.12,1.3l0,0A6.54,6.54,0,0,1,25.7,4.6a4.256,4.256,0,0,1,2.2-.75,3.4,3.4,0,0,1,2.228.8,2.737,2.737,0,0,1,.967,2.1v6.769H28.731V7.845a2.3,2.3,0,0,0-.192-1.054,1,1,0,0,0-.97-.507c-1.266,0-2.075,1.726-2.075,1.743V13.52Zm17.323,0H40.41V4.2h2.407v9.323Zm-23.175,0H17.235V4.2h2.407v9.323ZM13,13.52H10.636V8.209A3.6,3.6,0,0,0,9.059,5.128l1.992-1.155.083.081a6.733,6.733,0,0,1,1.121,1.3l0,0a9.07,9.07,0,0,1,.971-.725,3.974,3.974,0,0,1,1.909-.73h.1L15.7,6.3h-.1a2.9,2.9,0,0,0-1.748.869A7.688,7.688,0,0,0,13,8.027v5.492Zm-10.552,0H0V1.352H3.2a5.452,5.452,0,0,1,3.429,1.2A3.964,3.964,0,0,1,8.139,5.631,3.964,3.964,0,0,1,6.626,8.706,5.452,5.452,0,0,1,3.2,9.91H2.45v3.609Zm0-9.775V7.517H3.2a2.976,2.976,0,0,0,1.677-.5,1.681,1.681,0,0,0,.773-1.384,1.682,1.682,0,0,0-.773-1.384,2.975,2.975,0,0,0-1.677-.5ZM41.614,2.8a1.453,1.453,0,0,1-1-.418,1.387,1.387,0,0,1-.428-.98A1.387,1.387,0,0,1,40.61.418a1.414,1.414,0,0,1,2.008,0,1.387,1.387,0,0,1,.428.981,1.387,1.387,0,0,1-.428.98A1.453,1.453,0,0,1,41.614,2.8Zm-23.175,0a1.453,1.453,0,0,1-1-.418,1.387,1.387,0,0,1-.428-.98,1.387,1.387,0,0,1,.428-.981,1.414,1.414,0,0,1,2.008,0,1.387,1.387,0,0,1,.428.981,1.387,1.387,0,0,1-.428.98A1.453,1.453,0,0,1,18.439,2.8Z" transform="translate(17.302)"/>
        <g id="logo-2" data-name="logo" transform="translate(0 0)">
          <path id="Combined_Shape" data-name="Combined Shape" d="M7,13.675H7V9.5A2.694,2.694,0,0,0,9.722,6.837a2.723,2.723,0,0,0-5.444,0H0A6.657,6.657,0,0,1,.55,4.176,6.805,6.805,0,0,1,2.05,2,6.986,6.986,0,0,1,4.275.537a7.176,7.176,0,0,1,5.45,0A6.988,6.988,0,0,1,11.95,2a6.806,6.806,0,0,1,1.5,2.173,6.712,6.712,0,0,1,0,5.323,6.808,6.808,0,0,1-1.5,2.173,6.988,6.988,0,0,1-2.225,1.465A7.1,7.1,0,0,1,7,13.675Z" transform="translate(0)" fill="#27b291"/>
          <path id="Combined_Shape-2" data-name="Combined Shape" d="M6.938,6.837A7.094,7.094,0,0,1,4.275,6.3,6.986,6.986,0,0,1,2.05,4.835,6.8,6.8,0,0,1,.55,2.661,6.656,6.656,0,0,1,0,0H4.278A2.694,2.694,0,0,0,7,2.659V6.837Z" transform="translate(0 6.837)" fill="#2151a2"/>
          <path id="Fill_4-2" data-name="Fill 4" d="M0,0H0V6.837H7A6.92,6.92,0,0,1,0,0" transform="translate(0 6.837)" fill="#e6da25"/>
        </g>
      </g>
    </g>
  </g>
</svg>
