<svg id="Figure_01" data-name="Figure/01" xmlns="http://www.w3.org/2000/svg" xmlns:xlink="http://www.w3.org/1999/xlink" width="953" height="507" viewBox="0 0 953 507">
  <defs>
    <clipPath id="clip-path">
      <path id="Clip_12" data-name="Clip 12" d="M0,506.911H952.941V0H0Z" transform="translate(0 0)" fill="none"/>
    </clipPath>
    <clipPath id="clip-path-2">
      <circle id="Mask" cx="45.9" cy="45.9" r="45.9" transform="translate(0 0)" fill="none"/>
    </clipPath>
    <clipPath id="clip-path-3">
      <path id="Clip_2" data-name="Clip 2" d="M21.92,0C2.871,0-.18,18.544.008,31.473H44.669C44.622,18.594,41.223.143,22.139,0H21.92Z" transform="translate(0.645 0.036)" fill="none"/>
    </clipPath>
    <clipPath id="clip-path-4">
      <path id="Clip_8" data-name="Clip 8" d="M0,20.026c0,9.494,6.974,14.357,15.575,14.357h0c8.6,0,15.573-4.863,15.573-14.357h0C31.148,10.532,24.176,0,15.575,0h0C6.974,0,0,10.532,0,20.026Z" transform="translate(0.232 0.578)" fill="none"/>
    </clipPath>
    <clipPath id="clip-path-5">
      <path id="Clip_11" data-name="Clip 11" d="M0,4.451A4.453,4.453,0,0,0,4.451,8.9h0A4.451,4.451,0,0,0,8.9,4.451h0A4.45,4.45,0,0,0,4.451,0h0A4.452,4.452,0,0,0,0,4.451Z" transform="translate(0.713 0.409)" fill="none"/>
    </clipPath>
    <clipPath id="clip-path-6">
      <path id="Clip_14" data-name="Clip 14" d="M0,4.451A4.454,4.454,0,0,0,4.451,8.9h0A4.453,4.453,0,0,0,8.9,4.451h0A4.452,4.452,0,0,0,4.451,0h0A4.453,4.453,0,0,0,0,4.451Z" transform="translate(0.253 0.409)" fill="none"/>
    </clipPath>
    <clipPath id="clip-path-7">
      <path id="Clip_17" data-name="Clip 17" d="M0,1.371A1.369,1.369,0,0,0,1.369,2.737h0A1.367,1.367,0,0,0,2.737,1.371h0A1.368,1.368,0,0,0,1.369,0h0A1.369,1.369,0,0,0,0,1.371Z" transform="translate(0.462 0.862)" fill="none"/>
    </clipPath>
    <clipPath id="clip-path-8">
      <path id="Clip_20" data-name="Clip 20" d="M0,1.371A1.367,1.367,0,0,0,1.369,2.737h0A1.368,1.368,0,0,0,2.74,1.371h0A1.369,1.369,0,0,0,1.369,0h0A1.368,1.368,0,0,0,0,1.371Z" transform="translate(0.467 0.862)" fill="none"/>
    </clipPath>
    <clipPath id="clip-path-9">
      <path id="Clip_23" data-name="Clip 23" d="M0,0A3.239,3.239,0,0,0,3.238,3.24h0A3.237,3.237,0,0,0,6.474,0H0Z" transform="translate(0.164 0.55)" fill="none"/>
    </clipPath>
    <clipPath id="clip-path-10">
      <path id="Clip_26" data-name="Clip 26" d="M.482,21.643l.868.717,6.25-10.9,7.268,2.793L14.787,11.7l6.068,2.952.482-2.874,4.791,3.833.639-2.874,5.465,9.637.825-.618c3.891-11.5-2.775-16.046-2.775-16.046h0L31.32,3.875l-4.712-.4L27.887,1.4l-6.631.877L21.416.041S20.889,0,20,0h0C14.738,0-3.147,1.464.482,21.643Z" transform="translate(0.101 0.908)" fill="none"/>
    </clipPath>
    <clipPath id="clip-path-11">
      <path id="Clip_29" data-name="Clip 29" d="M11.543,0C1.7,5.5-.139,19.036.008,29.155H44.9C44.866,19.038,42.771,5.506,32.711,0H11.543Z" transform="translate(0.538 0.329)" fill="none"/>
    </clipPath>
    <clipPath id="clip-path-12">
      <path id="Clip_32" data-name="Clip 32" d="M1.42.236A19.282,19.282,0,0,0,0,1.832H31.88a19.457,19.457,0,0,0-1.466-1.6H1.42Z" transform="translate(0.593 0.96)" fill="none"/>
    </clipPath>
    <clipPath id="clip-path-13">
      <path id="Clip_35" data-name="Clip 35" d="M.835.238C.54.755.261,1.288,0,1.83H37.309c-.275-.544-.564-1.075-.875-1.592H.835Z" transform="translate(0 0.058)" fill="none"/>
    </clipPath>
    <clipPath id="clip-path-14">
      <path id="Clip_38" data-name="Clip 38" d="M.527.237Q.245,1.024,0,1.831H40.719c-.176-.538-.362-1.069-.562-1.594H.527Z" transform="translate(0.411 0.224)" fill="none"/>
    </clipPath>
    <clipPath id="clip-path-15">
      <path id="Clip_41" data-name="Clip 41" d="M.327.237C.207.766.1,1.3,0,1.831H42.883q-.164-.8-.36-1.594H.327Z" transform="translate(0.441 0.392)" fill="none"/>
    </clipPath>
    <clipPath id="clip-path-16">
      <path id="Clip_44" data-name="Clip 44" d="M.18.236C.112.769.052,1.3,0,1.832H44.176c-.062-.529-.132-1.063-.211-1.6H.18Z" transform="translate(0.837 0.558)" fill="none"/>
    </clipPath>
    <clipPath id="clip-path-17">
      <path id="Clip_47" data-name="Clip 47" d="M.066.237C.037.772.017,1.306,0,1.831H44.8c-.025-.525-.056-1.059-.1-1.594H.066Z" transform="translate(0.567 0.725)" fill="none"/>
    </clipPath>
    <clipPath id="clip-path-19">
      <path id="Clip_2-2" data-name="Clip 2" d="M22.013,0C2.881,0-.177,18.625.008,31.612H44.866C44.821,18.675,41.405.142,22.238,0h-.225Z" transform="translate(0.08 0.676)" fill="none"/>
    </clipPath>
    <clipPath id="clip-path-20">
      <path id="Clip_5" data-name="Clip 5" d="M.439.014,0,7.711c.083,2.329,2.108,3.4,4.336,3.3h0c3.179-.16,3.436-2.621,3.436-2.621h0L7.319,0Z" transform="translate(0.614 0.258)" fill="none"/>
    </clipPath>
    <clipPath id="clip-path-21">
      <path id="Clip_8-2" data-name="Clip 8" d="M0,7.432l4.345.479V1.784A23.259,23.259,0,0,0,0,0H0Z" transform="translate(0.636 0.196)" fill="none"/>
    </clipPath>
    <clipPath id="clip-path-22">
      <path id="Clip_11-2" data-name="Clip 11" d="M0,1.784V7.911l4.345-.479V0A23.259,23.259,0,0,0,0,1.784Z" transform="translate(0.178 0.196)" fill="none"/>
    </clipPath>
    <clipPath id="clip-path-23">
      <path id="Clip_14-2" data-name="Clip 14" d="M0,5.409A5.411,5.411,0,0,0,5.411,10.82h0A5.409,5.409,0,0,0,10.82,5.409h0A5.408,5.408,0,0,0,5.411,0h0A5.41,5.41,0,0,0,0,5.409Z" transform="translate(0.247 0.703)" fill="none"/>
    </clipPath>
    <clipPath id="clip-path-24">
      <path id="Clip_17-2" data-name="Clip 17" d="M0,3.307a3.308,3.308,0,0,0,3.31,3.31h0a3.309,3.309,0,0,0,3.307-3.31h0A3.309,3.309,0,0,0,3.31,0h0A3.308,3.308,0,0,0,0,3.307Z" transform="translate(0.865 0.525)" fill="none"/>
    </clipPath>
    <clipPath id="clip-path-25">
      <path id="Clip_20-2" data-name="Clip 20" d="M0,2.869A2.869,2.869,0,0,0,2.866,5.738h0A2.871,2.871,0,0,0,5.738,2.869h0A2.871,2.871,0,0,0,2.866,0h0A2.869,2.869,0,0,0,0,2.869Z" transform="translate(0.721 0.378)" fill="none"/>
    </clipPath>
    <clipPath id="clip-path-26">
      <path id="Clip_23-2" data-name="Clip 23" d="M0,18.517A18.52,18.52,0,0,0,18.52,37.035h0A18.517,18.517,0,0,0,37.037,18.517h0A18.515,18.515,0,0,0,18.52,0h0A18.519,18.519,0,0,0,0,18.517Z" transform="translate(0.712 0.889)" fill="none"/>
    </clipPath>
    <clipPath id="clip-path-27">
      <path id="Clip_26-2" data-name="Clip 26" d="M0,20.111c0,9.54,7.006,14.425,15.644,14.425h0c8.64,0,15.644-4.885,15.644-14.425h0c0-9.536-7-20.111-15.644-20.111h0C7.006,0,0,10.575,0,20.111Z" transform="translate(0.104 0.364)" fill="none"/>
    </clipPath>
    <clipPath id="clip-path-28">
      <path id="Clip_29-2" data-name="Clip 29" d="M0,4.471A4.47,4.47,0,0,0,4.471,8.939h0A4.47,4.47,0,0,0,8.941,4.471h0A4.472,4.472,0,0,0,4.471,0h0A4.472,4.472,0,0,0,0,4.471Z" transform="translate(0.18 0.93)" fill="none"/>
    </clipPath>
    <clipPath id="clip-path-29">
      <path id="Clip_32-2" data-name="Clip 32" d="M0,4.471A4.469,4.469,0,0,0,4.466,8.939h0A4.469,4.469,0,0,0,8.939,4.471h0A4.471,4.471,0,0,0,4.466,0h0A4.471,4.471,0,0,0,0,4.471Z" transform="translate(0.126 0.93)" fill="none"/>
    </clipPath>
    <clipPath id="clip-path-30">
      <path id="Clip_35-2" data-name="Clip 35" d="M0,1.375A1.373,1.373,0,0,0,1.375,2.747h0A1.375,1.375,0,0,0,2.752,1.375h0A1.377,1.377,0,0,0,1.375,0h0A1.375,1.375,0,0,0,0,1.375Z" transform="translate(0.892 0.135)" fill="none"/>
    </clipPath>
    <clipPath id="clip-path-31">
      <path id="Clip_38-2" data-name="Clip 38" d="M0,1.375A1.372,1.372,0,0,0,1.377,2.747h0A1.373,1.373,0,0,0,2.752,1.375h0A1.375,1.375,0,0,0,1.377,0h0A1.374,1.374,0,0,0,0,1.375Z" transform="translate(0.104 0.135)" fill="none"/>
    </clipPath>
    <clipPath id="clip-path-32">
      <path id="Clip_41-2" data-name="Clip 41" d="M0,0A3.25,3.25,0,0,0,3.251,3.253h0A3.25,3.25,0,0,0,6.5,0H0Z" transform="translate(0.249 0.379)" fill="none"/>
    </clipPath>
    <clipPath id="clip-path-33">
      <path id="Clip_44-2" data-name="Clip 44" d="M1.086,17.467H25.073S32.372,0,13.47,0h0C-5.432,0,1.086,17.467,1.086,17.467Z" transform="translate(0.336 0.685)" fill="none"/>
    </clipPath>
    <clipPath id="clip-path-34">
      <path id="Clip_47-2" data-name="Clip 47" d="M11.534,0C1.695,5.5-.134,19.019.007,29.131H44.866C44.832,19.021,42.737,5.5,32.686,0H11.534Z" transform="translate(0.08 0.91)" fill="none"/>
    </clipPath>
    <clipPath id="clip-path-35">
      <path id="Clip_50" data-name="Clip 50" d="M1.418.33A18.982,18.982,0,0,0,0,1.92H31.851A19.946,19.946,0,0,0,30.389.33H1.418Z" transform="translate(0.836 0.012)" fill="none"/>
    </clipPath>
    <clipPath id="clip-path-36">
      <path id="Clip_53" data-name="Clip 53" d="M.835.329C.538.848.261,1.379,0,1.921H37.278Q36.866,1.108,36.4.329H.835Z" transform="translate(0.426 0.059)" fill="none"/>
    </clipPath>
    <clipPath id="clip-path-37">
      <path id="Clip_56" data-name="Clip 56" d="M.526.329Q.243,1.115,0,1.921H40.687q-.263-.807-.562-1.593H.526Z" transform="translate(0.021 0.859)" fill="none"/>
    </clipPath>
    <clipPath id="clip-path-38">
      <path id="Clip_59" data-name="Clip 59" d="M.326.33C.207.858.1,1.387,0,1.92H42.851c-.11-.533-.229-1.062-.36-1.591H.326Z" transform="translate(0.983 0.657)" fill="none"/>
    </clipPath>
    <clipPath id="clip-path-39">
      <path id="Clip_62" data-name="Clip 62" d="M.18.33q-.1.8-.18,1.591H44.14q-.094-.793-.211-1.591H.18Z" transform="translate(0.38 0.457)" fill="none"/>
    </clipPath>
    <clipPath id="clip-path-40">
      <path id="Clip_65" data-name="Clip 65" d="M.063.329C.036.864.014,1.395,0,1.921H44.757q-.037-.79-.095-1.593H.063Z" transform="translate(0.112 0.253)" fill="none"/>
    </clipPath>
    <clipPath id="clip-path-43">
      <path id="Clip_2-3" data-name="Clip 2" d="M0,20.024c0,9.494,6.972,14.359,15.573,14.359h0c8.6,0,15.571-4.865,15.571-14.359h0C31.144,10.532,24.174,0,15.573,0h0C6.972,0,0,10.532,0,20.024Z" transform="translate(0.899 0.642)" fill="none"/>
    </clipPath>
    <clipPath id="clip-path-44">
      <path id="Clip_5-2" data-name="Clip 5" d="M0,4.447A4.452,4.452,0,0,0,4.449,8.9h0A4.453,4.453,0,0,0,8.9,4.447h0A4.45,4.45,0,0,0,4.449,0h0A4.449,4.449,0,0,0,0,4.447Z" transform="translate(0.38 0.473)" fill="none"/>
    </clipPath>
    <clipPath id="clip-path-45">
      <path id="Clip_8-3" data-name="Clip 8" d="M0,4.447A4.454,4.454,0,0,0,4.449,8.9h0A4.454,4.454,0,0,0,8.9,4.447h0A4.451,4.451,0,0,0,4.449,0h0A4.452,4.452,0,0,0,0,4.447Z" transform="translate(0.918 0.473)" fill="none"/>
    </clipPath>
    <clipPath id="clip-path-46">
      <path id="Clip_11-3" data-name="Clip 11" d="M0,1.373A1.371,1.371,0,0,0,1.371,2.737h0A1.368,1.368,0,0,0,2.74,1.373h0A1.369,1.369,0,0,0,1.371,0h0A1.372,1.372,0,0,0,0,1.373Z" transform="translate(0.125 0.924)" fill="none"/>
    </clipPath>
    <clipPath id="clip-path-47">
      <path id="Clip_14-3" data-name="Clip 14" d="M0,1.373A1.369,1.369,0,0,0,1.371,2.737h0A1.368,1.368,0,0,0,2.74,1.373h0A1.369,1.369,0,0,0,1.371,0h0A1.369,1.369,0,0,0,0,1.373Z" transform="translate(0.132 0.924)" fill="none"/>
    </clipPath>
    <clipPath id="clip-path-48">
      <path id="Clip_17-3" data-name="Clip 17" d="M0,0A3.238,3.238,0,0,0,3.236,3.238h0A3.237,3.237,0,0,0,6.469,0H0Z" transform="translate(0.831 0.614)" fill="none"/>
    </clipPath>
    <clipPath id="clip-path-49">
      <path id="Clip_20-3" data-name="Clip 20" d="M8.462,4.784S-3.768,7.452,1.178,21.778h0l.87.722L9.489,9.939a20.037,20.037,0,0,0,8.845,6.887h0l.411-3.953L26.1,17.824l2-3.033,4.828,7.72.825-.616s5.115-13.83-8.595-20h0A19,19,0,0,0,17.392,0h0a9.983,9.983,0,0,0-8.93,4.784Z" transform="translate(0.136 0.834)" fill="none"/>
    </clipPath>
    <clipPath id="clip-path-50">
      <path id="Clip_23-3" data-name="Clip 23" d="M.055,7.456,4.293,4.743C3.446,3.9,2.77,0,2.77,0h0C-.621,2.372.055,7.456.055,7.456Z" transform="translate(0.72 0.269)" fill="none"/>
    </clipPath>
    <clipPath id="clip-path-51">
      <path id="Clip_26-3" data-name="Clip 26" d="M0,.577,2.715,3.629l3.556-.676L5.425.066A13.61,13.61,0,0,0,4,0H4A13,13,0,0,0,0,.577Z" transform="translate(0.693 0.461)" fill="none"/>
    </clipPath>
    <clipPath id="clip-path-52">
      <path id="Clip_29-3" data-name="Clip 29" d="M21.714,0C3.451.13.033,17.43,0,30.222H0v.372c0,.3,0,.589.006.881H44.668C44.622,18.594,41.221.143,22.14,0h-.426Z" transform="translate(0.337 0.096)" fill="none"/>
    </clipPath>
    <clipPath id="clip-path-53">
      <path id="Clip_32-3" data-name="Clip 32" d="M9.695,0A21.514,21.514,0,0,0,0,2.07H0L6.395,9.676l3.72-4.433,3.227,4.433L19.52,2.068A22.071,22.071,0,0,0,9.906,0H9.695Z" transform="translate(0.132 0.03)" fill="none"/>
    </clipPath>
    <clipPath id="clip-path-54">
      <path id="Clip_35-3" data-name="Clip 35" d="M1.884,0A2.215,2.215,0,0,0,0,2.436H0l.01.959A2.188,2.188,0,0,0,1.944,5.769h0A2.214,2.214,0,0,0,3.823,3.333h0l-.008-.961A2.191,2.191,0,0,0,1.911,0H1.884Z" transform="translate(0.968 0.578)" fill="none"/>
    </clipPath>
    <clipPath id="clip-path-55">
      <path id="Clip_38-3" data-name="Clip 38" d="M0,19.28H5.512C5.512,8.63,4.28,0,2.758,0h0C1.234,0,0,8.63,0,19.28Z" transform="translate(0.123 0.862)" fill="none"/>
    </clipPath>
  </defs>
  <g id="Figure_01-2" data-name="Figure/01">
    <g id="Group_135" data-name="Group 135">
      <path id="Fill_1" data-name="Fill 1" d="M179.751,66.684c-.065,0-.128,0-.192,0A35.039,35.039,0,0,0,131.576,34.97,56.862,56.862,0,0,0,23.473,68.65,35.048,35.048,0,0,0,34.78,136.779v.007H179.751a35.051,35.051,0,1,0,0-70.1" transform="translate(378.522 185.635)" fill="#fff"/>
      <path id="Fill_3" data-name="Fill 3" d="M183.24,143.764H38.27c-.092,0-.176,0-.258-.009a38.076,38.076,0,0,1-14.791-3.186,38.891,38.891,0,0,1-20.232-20.5A38.433,38.433,0,0,1,6.3,84.123,38.46,38.46,0,0,1,23.01,69.95,60.339,60.339,0,0,1,136.935,34.113,38.7,38.7,0,0,1,186.315,66.8a38.541,38.541,0,0,1-3.075,76.96ZM82.582,6.978a53.376,53.376,0,0,0-52.2,64.44,3.5,3.5,0,0,1-2.262,4.014A31.559,31.559,0,0,0,38.3,136.779c.05,0,.1,0,.15.005l.044,0H183.24a31.562,31.562,0,0,0,.03-63.124l-.134,0a3.6,3.6,0,0,1-3.577-3.4A31.552,31.552,0,0,0,136.353,41.7a3.5,3.5,0,0,1-4.512-1.9A53.241,53.241,0,0,0,82.582,6.978Z" transform="translate(375.033 182.147)" fill="#b5b5b5"/>
      <path id="Fill_5" data-name="Fill 5" d="M32.73,0A32.731,32.731,0,0,0,0,32.731H20.228a12.5,12.5,0,1,1,12.5,12.5V65.463A32.731,32.731,0,1,0,32.73,0" transform="translate(453.193 221.045)" fill="#37ab8d"/>
      <path id="Fill_7" data-name="Fill 7" d="M0,0H0V32.731H32.73A32.732,32.732,0,0,1,0,0" transform="translate(453.193 253.776)" fill="#d8cd2b"/>
      <path id="Fill_9" data-name="Fill 9" d="M20.228,0H0A32.731,32.731,0,0,0,32.73,32.731V12.5A12.5,12.5,0,0,1,20.228,0" transform="translate(453.193 253.776)" fill="#1c4c95"/>
      <path id="Clip_12-2" data-name="Clip 12" d="M0,506.911H952.941V0H0Z" transform="translate(0 0)" fill="none"/>
      <g id="Group_135-2" data-name="Group 135" clip-path="url(#clip-path)">
        <path id="Fill_11" data-name="Fill 11" d="M59.324,17a6.137,6.137,0,1,1,6.138-6.138A6.144,6.144,0,0,1,59.324,17Zm0-9.439a3.3,3.3,0,1,0,3.3,3.3A3.3,3.3,0,0,0,59.324,7.557ZM43.367,17h0A6.381,6.381,0,0,1,41.031,11.8V7.977H38.919V5.143h2.112V1.667h2.833V5.143H46.1V7.977H43.864V11.8a4.438,4.438,0,0,0,1.887,3.776L43.367,17Zm-12.843-.422H27.69v-6.51A4.444,4.444,0,0,0,25.8,6.286l2.385-1.416.1.1a8.19,8.19,0,0,1,1.341,1.589l0,0A6.285,6.285,0,0,1,33.405,4.72a3.668,3.668,0,0,1,3.826,3.553v8.3H34.4V9.616c0-1.7-.744-1.914-1.392-1.914-1.506,0-2.483,2.115-2.484,2.137v6.735Zm20.74,0H48.381V5.145h2.883V16.573Zm-27.747,0H20.634V5.145h2.883V16.573Zm-7.952,0H12.733v-6.51a4.443,4.443,0,0,0-1.888-3.777l2.387-1.416.1.1a8.267,8.267,0,0,1,1.341,1.589l.005-.006c.206-.182,2.057-1.783,3.447-1.783h.126L18.8,7.728h-.124c-1.426.025-3.09,2.09-3.107,2.111v6.734Zm-12.633,0H0V1.658H3.827A6.436,6.436,0,0,1,7.932,3.133,4.9,4.9,0,0,1,9.744,6.9a4.9,4.9,0,0,1-1.812,3.77,6.435,6.435,0,0,1-4.106,1.476H2.932v4.425Zm0-11.983V9.214h.895c1.442,0,2.934-.865,2.934-2.313,0-1.136-1.1-2.311-2.934-2.311Zm46.89-1.161A1.759,1.759,0,0,1,48.11,1.713a1.715,1.715,0,0,1,3.429,0A1.761,1.761,0,0,1,49.822,3.429Zm-27.747,0a1.759,1.759,0,0,1-1.713-1.716,1.714,1.714,0,0,1,3.427,0A1.76,1.76,0,0,1,22.075,3.429Z" transform="translate(453.194 292.833)" fill="#221714"/>
        <path id="Fill_13" data-name="Fill 13" d="M68.62,31.339a2.276,2.276,0,0,0-.2-.738c-.018-.044-.015-.092-.036-.135l-7.849-15.7a2.326,2.326,0,1,0-4.16,2.082l5.337,10.675L8.389,9.745,19.068,4.406A2.326,2.326,0,1,0,16.986.245L1.284,8.093A2.33,2.33,0,0,0,.244,11.215l7.848,15.7a2.327,2.327,0,0,0,4.162-2.082L6.918,14.158,60.24,31.937,49.563,37.274a2.326,2.326,0,1,0,2.082,4.161l15.7-7.848c.044-.021.067-.061.109-.085a2.241,2.241,0,0,0,.483-.376c.056-.057.12-.1.17-.165a2.306,2.306,0,0,0,.516-1.622" transform="translate(643.422 288.875)" fill="#231815"/>
        <path id="Fill_14" data-name="Fill 14" d="M50.013,30.135a2.326,2.326,0,0,0-2.326,2.326V44.4L7.939,4.653H19.878a2.326,2.326,0,0,0,0-4.653H2.326A2.326,2.326,0,0,0,0,2.326V19.878a2.326,2.326,0,1,0,4.653,0V7.944L44.4,47.688H32.461a2.326,2.326,0,1,0,0,4.652H50.013a2.332,2.332,0,0,0,2.326-2.326V32.461a2.325,2.325,0,0,0-2.326-2.326" transform="translate(651.567 394.917)" fill="#231815"/>
        <path id="Fill_15" data-name="Fill 15" d="M1.284,33.589l15.7,7.848a2.326,2.326,0,1,0,2.08-4.161L8.388,31.938,61.71,14.158,56.374,24.835a2.325,2.325,0,1,0,4.16,2.08l7.848-15.7c.023-.042.018-.09.038-.132a2.222,2.222,0,0,0-.36-2.43,2.3,2.3,0,0,0-.719-.56L51.643.246a2.327,2.327,0,1,0-2.081,4.162L60.24,9.745,6.918,27.525l5.335-10.677a2.326,2.326,0,0,0-4.161-2.08L.244,30.468a2.332,2.332,0,0,0,1.039,3.122" transform="translate(643.423 177.502)" fill="#231815"/>
        <path id="Fill_16" data-name="Fill 16" d="M2.326,52.34H19.878a2.326,2.326,0,1,0,0-4.652H7.939L47.687,7.941V19.878a2.326,2.326,0,0,0,4.653,0V2.326A2.329,2.329,0,0,0,50.9.18,2.316,2.316,0,0,0,50.013,0H32.461a2.326,2.326,0,1,0,0,4.652H44.4L4.653,44.4V32.461a2.326,2.326,0,0,0-4.653,0V50.013A2.326,2.326,0,0,0,2.326,52.34" transform="translate(651.567 60.801)" fill="#231815"/>
        <path id="Fill_17" data-name="Fill 17" d="M60.534,14.767a2.326,2.326,0,0,0-4.161,2.08l5.335,10.677L8.388,9.745,19.065,4.408A2.327,2.327,0,0,0,16.983.246L1.294,8.089a2.32,2.32,0,0,0-.729.566A2.353,2.353,0,0,0,.139,9.4c-.006.015-.018.024-.022.039s0,.016,0,.025a2.324,2.324,0,0,0-.108.875,2.349,2.349,0,0,0,.237.876h0l7.85,15.7a2.325,2.325,0,0,0,4.16-2.08L6.916,14.158l53.32,17.779L49.561,37.275a2.327,2.327,0,0,0,2.081,4.162l15.7-7.848a2.328,2.328,0,0,0,1.039-3.122Z" transform="translate(259.799 177.502)" fill="#231815"/>
        <path id="Fill_18" data-name="Fill 18" d="M2.326,22.2a2.327,2.327,0,0,0,2.326-2.326V7.941L44.4,47.688H32.461a2.326,2.326,0,0,0,0,4.652H50.014a2.327,2.327,0,0,0,2.326-2.326V32.46a2.327,2.327,0,0,0-4.653,0V44.4L7.943,4.652H19.879a2.326,2.326,0,0,0,0-4.652H2.326A2.336,2.336,0,0,0,0,2.326V19.878A2.327,2.327,0,0,0,2.326,22.2" transform="translate(267.94 60.802)" fill="#231815"/>
        <path id="Fill_19" data-name="Fill 19" d="M67.342,8.095,51.642.247a2.326,2.326,0,1,0-2.081,4.161L60.238,9.746,6.916,27.524l5.337-10.675a2.326,2.326,0,1,0-4.161-2.082L.244,30.467h0a2.316,2.316,0,0,0-.13,1.75c0,.009,0,.017,0,.026a2.28,2.28,0,0,0,.406.72c.048.059.108.1.162.159a2.345,2.345,0,0,0,.489.381c.041.024.066.063.108.084l15.7,7.85a2.327,2.327,0,0,0,2.08-4.163L8.388,31.939,61.71,14.159,56.373,24.835a2.326,2.326,0,1,0,4.161,2.082l7.848-15.7a2.327,2.327,0,0,0-1.039-3.122" transform="translate(259.798 288.873)" fill="#231815"/>
        <path id="Fill_20" data-name="Fill 20" d="M50.014,0H32.461a2.327,2.327,0,0,0,0,4.653H44.4L4.653,44.4V32.461a2.326,2.326,0,0,0-4.653,0V50.013A2.335,2.335,0,0,0,1.439,52.16a2.3,2.3,0,0,0,.888.18H19.879a2.326,2.326,0,0,0,0-4.652H7.943L47.688,7.943V19.878a2.326,2.326,0,0,0,4.653,0V2.326A2.326,2.326,0,0,0,50.014,0" transform="translate(267.94 394.917)" fill="#231815"/>
        <path id="Fill_21" data-name="Fill 21" d="M111.252,89.754H2.777A2.78,2.78,0,0,1,0,86.978V25.424a2.775,2.775,0,0,1,1.227-2.306L34.443.789A2.755,2.755,0,0,1,35.984.312a2.834,2.834,0,0,1,1.934.778,2.737,2.737,0,0,1,.851,2V17.414a2.738,2.738,0,0,0,.852,2,2.834,2.834,0,0,0,1.934.778,2.753,2.753,0,0,0,1.546-.481L71.579.481A2.756,2.756,0,0,1,73.125,0a2.834,2.834,0,0,1,1.934.778,2.738,2.738,0,0,1,.851,2V18.719a2.737,2.737,0,0,0,.851,2A2.834,2.834,0,0,0,78.7,21.5a2.758,2.758,0,0,0,1.546-.48L109.7,1.13a2.753,2.753,0,0,1,1.545-.48,2.833,2.833,0,0,1,1.934.778,2.739,2.739,0,0,1,.851,2V86.978A2.78,2.78,0,0,1,111.252,89.754ZM80.967,44.578a2.78,2.78,0,0,0-2.777,2.777V59.72A2.78,2.78,0,0,0,80.967,62.5H93.332a2.78,2.78,0,0,0,2.777-2.777V47.355a2.781,2.781,0,0,0-2.777-2.777Zm-30.137,0a2.78,2.78,0,0,0-2.777,2.777V59.72A2.78,2.78,0,0,0,50.83,62.5H63.2a2.78,2.78,0,0,0,2.777-2.777V47.355A2.78,2.78,0,0,0,63.2,44.578Zm-30.135,0a2.781,2.781,0,0,0-2.778,2.777V59.72A2.781,2.781,0,0,0,20.7,62.5H33.06a2.78,2.78,0,0,0,2.777-2.777V47.355a2.78,2.78,0,0,0-2.777-2.777Z" transform="translate(741.363 5.424)" fill="#b5b5b5"/>
        <path id="Fill_22" data-name="Fill 22" d="M58.21,93.66A46.83,46.83,0,1,0,12.027,39.381L0,46.83l12.027,7.447A46.8,46.8,0,0,0,58.21,93.66" transform="translate(845.574 3.472)" fill="#fff"/>
        <path id="Fill_23" data-name="Fill 23" d="M60.532,98.313a49.326,49.326,0,0,1-17.027-3A48.786,48.786,0,0,1,18.219,74.2a49.255,49.255,0,0,1-5.983-16.17L1.1,51.134a2.326,2.326,0,0,1,0-3.954l11.135-6.9a49.254,49.254,0,0,1,5.983-16.169A48.786,48.786,0,0,1,43.5,3,49.174,49.174,0,1,1,60.532,98.313Zm0-93.66A44.261,44.261,0,0,0,16.648,42.077a2.328,2.328,0,0,1-1.072,1.609l-8.833,5.47,8.833,5.471a2.329,2.329,0,0,1,1.072,1.609A44.48,44.48,0,1,0,60.532,4.653Z" transform="translate(843.25 1.146)" fill="#b5b5b5"/>
        <path id="Fill_24" data-name="Fill 24" d="M31.4,46.523H10.469A10.48,10.48,0,0,1,0,36.056V1.164A1.165,1.165,0,0,1,1.164,0H40.707a1.165,1.165,0,0,1,1.164,1.164V5.874a15.105,15.105,0,0,1,0,30.121v.06A10.479,10.479,0,0,1,31.4,46.523ZM2.326,2.327V36.056a8.151,8.151,0,0,0,8.142,8.14H31.4a8.15,8.15,0,0,0,8.141-8.14V2.327ZM41.871,14.074V27.8a7.014,7.014,0,0,0,4.142-2.347,6.932,6.932,0,0,0,0-9.03A7.013,7.013,0,0,0,41.871,14.074Z" transform="translate(878.729 27.041)" fill="#040000"/>
        <path id="Fill_25" data-name="Fill 25" d="M0,25.469V21.921a9.286,9.286,0,0,0,8.142-9.187A9.285,9.285,0,0,0,0,3.547V0A12.805,12.805,0,0,1,11.631,12.733,12.806,12.806,0,0,1,0,25.469" transform="translate(920.599 35.242)" fill="#37ab8d"/>
        <path id="Fill_26" data-name="Fill 26" d="M1.163,0A1.162,1.162,0,0,0,0,1.163V26.75a1.163,1.163,0,1,0,2.325,0V1.163A1.162,1.162,0,0,0,1.163,0" transform="translate(885.709 35.183)" fill="#040000"/>
        <path id="Fill_27" data-name="Fill 27" d="M111.252,89.755H2.777A2.78,2.78,0,0,1,0,86.979V25.424a2.772,2.772,0,0,1,1.227-2.3L34.443.788a2.754,2.754,0,0,1,1.54-.477,2.835,2.835,0,0,1,1.935.778,2.738,2.738,0,0,1,.852,2v14.32a2.737,2.737,0,0,0,.852,2,2.836,2.836,0,0,0,1.935.778,2.755,2.755,0,0,0,1.545-.48L71.579.481A2.757,2.757,0,0,1,73.125,0a2.833,2.833,0,0,1,1.934.778,2.739,2.739,0,0,1,.851,2V18.718a2.738,2.738,0,0,0,.851,2A2.833,2.833,0,0,0,78.7,21.5a2.756,2.756,0,0,0,1.546-.481L109.7,1.13a2.754,2.754,0,0,1,1.545-.48,2.833,2.833,0,0,1,1.934.778,2.739,2.739,0,0,1,.851,2V86.979A2.78,2.78,0,0,1,111.252,89.755ZM80.967,44.578a2.781,2.781,0,0,0-2.777,2.778V59.72A2.78,2.78,0,0,0,80.967,62.5H93.332a2.78,2.78,0,0,0,2.777-2.777V47.356a2.781,2.781,0,0,0-2.777-2.778Zm-30.137,0a2.781,2.781,0,0,0-2.777,2.778V59.72A2.78,2.78,0,0,0,50.83,62.5H63.2a2.78,2.78,0,0,0,2.777-2.777V47.356A2.781,2.781,0,0,0,63.2,44.578Zm-30.135,0a2.781,2.781,0,0,0-2.778,2.778V59.72A2.781,2.781,0,0,0,20.7,62.5H33.06a2.78,2.78,0,0,0,2.777-2.777V47.356a2.781,2.781,0,0,0-2.777-2.778Z" transform="translate(741.363 277.06)" fill="#b5b5b5"/>
        <path id="Fill_28" data-name="Fill 28" d="M58.21,93.66A46.83,46.83,0,1,0,12.027,39.381L0,46.828l12.027,7.449A46.8,46.8,0,0,0,58.21,93.66" transform="translate(845.574 275.109)" fill="#fff"/>
        <path id="Fill_29" data-name="Fill 29" d="M60.532,98.312a49.326,49.326,0,0,1-17.027-3A48.786,48.786,0,0,1,18.219,74.2a49.253,49.253,0,0,1-5.983-16.169L1.1,51.132a2.326,2.326,0,0,1,0-3.954l11.135-6.9a49.254,49.254,0,0,1,5.983-16.169A48.786,48.786,0,0,1,43.5,3,49.173,49.173,0,1,1,60.532,98.312Zm0-93.658A44.261,44.261,0,0,0,16.648,42.075a2.336,2.336,0,0,1-1.072,1.611L6.744,49.155l8.833,5.47a2.335,2.335,0,0,1,1.072,1.611A44.48,44.48,0,1,0,60.532,4.653Z" transform="translate(843.25 272.783)" fill="#b5b5b5"/>
        <path id="Fill_30" data-name="Fill 30" d="M9.5,51.25A9.441,9.441,0,0,1,.6,45.11,9.124,9.124,0,0,1,5.9,33.2l8.546-3.288V16.166a5.835,5.835,0,0,1-4.653-5.7V5.816A5.822,5.822,0,0,1,15.605,0H31.888A5.822,5.822,0,0,1,37.7,5.816v4.651a5.834,5.834,0,0,1-4.651,5.7V36.418c0,4.211-2.092,7.482-5.6,8.75l-14.7,5.518A9.758,9.758,0,0,1,9.5,51.25ZM6.058,35.689h0a6.59,6.59,0,0,0-3.267,3.574A7.133,7.133,0,0,0,9.5,48.924a7.4,7.4,0,0,0,1.038-.09,12.692,12.692,0,0,0,.414-3.111,12.768,12.768,0,0,0-1.3-5.585,12.946,12.946,0,0,0-3.6-4.448Zm10.71-19.407V30.706a1.157,1.157,0,0,1-.746,1.088l-7.546,2.9a15.171,15.171,0,0,1,4.8,11.028,15.291,15.291,0,0,1-.189,2.354l7.968-2.991A10.467,10.467,0,0,1,30.725,30.6V16.283ZM30.725,32.929a8.13,8.13,0,0,0-7.483,11.335l3.411-1.279c2.55-.923,4.073-3.378,4.073-6.567Z" transform="translate(886.59 296.355)" fill="#040000"/>
        <path id="Fill_31" data-name="Fill 31" d="M23.262,8.142a3.493,3.493,0,0,1-3.489,3.489H3.489A3.493,3.493,0,0,1,0,8.142V3.489A3.494,3.494,0,0,1,3.489,0H19.773a3.494,3.494,0,0,1,3.489,3.489Z" transform="translate(898.706 298.68)" fill="#37ab8d"/>
        <path id="Fill_32" data-name="Fill 32" d="M111.252,89.755H2.777A2.78,2.78,0,0,1,0,86.978V25.423a2.768,2.768,0,0,1,1.227-2.3L34.443.789A2.753,2.753,0,0,1,35.984.312a2.834,2.834,0,0,1,1.934.778,2.739,2.739,0,0,1,.852,2V17.413a2.739,2.739,0,0,0,.852,2,2.835,2.835,0,0,0,1.935.778,2.755,2.755,0,0,0,1.545-.48L71.579.48A2.758,2.758,0,0,1,73.124,0a2.834,2.834,0,0,1,1.934.778,2.74,2.74,0,0,1,.852,2V18.718a2.737,2.737,0,0,0,.851,2A2.834,2.834,0,0,0,78.7,21.5a2.758,2.758,0,0,0,1.546-.48L109.7,1.131a2.753,2.753,0,0,1,1.545-.48,2.833,2.833,0,0,1,1.934.778,2.737,2.737,0,0,1,.851,2V86.978A2.78,2.78,0,0,1,111.252,89.755ZM80.967,44.579a2.78,2.78,0,0,0-2.777,2.777V59.72A2.781,2.781,0,0,0,80.967,62.5H93.332a2.781,2.781,0,0,0,2.777-2.778V47.355a2.78,2.78,0,0,0-2.777-2.777Zm-30.137,0a2.78,2.78,0,0,0-2.777,2.777V59.72A2.781,2.781,0,0,0,50.83,62.5H63.2a2.781,2.781,0,0,0,2.777-2.778V47.355A2.78,2.78,0,0,0,63.2,44.579Zm-30.135,0a2.781,2.781,0,0,0-2.778,2.777V59.72A2.781,2.781,0,0,0,20.7,62.5H33.06a2.781,2.781,0,0,0,2.777-2.778V47.355a2.78,2.78,0,0,0-2.777-2.777Z" transform="translate(741.363 141.242)" fill="#b5b5b5"/>
        <path id="Fill_33" data-name="Fill 33" d="M58.21,93.66A46.83,46.83,0,1,0,12.027,39.382L0,46.83l12.027,7.449A46.8,46.8,0,0,0,58.21,93.66" transform="translate(845.574 139.29)" fill="#fff"/>
        <path id="Fill_34" data-name="Fill 34" d="M60.532,98.313a49.326,49.326,0,0,1-17.027-3A48.786,48.786,0,0,1,18.219,74.2a49.255,49.255,0,0,1-5.983-16.17L1.1,51.134a2.326,2.326,0,0,1,0-3.954l11.135-6.9a49.257,49.257,0,0,1,5.983-16.169A48.788,48.788,0,0,1,43.5,3,49.173,49.173,0,1,1,60.532,98.313Zm0-93.66A44.262,44.262,0,0,0,16.648,42.078a2.33,2.33,0,0,1-1.072,1.61L6.744,49.156l8.833,5.471a2.333,2.333,0,0,1,1.072,1.611A44.48,44.48,0,1,0,60.532,4.653Z" transform="translate(843.25 136.963)" fill="#b5b5b5"/>
        <path id="Fill_35" data-name="Fill 35" d="M39.544,55.827H4.653a1.162,1.162,0,1,1,0-2.325H20.937V46.523H9.682A3.49,3.49,0,0,1,6.6,41.4l7.259-15.948-1.712-4.2L3.9,24.351a1.2,1.2,0,0,1-.409.072,1.164,1.164,0,0,1-1.126-.869L.037,14.639a1.164,1.164,0,0,1,.695-1.373l13.253-5.29c0-.022.006-.044.008-.066a.66.66,0,0,1,.025-.136L16.344.795A1.16,1.16,0,0,1,17.446,0h9.3a1.16,1.16,0,0,1,1.1.795l2.326,6.98a.742.742,0,0,1,.025.139c0,.022.005.044.008.066l13.251,5.287a1.162,1.162,0,0,1,.7,1.373l-2.326,8.916a1.157,1.157,0,0,1-.59.739,1.17,1.17,0,0,1-.535.13,1.2,1.2,0,0,1-.409-.072l-8.244-3.093-1.711,4.2L37.63,41.465a3.488,3.488,0,0,1-3.115,5.058H23.26V53.5H39.544a1.162,1.162,0,1,1,0,2.325Zm-21.26-53.5-2,6A5.546,5.546,0,0,0,22.1,13.884a5.547,5.547,0,0,0,5.814-5.561l-2-6Z" transform="translate(880.566 160.171)" fill="#040000"/>
        <path id="Fill_36" data-name="Fill 36" d="M37.359,11.347l-8.1-3.036a1.169,1.169,0,0,0-1.486.651L25.452,14.67a1.151,1.151,0,0,0,.018.921L33,32.117a1.166,1.166,0,0,1-1.031,1.708H7.134a1.155,1.155,0,0,1-1-.564,1.208,1.208,0,0,1,0-1.206L13.63,15.591a1.157,1.157,0,0,0,.018-.921L11.323,8.962a1.166,1.166,0,0,0-1.488-.651L1.742,11.347,0,4.674,11.709,0a7.4,7.4,0,0,0,2.276,3.822,8.386,8.386,0,0,0,5.565,2.016A7.876,7.876,0,0,0,27.392,0L39.1,4.674Z" transform="translate(883.115 170.543)" fill="#37ab8d"/>
        <path id="Fill_37" data-name="Fill 37" d="M111.252,89.754H2.777A2.78,2.78,0,0,1,0,86.978V25.423a2.768,2.768,0,0,1,1.227-2.3L34.443.789A2.753,2.753,0,0,1,35.984.312a2.834,2.834,0,0,1,1.934.778,2.737,2.737,0,0,1,.852,2v14.32a2.739,2.739,0,0,0,.852,2,2.834,2.834,0,0,0,1.934.778,2.754,2.754,0,0,0,1.546-.481L71.579.48A2.758,2.758,0,0,1,73.125,0a2.835,2.835,0,0,1,1.934.778,2.737,2.737,0,0,1,.851,2V18.717a2.739,2.739,0,0,0,.851,2A2.833,2.833,0,0,0,78.7,21.5a2.758,2.758,0,0,0,1.546-.48L109.7,1.13a2.754,2.754,0,0,1,1.545-.48,2.833,2.833,0,0,1,1.934.778,2.739,2.739,0,0,1,.851,2V86.978A2.78,2.78,0,0,1,111.252,89.754ZM80.967,44.577a2.781,2.781,0,0,0-2.777,2.778V59.72A2.781,2.781,0,0,0,80.967,62.5H93.332a2.781,2.781,0,0,0,2.777-2.778V47.355a2.781,2.781,0,0,0-2.777-2.778Zm-30.137,0a2.781,2.781,0,0,0-2.777,2.778V59.72A2.781,2.781,0,0,0,50.83,62.5H63.2a2.781,2.781,0,0,0,2.777-2.778V47.355A2.781,2.781,0,0,0,63.2,44.577Zm-30.135,0a2.781,2.781,0,0,0-2.778,2.778V59.72A2.781,2.781,0,0,0,20.7,62.5H33.06a2.781,2.781,0,0,0,2.777-2.778V47.355a2.781,2.781,0,0,0-2.777-2.778Z" transform="translate(741.363 412.879)" fill="#b5b5b5"/>
        <path id="Fill_38" data-name="Fill 38" d="M58.21,93.66A46.83,46.83,0,1,0,12.027,39.381L0,46.83l12.027,7.447A46.8,46.8,0,0,0,58.21,93.66" transform="translate(845.574 410.926)" fill="#fff"/>
        <path id="Fill_39" data-name="Fill 39" d="M60.532,98.313a49.322,49.322,0,0,1-17.027-3A48.788,48.788,0,0,1,18.219,74.2a49.255,49.255,0,0,1-5.983-16.169L1.1,51.135a2.329,2.329,0,0,1,0-3.957l11.135-6.9a49.249,49.249,0,0,1,5.984-16.168A48.79,48.79,0,0,1,43.506,3,49.173,49.173,0,1,1,60.532,98.313Zm0-93.662A44.262,44.262,0,0,0,16.648,42.075a2.344,2.344,0,0,1-1.072,1.613L6.744,49.156l8.833,5.469a2.327,2.327,0,0,1,1.072,1.609A44.48,44.48,0,1,0,60.532,4.651Z" transform="translate(843.25 408.6)" fill="#b5b5b5"/>
        <path id="Fill_40" data-name="Fill 40" d="M45.36,34.891H1.164A1.165,1.165,0,0,1,0,33.728V1.163A1.165,1.165,0,0,1,1.164,0h44.2a1.164,1.164,0,0,1,1.163,1.163V33.728A1.165,1.165,0,0,1,45.36,34.891ZM2.327,2.325v30.24H44.2V2.325Z" transform="translate(886.018 446.746)"/>
        <path id="Fill_41" data-name="Fill 41" d="M6.978,34.891H1.163A1.162,1.162,0,0,1,0,33.729V1.164A1.162,1.162,0,0,1,1.163,0h44.2a1.162,1.162,0,0,1,1.162,1.164V5.815a1.163,1.163,0,1,1-2.325,0V2.326H2.325V32.565H6.978a1.163,1.163,0,0,1,0,2.326" transform="translate(876.715 438.832)"/>
        <path id="Fill_42" data-name="Fill 42" d="M6.978,3.489A3.489,3.489,0,1,1,3.489,0,3.49,3.49,0,0,1,6.978,3.489" transform="translate(897.65 457.106)" fill="#37ab8d"/>
        <path id="Fill_43" data-name="Fill 43" d="M4.653,9.3A4.652,4.652,0,1,1,9.306,4.653,4.657,4.657,0,0,1,4.653,9.3Zm0-6.978A2.327,2.327,0,1,0,6.979,4.653,2.329,2.329,0,0,0,4.653,2.327Z" transform="translate(896.486 455.943)" fill="#231815"/>
        <path id="Fill_44" data-name="Fill 44" d="M6.978,0C1.992,0,0,4.22,0,7.207H13.956C13.956,4.22,11.961,0,6.978,0" transform="translate(894.161 464.068)" fill="#37ab8d"/>
        <path id="Fill_45" data-name="Fill 45" d="M15.12,9.534H1.163A1.165,1.165,0,0,1,0,8.37C0,4.312,2.854,0,8.142,0s8.141,4.312,8.141,8.37A1.165,1.165,0,0,1,15.12,9.534ZM8.142,2.325A5.622,5.622,0,0,0,2.435,7.207H13.847A5.62,5.62,0,0,0,8.142,2.325Z" transform="translate(892.998 462.906)" fill="#231815"/>
        <path id="Fill_46" data-name="Fill 46" d="M12.792,2.325H1.163A1.163,1.163,0,0,1,1.163,0H12.792a1.163,1.163,0,1,1,0,2.325" transform="translate(912.77 467.741)"/>
        <path id="Fill_47" data-name="Fill 47" d="M12.792,2.326H1.163A1.163,1.163,0,0,1,1.163,0H12.792a1.163,1.163,0,0,1,0,2.326" transform="translate(912.77 463.088)"/>
        <path id="Fill_48" data-name="Fill 48" d="M6.978,2.326H1.163A1.163,1.163,0,0,1,1.163,0H6.978a1.163,1.163,0,0,1,0,2.326" transform="translate(912.77 458.436)"/>
        <path id="Fill_49" data-name="Fill 49" d="M26.552,59.5H4.622A4.621,4.621,0,0,1,0,54.879V4.622A4.621,4.621,0,0,1,4.622,0h21.93a4.621,4.621,0,0,1,4.622,4.622V54.879A4.621,4.621,0,0,1,26.552,59.5" transform="translate(154.152 163.262)" fill="#0e2c43"/>
        <path id="Fill_50" data-name="Fill 50" d="M25.681,53.266H1.155A1.155,1.155,0,0,1,0,52.111V1.156A1.156,1.156,0,0,1,1.155,0H25.681a1.156,1.156,0,0,1,1.155,1.156V52.111a1.155,1.155,0,0,1-1.155,1.155" transform="translate(156.32 166.379)" fill="#fff"/>
        <path id="Fill_51" data-name="Fill 51" d="M15.58,4.249H2.31A2.31,2.31,0,0,1,0,1.938V0H17.89V1.938a2.309,2.309,0,0,1-2.31,2.311" transform="translate(160.793 163.936)" fill="#0d2b42"/>
        <path id="Fill_52" data-name="Fill 52" d="M0,7.59H22.351V0H0Z" transform="translate(158.562 172.156)" fill="#1c4c95"/>
        <path id="Fill_53" data-name="Fill 53" d="M0,13.622H22.351V0H0Z" transform="translate(158.562 183.947)" fill="#e3e3e3"/>
        <path id="Fill_54" data-name="Fill 54" d="M0,5.59H22.351V0H0Z" transform="translate(158.562 198.958)" fill="#37ab8d"/>
        <path id="Fill_55" data-name="Fill 55" d="M0,2.8H22.351V0H0Z" transform="translate(158.562 208.572)" fill="#e3e3e3"/>
        <path id="Fill_56" data-name="Fill 56" d="M0,2.795H22.351V0H0Z" transform="translate(158.562 213.537)" fill="#e3e3e3"/>
        <path id="Fill_57" data-name="Fill 57" d="M46.83,0A46.83,46.83,0,1,0,93.012,54.278l12.027-7.447L93.012,39.381A46.8,46.8,0,0,0,46.83,0" transform="translate(54.849 146.183)" fill="#fff"/>
        <path id="Fill_58" data-name="Fill 58" d="M49.156,98.312A49.156,49.156,0,1,1,66.185,3,48.789,48.789,0,0,1,91.471,24.114a49.251,49.251,0,0,1,5.983,16.168l11.137,6.9a2.327,2.327,0,0,1,0,3.955L97.455,58.029A49.253,49.253,0,0,1,91.471,74.2,48.786,48.786,0,0,1,66.185,95.309,49.331,49.331,0,0,1,49.156,98.312Zm0-93.658A44.5,44.5,0,1,0,93.042,56.236a2.327,2.327,0,0,1,1.073-1.609l8.834-5.471-8.834-5.47a2.327,2.327,0,0,1-1.073-1.609A44.26,44.26,0,0,0,49.156,4.653Z" transform="translate(52.523 143.856)" fill="#b5b5b5"/>
        <path id="Fill_59" data-name="Fill 59" d="M48.1,80.435H6.933A6.932,6.932,0,0,1,0,73.5V6.933A6.932,6.932,0,0,1,6.933,0H48.1a6.933,6.933,0,0,1,6.933,6.933V73.5A6.933,6.933,0,0,1,48.1,80.435" transform="translate(142.328 283.894)" fill="#0e2c43"/>
        <path id="Fill_60" data-name="Fill 60" d="M8.4,1.9H.948a.949.949,0,0,1,0-1.9H8.4a.949.949,0,0,1,0,1.9" transform="translate(165.167 286.741)" fill="#23445e"/>
        <path id="Fill_61" data-name="Fill 61" d="M5.964,2.982A2.982,2.982,0,1,1,2.982,0,2.981,2.981,0,0,1,5.964,2.982" transform="translate(166.86 355.187)" fill="#23445e"/>
        <path id="Fill_62" data-name="Fill 62" d="M0,60.856H45V0H0Z" transform="translate(147.344 291.54)" fill="#fff"/>
        <path id="Fill_63" data-name="Fill 63" d="M0,7.591H8.538V0H0Z" transform="translate(150.745 297.396)" fill="#54bdd5"/>
        <path id="Fill_64" data-name="Fill 64" d="M0,7.591H26.594V0H0Z" transform="translate(162.346 297.396)" fill="#37ab8d"/>
        <path id="Fill_65" data-name="Fill 65" d="M0,13.622H16.535V0H0Z" transform="translate(150.745 309.189)" fill="#e3e3e3"/>
        <path id="Fill_66" data-name="Fill 66" d="M0,5.592H16.535V0H0Z" transform="translate(150.745 324.198)" fill="#d8cd2b"/>
        <path id="Fill_67" data-name="Fill 67" d="M0,2.795H16.535V0H0Z" transform="translate(150.745 333.815)" fill="#e3e3e3"/>
        <path id="Fill_68" data-name="Fill 68" d="M0,2.795H16.535V0H0Z" transform="translate(150.745 338.78)" fill="#e3e3e3"/>
        <path id="Fill_69" data-name="Fill 69" d="M0,2.8H16.535V0H0Z" transform="translate(150.745 343.741)" fill="#e3e3e3"/>
        <path id="Fill_70" data-name="Fill 70" d="M0,13.622H16.535V0H0Z" transform="translate(172.406 309.189)" fill="#e3e3e3"/>
        <path id="Fill_71" data-name="Fill 71" d="M0,5.592H16.535V0H0Z" transform="translate(172.406 324.198)" fill="#1c4c95"/>
        <path id="Fill_72" data-name="Fill 72" d="M0,2.795H16.535V0H0Z" transform="translate(172.406 333.815)" fill="#e3e3e3"/>
        <path id="Fill_73" data-name="Fill 73" d="M0,2.795H16.535V0H0Z" transform="translate(172.406 338.78)" fill="#e3e3e3"/>
        <path id="Fill_74" data-name="Fill 74" d="M0,2.8H16.535V0H0Z" transform="translate(172.406 343.741)" fill="#e3e3e3"/>
        <path id="Fill_75" data-name="Fill 75" d="M46.83,0A46.83,46.83,0,1,0,93.013,54.279L105.04,46.83,93.013,39.382A46.8,46.8,0,0,0,46.83,0" transform="translate(42.818 277.282)" fill="#fff"/>
        <path id="Fill_76" data-name="Fill 76" d="M49.156,98.313A49.157,49.157,0,1,1,66.184,3,48.79,48.79,0,0,1,91.47,24.114a49.256,49.256,0,0,1,5.984,16.168l11.136,6.9a2.327,2.327,0,0,1,0,3.956l-11.136,6.9A49.263,49.263,0,0,1,91.47,74.2,48.786,48.786,0,0,1,66.184,95.311,49.327,49.327,0,0,1,49.156,98.313Zm0-93.66A44.5,44.5,0,1,0,93.042,56.237a2.318,2.318,0,0,1,1.073-1.609l8.832-5.472-8.832-5.469a2.318,2.318,0,0,1-1.073-1.609A44.263,44.263,0,0,0,49.156,4.653Z" transform="translate(40.492 274.956)" fill="#b5b5b5"/>
        <path id="Fill_77" data-name="Fill 77" d="M106.465,80.348H7.6a7.6,7.6,0,0,1-7.6-7.6V7.6A7.6,7.6,0,0,1,7.6,0h98.869a7.6,7.6,0,0,1,7.6,7.6V72.752a7.6,7.6,0,0,1-7.6,7.6" transform="translate(109.496 415.038)" fill="#0d2b42"/>
        <path id="Fill_78" data-name="Fill 78" d="M99.794,62.547H3.8a3.8,3.8,0,0,1-3.8-3.8V3.8A3.8,3.8,0,0,1,3.8,0h96a3.8,3.8,0,0,1,3.8,3.8V58.749a3.8,3.8,0,0,1-3.8,3.8" transform="translate(114.731 419.721)" fill="#fff"/>
        <path id="Fill_79" data-name="Fill 79" d="M121.656,0a7.6,7.6,0,0,1-7.6,7.6H7.595A7.6,7.6,0,0,1,0,0" transform="translate(105.699 487.789)" fill="#e3e3e3"/>
        <path id="Fill_80" data-name="Fill 80" d="M0,8.858H20.653V0H0Z" transform="translate(120.313 422.999)" fill="#37ab8d"/>
        <path id="Fill_81" data-name="Fill 81" d="M0,8.858H64.323V0H0Z" transform="translate(148.376 422.999)" fill="#d8cd2b"/>
        <path id="Fill_82" data-name="Fill 82" d="M0,15.9H19.007V0H0Z" transform="translate(120.315 436.759)" fill="#e3e3e3"/>
        <path id="Fill_83" data-name="Fill 83" d="M0,6.525H19.007V0H0Z" transform="translate(120.315 454.276)" fill="#d8cd2b"/>
        <path id="Fill_84" data-name="Fill 84" d="M0,3.263H19.007V0H0Z" transform="translate(120.315 465.498)" fill="#e3e3e3"/>
        <path id="Fill_85" data-name="Fill 85" d="M0,3.263H19.007V0H0Z" transform="translate(120.315 471.291)" fill="#e3e3e3"/>
        <path id="Fill_86" data-name="Fill 86" d="M0,3.263H19.007V0H0Z" transform="translate(120.315 477.082)" fill="#e3e3e3"/>
        <path id="Fill_87" data-name="Fill 87" d="M0,15.9H19.007V0H0Z" transform="translate(144.788 436.759)" fill="#e3e3e3"/>
        <path id="Fill_88" data-name="Fill 88" d="M0,6.525H19.007V0H0Z" transform="translate(144.788 454.276)" fill="#d8cd2b"/>
        <path id="Fill_89" data-name="Fill 89" d="M0,3.263H19.007V0H0Z" transform="translate(144.788 465.498)" fill="#e3e3e3"/>
        <path id="Fill_90" data-name="Fill 90" d="M0,3.263H19.007V0H0Z" transform="translate(144.788 471.291)" fill="#e3e3e3"/>
        <path id="Fill_91" data-name="Fill 91" d="M0,3.263H19.007V0H0Z" transform="translate(144.788 477.082)" fill="#e3e3e3"/>
        <path id="Fill_92" data-name="Fill 92" d="M0,15.9H19.007V0H0Z" transform="translate(169.26 436.759)" fill="#e3e3e3"/>
        <path id="Fill_93" data-name="Fill 93" d="M0,6.525H19.007V0H0Z" transform="translate(169.26 454.276)" fill="#d8cd2b"/>
        <path id="Fill_94" data-name="Fill 94" d="M0,3.263H19.007V0H0Z" transform="translate(169.26 465.498)" fill="#e3e3e3"/>
        <path id="Fill_95" data-name="Fill 95" d="M0,3.263H19.007V0H0Z" transform="translate(169.26 471.291)" fill="#e3e3e3"/>
        <path id="Fill_96" data-name="Fill 96" d="M0,3.263H19.007V0H0Z" transform="translate(169.26 477.082)" fill="#e3e3e3"/>
        <path id="Fill_97" data-name="Fill 97" d="M0,15.9H19.007V0H0Z" transform="translate(193.732 436.759)" fill="#e3e3e3"/>
        <path id="Fill_98" data-name="Fill 98" d="M0,6.525H19.007V0H0Z" transform="translate(193.732 454.276)" fill="#d8cd2b"/>
        <path id="Fill_99" data-name="Fill 99" d="M0,3.263H19.007V0H0Z" transform="translate(193.732 465.498)" fill="#e3e3e3"/>
        <path id="Fill_100" data-name="Fill 100" d="M0,3.263H19.007V0H0Z" transform="translate(193.732 471.291)" fill="#e3e3e3"/>
        <path id="Fill_101" data-name="Fill 101" d="M0,3.263H19.007V0H0Z" transform="translate(193.732 477.082)" fill="#e3e3e3"/>
        <path id="Fill_102" data-name="Fill 102" d="M0,3.219H27.649V0H0Z" transform="translate(152.702 487.788)" fill="#d4d4d4"/>
        <path id="Fill_103" data-name="Fill 103" d="M46.83,0A46.83,46.83,0,1,0,93.012,54.279l12.027-7.447L93.012,39.382A46.8,46.8,0,0,0,46.83,0" transform="translate(12.819 408.381)" fill="#fff"/>
        <path id="Fill_104" data-name="Fill 104" d="M49.156,98.313A49.157,49.157,0,1,1,66.184,3,48.791,48.791,0,0,1,91.471,24.114a49.25,49.25,0,0,1,5.984,16.168l11.137,6.9a2.328,2.328,0,0,1,0,3.956L97.455,58.03A49.254,49.254,0,0,1,91.471,74.2,48.789,48.789,0,0,1,66.185,95.311,49.328,49.328,0,0,1,49.156,98.313Zm0-93.66A44.5,44.5,0,1,0,93.044,56.237a2.325,2.325,0,0,1,1.071-1.611l8.834-5.468-8.834-5.47a2.327,2.327,0,0,1-1.071-1.611A44.266,44.266,0,0,0,49.156,4.653Z" transform="translate(10.492 406.054)" fill="#b5b5b5"/>
        <path id="Fill_105" data-name="Fill 105" d="M32.884,18.162,27.093,0H5.792L0,18.162Z" transform="translate(152.012 101.109)" fill="#d4d4d4"/>
        <path id="Fill_106" data-name="Fill 106" d="M0,6.152H51.588V0H0Z" transform="translate(142.661 117.675)" fill="#e3e3e3"/>
        <path id="Fill_107" data-name="Fill 107" d="M129.546,104.363H9.241A9.242,9.242,0,0,1,0,95.119V9.243A9.243,9.243,0,0,1,9.241,0h120.3a9.243,9.243,0,0,1,9.243,9.243V95.119a9.242,9.242,0,0,1-9.243,9.243" transform="translate(99.06 0)" fill="#0d2b42"/>
        <path id="Fill_108" data-name="Fill 108" d="M121.428,76.107H4.622A4.622,4.622,0,0,1,0,71.485V4.62A4.621,4.621,0,0,1,4.622,0H121.428a4.62,4.62,0,0,1,4.621,4.62V71.485a4.621,4.621,0,0,1-4.621,4.622" transform="translate(105.429 5.697)" fill="#fff"/>
        <path id="Fill_109" data-name="Fill 109" d="M138.789,0V7.293a9.242,9.242,0,0,1-9.243,9.241H9.243A9.242,9.242,0,0,1,0,7.293V0Z" transform="translate(99.059 87.827)" fill="#e3e3e3"/>
        <path id="Fill_110" data-name="Fill 110" d="M6.542,3.27A3.271,3.271,0,1,1,3.27,0,3.27,3.27,0,0,1,6.542,3.27" transform="translate(165.183 91.623)" fill="#23445e"/>
        <path id="Fill_111" data-name="Fill 111" d="M0,10.779H25.131V0H0Z" transform="translate(112.223 9.686)" fill="#37ab8d"/>
        <path id="Fill_112" data-name="Fill 112" d="M0,10.779H78.269V0H0Z" transform="translate(146.368 9.686)" fill="#1c4c95"/>
        <path id="Fill_113" data-name="Fill 113" d="M0,19.343H23.128V0H0Z" transform="translate(112.223 26.431)" fill="#e3e3e3"/>
        <path id="Fill_114" data-name="Fill 114" d="M0,7.939H23.128V0H0Z" transform="translate(112.223 47.746)" fill="#d8cd2b"/>
        <path id="Fill_115" data-name="Fill 115" d="M0,3.969H23.128V0H0Z" transform="translate(112.223 61.4)" fill="#e3e3e3"/>
        <path id="Fill_116" data-name="Fill 116" d="M0,3.969H23.128V0H0Z" transform="translate(112.223 68.448)" fill="#e3e3e3"/>
        <path id="Fill_117" data-name="Fill 117" d="M0,3.969H23.128V0H0Z" transform="translate(112.223 75.498)" fill="#e3e3e3"/>
        <path id="Fill_118" data-name="Fill 118" d="M0,19.343H23.128V0H0Z" transform="translate(142.001 26.431)" fill="#e3e3e3"/>
        <path id="Fill_119" data-name="Fill 119" d="M0,7.939H23.128V0H0Z" transform="translate(142.001 47.746)" fill="#d8cd2b"/>
        <path id="Fill_120" data-name="Fill 120" d="M0,3.969H23.128V0H0Z" transform="translate(142.001 61.4)" fill="#e3e3e3"/>
        <path id="Fill_121" data-name="Fill 121" d="M0,3.969H23.128V0H0Z" transform="translate(142.001 68.448)" fill="#e3e3e3"/>
        <path id="Fill_122" data-name="Fill 122" d="M0,3.969H23.128V0H0Z" transform="translate(142.001 75.498)" fill="#e3e3e3"/>
        <path id="Fill_123" data-name="Fill 123" d="M0,19.343H23.128V0H0Z" transform="translate(171.779 26.431)" fill="#e3e3e3"/>
        <path id="Fill_124" data-name="Fill 124" d="M0,7.939H23.128V0H0Z" transform="translate(171.779 47.746)" fill="#d8cd2b"/>
        <path id="Fill_125" data-name="Fill 125" d="M0,3.969H23.128V0H0Z" transform="translate(171.779 61.4)" fill="#e3e3e3"/>
        <path id="Fill_126" data-name="Fill 126" d="M0,3.969H23.128V0H0Z" transform="translate(171.779 68.448)" fill="#e3e3e3"/>
        <path id="Fill_127" data-name="Fill 127" d="M0,3.969H23.128V0H0Z" transform="translate(171.779 75.498)" fill="#e3e3e3"/>
        <path id="Fill_128" data-name="Fill 128" d="M0,19.343H23.127V0H0Z" transform="translate(201.558 26.431)" fill="#e3e3e3"/>
        <path id="Fill_129" data-name="Fill 129" d="M0,7.939H23.127V0H0Z" transform="translate(201.558 47.746)" fill="#d8cd2b"/>
        <path id="Fill_130" data-name="Fill 130" d="M0,3.969H23.127V0H0Z" transform="translate(201.558 61.4)" fill="#e3e3e3"/>
        <path id="Fill_131" data-name="Fill 131" d="M0,3.969H23.127V0H0Z" transform="translate(201.558 68.448)" fill="#e3e3e3"/>
        <path id="Fill_132" data-name="Fill 132" d="M0,3.969H23.127V0H0Z" transform="translate(201.558 75.498)" fill="#e3e3e3"/>
        <path id="Fill_133" data-name="Fill 133" d="M46.83,0A46.83,46.83,0,1,0,93.012,54.278l12.027-7.447L93.012,39.382A46.8,46.8,0,0,0,46.83,0" transform="translate(2.326 3.221)" fill="#fff"/>
        <path id="Fill_134" data-name="Fill 134" d="M49.156,98.313A49.157,49.157,0,1,1,66.184,3,48.789,48.789,0,0,1,91.47,24.115a49.26,49.26,0,0,1,5.984,16.169l11.136,6.9a2.342,2.342,0,0,1,1.1,1.976,2.311,2.311,0,0,1-1.1,1.979L97.454,58.03A49.26,49.26,0,0,1,91.47,74.2,48.786,48.786,0,0,1,66.184,95.311,49.327,49.327,0,0,1,49.156,98.313Zm0-93.66A44.5,44.5,0,1,0,93.04,56.238a2.329,2.329,0,0,1,1.073-1.61l8.834-5.472-8.834-5.468a2.329,2.329,0,0,1-1.073-1.61A44.259,44.259,0,0,0,49.156,4.653Z" transform="translate(0 0.894)" fill="#b5b5b5"/>
      </g>
    </g>
    <g id="Group_8" data-name="Group 8" transform="translate(56.15 146.1)">
      <circle id="Mask-5" data-name="Mask" cx="45.9" cy="45.9" r="45.9" transform="translate(0 0)" fill="none"/>
      <g id="Group_8-2" data-name="Group 8" clip-path="url(#clip-path-2)">
        <g id="Group_49" data-name="Group 49" transform="translate(22.1 18.85)">
          <g id="Group_5" data-name="Group 5" transform="translate(0 41.573)">
            <path id="Clip_2-4" data-name="Clip 2" d="M21.92,0C2.871,0-.18,18.544.008,31.473H44.669C44.622,18.594,41.223.143,22.139,0H21.92Z" transform="translate(0.645 0.036)" fill="none"/>
            <g id="Group_5-2" data-name="Group 5" clip-path="url(#clip-path-3)">
              <path id="Fill_1-2" data-name="Fill 1" d="M0,34.667H47.864V0H0Z" transform="translate(-0.953 -1.562)" fill="#c0dfe4"/>
              <path id="Fill_3-2" data-name="Fill 3" d="M0,34.667H47.864V0H0Z" transform="translate(-0.953 -1.562)" fill="#c0dfe4"/>
              <path id="Fill_4" data-name="Fill 4" d="M0,34.667H47.864V0H0Z" transform="translate(-0.953 -1.562)" fill="#9f93c0"/>
            </g>
          </g>
          <path id="Fill_6" data-name="Fill 6" d="M.471.012,0,10.373l4.152,2.372,4.125-2.372L7.795,0Z" transform="translate(18.84 34.109)" fill="#f4cbb6"/>
          <g id="Group_9" data-name="Group 9" transform="translate(7.203 6.424)">
            <path id="Clip_8-4" data-name="Clip 8" d="M0,20.026c0,9.494,6.974,14.357,15.575,14.357h0c8.6,0,15.573-4.863,15.573-14.357h0C31.148,10.532,24.176,0,15.575,0h0C6.974,0,0,10.532,0,20.026Z" transform="translate(0.232 0.578)" fill="none"/>
            <g id="Group_9-2" data-name="Group 9" clip-path="url(#clip-path-4)">
              <path id="Fill_7-2" data-name="Fill 7" d="M0,37.58H34.34V0H0Z" transform="translate(-1.364 -1.019)" fill="#f4cbb6"/>
            </g>
          </g>
          <g id="Group_12" data-name="Group 12" transform="translate(2.068 21.964)">
            <path id="Clip_11-4" data-name="Clip 11" d="M0,4.451A4.453,4.453,0,0,0,4.451,8.9h0A4.451,4.451,0,0,0,8.9,4.451h0A4.45,4.45,0,0,0,4.451,0h0A4.452,4.452,0,0,0,0,4.451Z" transform="translate(0.713 0.409)" fill="none"/>
            <g id="Group_12-2" data-name="Group 12" clip-path="url(#clip-path-5)">
              <path id="Fill_10" data-name="Fill 10" d="M0,12.1H12.093V0H0Z" transform="translate(-0.883 -1.189)" fill="#f4cbb6"/>
            </g>
          </g>
          <g id="Group_15" data-name="Group 15" transform="translate(34.081 21.964)">
            <path id="Clip_14-4" data-name="Clip 14" d="M0,4.451A4.454,4.454,0,0,0,4.451,8.9h0A4.453,4.453,0,0,0,8.9,4.451h0A4.452,4.452,0,0,0,4.451,0h0A4.453,4.453,0,0,0,0,4.451Z" transform="translate(0.253 0.409)" fill="none"/>
            <g id="Group_15-2" data-name="Group 15" clip-path="url(#clip-path-6)">
              <path id="Fill_13-2" data-name="Fill 13" d="M0,12.1H12.1V0H0Z" transform="translate(-1.343 -1.189)" fill="#f4cbb6"/>
            </g>
          </g>
          <g id="Group_18" data-name="Group 18" transform="translate(15.473 21.964)">
            <path id="Clip_17-4" data-name="Clip 17" d="M0,1.371A1.369,1.369,0,0,0,1.369,2.737h0A1.367,1.367,0,0,0,2.737,1.371h0A1.368,1.368,0,0,0,1.369,0h0A1.369,1.369,0,0,0,0,1.371Z" transform="translate(0.462 0.862)" fill="none"/>
            <g id="Group_18-2" data-name="Group 18" clip-path="url(#clip-path-7)">
              <path id="Fill_16-2" data-name="Fill 16" d="M0,5.932H5.934V0H0Z" transform="translate(-1.136 -0.736)" fill="#060001"/>
            </g>
          </g>
          <g id="Group_21" data-name="Group 21" transform="translate(26.878 21.964)">
            <path id="Clip_20-4" data-name="Clip 20" d="M0,1.371A1.367,1.367,0,0,0,1.369,2.737h0A1.368,1.368,0,0,0,2.74,1.371h0A1.369,1.369,0,0,0,1.369,0h0A1.368,1.368,0,0,0,0,1.371Z" transform="translate(0.467 0.862)" fill="none"/>
            <g id="Group_21-2" data-name="Group 21" clip-path="url(#clip-path-8)">
              <path id="Fill_19-2" data-name="Fill 19" d="M0,5.932H5.934V0H0Z" transform="translate(-1.129 -0.736)" fill="#060001"/>
            </g>
          </g>
          <g id="Group_24" data-name="Group 24" transform="translate(19.608 30.235)">
            <path id="Clip_23-4" data-name="Clip 23" d="M0,0A3.239,3.239,0,0,0,3.238,3.24h0A3.237,3.237,0,0,0,6.474,0H0Z" transform="translate(0.164 0.55)" fill="none"/>
            <g id="Group_24-2" data-name="Group 24" clip-path="url(#clip-path-9)">
              <path id="Fill_22-2" data-name="Fill 22" d="M0,6.432H9.666V0H0Z" transform="translate(-1.432 -1.046)" fill="#e48a8f"/>
            </g>
          </g>
          <g id="Group_27" data-name="Group 27" transform="translate(6.203 0.221)">
            <path id="Clip_26-4" data-name="Clip 26" d="M.482,21.643l.868.717,6.25-10.9,7.268,2.793L14.787,11.7l6.068,2.952.482-2.874,4.791,3.833.639-2.874,5.465,9.637.825-.618c3.891-11.5-2.775-16.046-2.775-16.046h0L31.32,3.875l-4.712-.4L27.887,1.4l-6.631.877L21.416.041S20.889,0,20,0h0C14.738,0-3.147,1.464.482,21.643Z" transform="translate(0.101 0.908)" fill="none"/>
            <g id="Group_27-2" data-name="Group 27" clip-path="url(#clip-path-10)">
              <path id="Fill_25-2" data-name="Fill 25" d="M0,25.572H37.471V0H0Z" transform="translate(-1.497 -0.69)" fill="#d7820e"/>
            </g>
          </g>
          <g id="Group_30" data-name="Group 30" transform="translate(0 43.64)">
            <path id="Clip_29-4" data-name="Clip 29" d="M11.543,0C1.7,5.5-.139,19.036.008,29.155H44.9C44.866,19.038,42.771,5.506,32.711,0H11.543Z" transform="translate(0.538 0.329)" fill="none"/>
            <g id="Group_30-2" data-name="Group 30" clip-path="url(#clip-path-11)">
              <path id="Fill_28-2" data-name="Fill 28" d="M0,32.349H48.1V0H0Z" transform="translate(-1.061 -1.267)" fill="#c8cad1"/>
            </g>
          </g>
          <g id="Group_33" data-name="Group 33" transform="translate(6.203 45.708)">
            <path id="Clip_32-4" data-name="Clip 32" d="M1.42.236A19.282,19.282,0,0,0,0,1.832H31.88a19.457,19.457,0,0,0-1.466-1.6H1.42Z" transform="translate(0.593 0.96)" fill="none"/>
            <g id="Group_33-2" data-name="Group 33" clip-path="url(#clip-path-12)">
              <path id="Fill_31-2" data-name="Fill 31" d="M0,4.788H50.182V0H0Z" transform="translate(-8.283 -0.4)" fill="#d8476b"/>
            </g>
          </g>
          <g id="Group_36" data-name="Group 36" transform="translate(4.135 50.91)">
            <path id="Clip_35-4" data-name="Clip 35" d="M.835.238C.54.755.261,1.288,0,1.83H37.309c-.275-.544-.564-1.075-.875-1.592H.835Z" transform="translate(0 0.058)" fill="none"/>
            <g id="Group_36-2" data-name="Group 36" clip-path="url(#clip-path-13)">
              <path id="Fill_34-2" data-name="Fill 34" d="M0,4.786H50.182V0H0Z" transform="translate(-6.215 -1.303)" fill="#d8476b"/>
            </g>
          </g>
          <g id="Group_39" data-name="Group 39" transform="translate(2.068 55.046)">
            <path id="Clip_38-4" data-name="Clip 38" d="M.527.237Q.245,1.024,0,1.831H40.719c-.176-.538-.362-1.069-.562-1.594H.527Z" transform="translate(0.411 0.224)" fill="none"/>
            <g id="Group_39-2" data-name="Group 39" clip-path="url(#clip-path-14)">
              <path id="Fill_37-2" data-name="Fill 37" d="M0,4.788H50.182V0H0Z" transform="translate(-4.148 -1.135)" fill="#d8476b"/>
            </g>
          </g>
          <g id="Group_42" data-name="Group 42" transform="translate(1 59.181)">
            <path id="Clip_41-3" data-name="Clip 41" d="M.327.237C.207.766.1,1.3,0,1.831H42.883q-.164-.8-.36-1.594H.327Z" transform="translate(0.441 0.392)" fill="none"/>
            <g id="Group_42-2" data-name="Group 42" clip-path="url(#clip-path-15)">
              <path id="Fill_40-2" data-name="Fill 40" d="M0,4.788H50.182V0H0Z" transform="translate(-3.08 -0.97)" fill="#d8476b"/>
            </g>
          </g>
          <g id="Group_45" data-name="Group 45" transform="translate(0 63.316)">
            <path id="Clip_44-3" data-name="Clip 44" d="M.18.236C.112.769.052,1.3,0,1.832H44.176c-.062-.529-.132-1.063-.211-1.6H.18Z" transform="translate(0.837 0.558)" fill="none"/>
            <g id="Group_45-2" data-name="Group 45" clip-path="url(#clip-path-16)">
              <path id="Fill_43-2" data-name="Fill 43" d="M0,4.788H50.182V0H0Z" transform="translate(-2.08 -0.802)" fill="#d8476b"/>
            </g>
          </g>
          <g id="Group_48" data-name="Group 48" transform="translate(0 67.451)">
            <path id="Clip_47-3" data-name="Clip 47" d="M.066.237C.037.772.017,1.306,0,1.831H44.8c-.025-.525-.056-1.059-.1-1.594H.066Z" transform="translate(0.567 0.725)" fill="none"/>
            <g id="Group_48-2" data-name="Group 48" clip-path="url(#clip-path-17)">
              <path id="Fill_46-2" data-name="Fill 46" d="M0,4.788H50.182V0H0Z" transform="translate(-2.08 -0.637)" fill="#d8476b"/>
            </g>
          </g>
        </g>
      </g>
    </g>
    <g id="Group_7" data-name="Group 7" transform="translate(45.1 277.45)">
      <circle id="Mask-6" data-name="Mask" cx="45.9" cy="45.9" r="45.9" transform="translate(0 0)" fill="none"/>
      <g id="Group_7-2" data-name="Group 7" clip-path="url(#clip-path-2)">
        <g id="Group_68" data-name="Group 68" transform="translate(22.1 17.85)">
          <g id="Group_67" data-name="Group 67" transform="translate(0)">
            <g id="Group_3" data-name="Group 3" transform="translate(0 41.741)">
              <path id="Clip_2-5" data-name="Clip 2" d="M22.013,0C2.881,0-.177,18.625.008,31.612H44.866C44.821,18.675,41.405.142,22.238,0h-.225Z" transform="translate(0.08 0.676)" fill="none"/>
              <g id="Group_3-2" data-name="Group 3" clip-path="url(#clip-path-19)">
                <path id="Fill_1-3" data-name="Fill 1" d="M0,35.089H48.343V0H0Z" transform="translate(-1.658 -1.063)" fill="#f4cbb6"/>
              </g>
            </g>
            <g id="Group_6" data-name="Group 6" transform="translate(18 34.991)">
              <path id="Clip_5-3" data-name="Clip 5" d="M.439.014,0,7.711c.083,2.329,2.108,3.4,4.336,3.3h0c3.179-.16,3.436-2.621,3.436-2.621h0L7.319,0Z" transform="translate(0.614 0.258)" fill="none"/>
              <g id="Group_6-2" data-name="Group 6" clip-path="url(#clip-path-20)">
                <path id="Fill_4-2" data-name="Fill 4" d="M0,14.488H11.248V0H0Z" transform="translate(-1.125 -1.479)" fill="#f4cbb6"/>
              </g>
            </g>
            <g id="Group_9-3" data-name="Group 9" transform="translate(28 42.991)">
              <path id="Clip_8-5" data-name="Clip 8" d="M0,7.432l4.345.479V1.784A23.259,23.259,0,0,0,0,0H0Z" transform="translate(0.636 0.196)" fill="none"/>
              <g id="Group_9-4" data-name="Group 9" clip-path="url(#clip-path-21)">
                <path id="Fill_7-3" data-name="Fill 7" d="M0,11.387H7.821V0H0Z" transform="translate(-1.101 -1.541)" fill="#f5dc85"/>
              </g>
            </g>
            <g id="Group_12-3" data-name="Group 12" transform="translate(11.25 42.991)">
              <path id="Clip_11-5" data-name="Clip 11" d="M0,1.784V7.911l4.345-.479V0A23.259,23.259,0,0,0,0,1.784Z" transform="translate(0.178 0.196)" fill="none"/>
              <g id="Group_12-4" data-name="Group 12" clip-path="url(#clip-path-22)">
                <path id="Fill_10-2" data-name="Fill 10" d="M0,11.387H7.821V0H0Z" transform="translate(-1.559 -1.541)" fill="#f5dc85"/>
              </g>
            </g>
            <g id="Group_15-3" data-name="Group 15" transform="translate(30.25 28.241)">
              <path id="Clip_14-5" data-name="Clip 14" d="M0,5.409A5.411,5.411,0,0,0,5.411,10.82h0A5.409,5.409,0,0,0,10.82,5.409h0A5.408,5.408,0,0,0,5.411,0h0A5.41,5.41,0,0,0,0,5.409Z" transform="translate(0.247 0.703)" fill="none"/>
              <g id="Group_15-4" data-name="Group 15" clip-path="url(#clip-path-23)">
                <path id="Fill_13-3" data-name="Fill 13" d="M0,14.3H14.3V0H0Z" transform="translate(-1.49 -1.034)" fill="#7c4d22"/>
              </g>
            </g>
            <g id="Group_18-3" data-name="Group 18" transform="translate(34.75 37.241)">
              <path id="Clip_17-5" data-name="Clip 17" d="M0,3.307a3.308,3.308,0,0,0,3.31,3.31h0a3.309,3.309,0,0,0,3.307-3.31h0A3.309,3.309,0,0,0,3.31,0h0A3.308,3.308,0,0,0,0,3.307Z" transform="translate(0.865 0.525)" fill="none"/>
              <g id="Group_18-4" data-name="Group 18" clip-path="url(#clip-path-24)">
                <path id="Fill_16-3" data-name="Fill 16" d="M0,10.1H10.1V0H0Z" transform="translate(-0.874 -1.214)" fill="#7c4d22"/>
              </g>
            </g>
            <g id="Group_21-3" data-name="Group 21" transform="translate(37 42.991)">
              <path id="Clip_20-5" data-name="Clip 20" d="M0,2.869A2.869,2.869,0,0,0,2.866,5.738h0A2.871,2.871,0,0,0,5.738,2.869h0A2.871,2.871,0,0,0,2.866,0h0A2.869,2.869,0,0,0,0,2.869Z" transform="translate(0.721 0.378)" fill="none"/>
              <g id="Group_21-4" data-name="Group 21" clip-path="url(#clip-path-25)">
                <path id="Fill_19-3" data-name="Fill 19" d="M0,9.212H9.212V0H0Z" transform="translate(-1.016 -1.359)" fill="#7c4d22"/>
              </g>
            </g>
            <g id="Group_24-3" data-name="Group 24" transform="translate(3.25 0.241)">
              <path id="Clip_23-5" data-name="Clip 23" d="M0,18.517A18.52,18.52,0,0,0,18.52,37.035h0A18.517,18.517,0,0,0,37.037,18.517h0A18.515,18.515,0,0,0,18.52,0h0A18.519,18.519,0,0,0,0,18.517Z" transform="translate(0.712 0.889)" fill="none"/>
              <g id="Group_24-4" data-name="Group 24" clip-path="url(#clip-path-26)">
                <path id="Fill_22-3" data-name="Fill 22" d="M0,40.511H40.514V0H0Z" transform="translate(-1.025 -0.85)" fill="#7c4d22"/>
              </g>
            </g>
            <g id="Group_27-3" data-name="Group 27" transform="translate(6.75 6.991)">
              <path id="Clip_26-5" data-name="Clip 26" d="M0,20.111c0,9.54,7.006,14.425,15.644,14.425h0c8.64,0,15.644-4.885,15.644-14.425h0c0-9.536-7-20.111-15.644-20.111h0C7.006,0,0,10.575,0,20.111Z" transform="translate(0.104 0.364)" fill="none"/>
              <g id="Group_27-4" data-name="Group 27" clip-path="url(#clip-path-27)">
                <path id="Fill_25-3" data-name="Fill 25" d="M0,38.014H34.765V0H0Z" transform="translate(-1.633 -1.375)" fill="#f4cbb6"/>
              </g>
            </g>
            <g id="Group_30-3" data-name="Group 30" transform="translate(2 21.491)">
              <path id="Clip_29-5" data-name="Clip 29" d="M0,4.471A4.47,4.47,0,0,0,4.471,8.939h0A4.47,4.47,0,0,0,8.941,4.471h0A4.472,4.472,0,0,0,4.471,0h0A4.472,4.472,0,0,0,0,4.471Z" transform="translate(0.18 0.93)" fill="none"/>
              <g id="Group_30-4" data-name="Group 30" clip-path="url(#clip-path-28)">
                <path id="Fill_28-3" data-name="Fill 28" d="M0,12.418H12.415V0H0Z" transform="translate(-1.557 -0.809)" fill="#f4cbb6"/>
              </g>
            </g>
            <g id="Group_33-3" data-name="Group 33" transform="translate(33.75 21.491)">
              <path id="Clip_32-5" data-name="Clip 32" d="M0,4.471A4.469,4.469,0,0,0,4.466,8.939h0A4.469,4.469,0,0,0,8.939,4.471h0A4.471,4.471,0,0,0,4.466,0h0A4.471,4.471,0,0,0,0,4.471Z" transform="translate(0.126 0.93)" fill="none"/>
              <g id="Group_33-4" data-name="Group 33" clip-path="url(#clip-path-29)">
                <path id="Fill_31-3" data-name="Fill 31" d="M0,12.418H12.418V0H0Z" transform="translate(-1.613 -0.809)" fill="#f4cbb6"/>
              </g>
            </g>
            <g id="Group_36-3" data-name="Group 36" transform="translate(14.5 22.741)">
              <path id="Clip_35-5" data-name="Clip 35" d="M0,1.375A1.373,1.373,0,0,0,1.375,2.747h0A1.375,1.375,0,0,0,2.752,1.375h0A1.377,1.377,0,0,0,1.375,0h0A1.375,1.375,0,0,0,0,1.375Z" transform="translate(0.892 0.135)" fill="none"/>
              <g id="Group_36-4" data-name="Group 36" clip-path="url(#clip-path-30)">
                <path id="Fill_34-3" data-name="Fill 34" d="M0,6.226H6.23V0H0Z" transform="translate(-0.847 -1.604)" fill="#060001"/>
              </g>
            </g>
            <g id="Group_39-3" data-name="Group 39" transform="translate(26.75 22.741)">
              <path id="Clip_38-5" data-name="Clip 38" d="M0,1.375A1.372,1.372,0,0,0,1.377,2.747h0A1.373,1.373,0,0,0,2.752,1.375h0A1.375,1.375,0,0,0,1.377,0h0A1.374,1.374,0,0,0,0,1.375Z" transform="translate(0.104 0.135)" fill="none"/>
              <g id="Group_39-4" data-name="Group 39" clip-path="url(#clip-path-31)">
                <path id="Fill_37-3" data-name="Fill 37" d="M0,6.226H6.228V0H0Z" transform="translate(-1.635 -1.604)" fill="#060001"/>
              </g>
            </g>
            <g id="Group_42-3" data-name="Group 42" transform="translate(19 30.491)">
              <path id="Clip_41-4" data-name="Clip 41" d="M0,0A3.25,3.25,0,0,0,3.251,3.253h0A3.25,3.25,0,0,0,6.5,0H0Z" transform="translate(0.249 0.379)" fill="none"/>
              <g id="Group_42-4" data-name="Group 42" clip-path="url(#clip-path-32)">
                <path id="Fill_40-3" data-name="Fill 40" d="M0,6.73H9.976V0H0Z" transform="translate(-1.488 -1.358)" fill="#e48a8f"/>
              </g>
            </g>
            <g id="Group_45-3" data-name="Group 45" transform="translate(9 3.491)">
              <path id="Clip_44-4" data-name="Clip 44" d="M1.086,17.467H25.073S32.372,0,13.47,0h0C-5.432,0,1.086,17.467,1.086,17.467Z" transform="translate(0.336 0.685)" fill="none"/>
              <g id="Group_45-4" data-name="Group 45" clip-path="url(#clip-path-33)">
                <path id="Fill_43-3" data-name="Fill 43" d="M0,20.945H29.936V0H0Z" transform="translate(-1.404 -1.054)" fill="#7c4d22"/>
              </g>
            </g>
            <g id="Group_48-3" data-name="Group 48" transform="translate(0 43.991)">
              <path id="Clip_47-4" data-name="Clip 47" d="M11.534,0C1.695,5.5-.134,19.019.007,29.131H44.866C44.832,19.021,42.737,5.5,32.686,0H11.534Z" transform="translate(0.08 0.91)" fill="none"/>
              <g id="Group_48-4" data-name="Group 48" clip-path="url(#clip-path-34)">
                <path id="Fill_46-3" data-name="Fill 46" d="M0,32.607H48.343V0H0Z" transform="translate(-1.658 -0.829)" fill="#534c47"/>
              </g>
            </g>
            <g id="Group_51" data-name="Group 51" transform="translate(5.5 47.491)">
              <path id="Clip_50-2" data-name="Clip 50" d="M1.418.33A18.982,18.982,0,0,0,0,1.92H31.851A19.946,19.946,0,0,0,30.389.33H1.418Z" transform="translate(0.836 0.012)" fill="none"/>
              <g id="Group_51-2" data-name="Group 51" clip-path="url(#clip-path-35)">
                <path id="Fill_49-2" data-name="Fill 49" d="M0,5.069H50.425V0H0Z" transform="translate(-8.177 -1.397)" fill="#837d78"/>
              </g>
            </g>
            <g id="Group_54" data-name="Group 54" transform="translate(3.25 51.741)">
              <path id="Clip_53-2" data-name="Clip 53" d="M.835.329C.538.848.261,1.379,0,1.921H37.278Q36.866,1.108,36.4.329H.835Z" transform="translate(0.426 0.059)" fill="none"/>
              <g id="Group_54-2" data-name="Group 54" clip-path="url(#clip-path-36)">
                <path id="Fill_52-2" data-name="Fill 52" d="M0,5.067H50.425V0H0Z" transform="translate(-5.927 -1.35)" fill="#837d78"/>
              </g>
            </g>
            <g id="Group_57" data-name="Group 57" transform="translate(2 55.241)">
              <path id="Clip_56-2" data-name="Clip 56" d="M.526.329Q.243,1.115,0,1.921H40.687q-.263-.807-.562-1.593H.526Z" transform="translate(0.021 0.859)" fill="none"/>
              <g id="Group_57-2" data-name="Group 57" clip-path="url(#clip-path-37)">
                <path id="Fill_55-2" data-name="Fill 55" d="M0,5.069H50.425V0H0Z" transform="translate(-4.677 -0.552)" fill="#837d78"/>
              </g>
            </g>
            <g id="Group_60" data-name="Group 60" transform="translate(0 59.741)">
              <path id="Clip_59-2" data-name="Clip 59" d="M.326.33C.207.858.1,1.387,0,1.92H42.851c-.11-.533-.229-1.062-.36-1.591H.326Z" transform="translate(0.983 0.657)" fill="none"/>
              <g id="Group_60-2" data-name="Group 60" clip-path="url(#clip-path-38)">
                <path id="Fill_58-2" data-name="Fill 58" d="M0,5.069H50.425V0H0Z" transform="translate(-2.678 -0.752)" fill="#837d78"/>
              </g>
            </g>
            <g id="Group_63" data-name="Group 63" transform="translate(0 64.241)">
              <path id="Clip_62-2" data-name="Clip 62" d="M.18.33q-.1.8-.18,1.591H44.14q-.094-.793-.211-1.591H.18Z" transform="translate(0.38 0.457)" fill="none"/>
              <g id="Group_63-2" data-name="Group 63" clip-path="url(#clip-path-39)">
                <path id="Fill_61-2" data-name="Fill 61" d="M0,5.067H50.425V0H0Z" transform="translate(-2.678 -0.953)" fill="#837d78"/>
              </g>
            </g>
            <g id="Group_66" data-name="Group 66" transform="translate(0 68.741)">
              <path id="Clip_65-2" data-name="Clip 65" d="M.063.329C.036.864.014,1.395,0,1.921H44.757q-.037-.79-.095-1.593H.063Z" transform="translate(0.112 0.253)" fill="none"/>
              <g id="Group_66-2" data-name="Group 66" clip-path="url(#clip-path-40)">
                <path id="Fill_64-2" data-name="Fill 64" d="M0,5.067H50.425V0H0Z" transform="translate(-2.678 -1.155)" fill="#837d78"/>
              </g>
            </g>
          </g>
        </g>
      </g>
    </g>
    <g id="Group_27-5" data-name="Group 27" transform="translate(4 3)">
      <circle id="Mask-7" data-name="Mask" cx="45.9" cy="45.9" r="45.9" transform="translate(0 0)" fill="none"/>
      <g id="Group_27-6" data-name="Group 27" clip-path="url(#clip-path-2)">
        <g id="Group_27-7" data-name="Group 27" transform="translate(22.1 21.25)">
          <path id="Fill_1-4" data-name="Fill 1" d="M15.472,37.66A5.459,5.459,0,0,0,20.682,40.8c4.085.084,4.866-2.967,4.866-2.967s1.067,2.812,5.125,2.373a3.344,3.344,0,0,0,3.3-2.881c4.863,3.559,6.948-2.375,5.546-4.258-2.953-3.956.452-13.4,0-20.313-.28-4.272-1.86-9.42-10.256-12.218-6.188-2.06-11.468,2.5-11.468,2.5C12.969.679,8.143.679,3.014,6.422c-7.1,7.942.561,18.714.6,21.787a9.455,9.455,0,0,1-2.132,5.469c-1.651,2.71,2.434,6.951,6.69,3.982,0,0,4.257,5.087,7.3,0" transform="translate(2.55)" fill="#030000"/>
          <path id="Fill_3-3" data-name="Fill 3" d="M31.45,19.8c0,9.386-7.039,14.2-15.727,14.2S0,29.187,0,19.8,7.041,0,15.723,0,31.45,10.409,31.45,19.8" transform="translate(6.8 5.95)" fill="#f8ceb9"/>
          <path id="Fill_5-2" data-name="Fill 5" d="M8.5,4.251A4.25,4.25,0,1,1,4.249,0,4.249,4.249,0,0,1,8.5,4.251" transform="translate(2.55 21.25)" fill="#f8ceb9"/>
          <path id="Fill_7-4" data-name="Fill 7" d="M8.5,4.251A4.25,4.25,0,1,1,4.249,0,4.249,4.249,0,0,1,8.5,4.251" transform="translate(34 21.25)" fill="#f8ceb9"/>
          <path id="Fill_9-2" data-name="Fill 9" d="M2.55,1.276A1.275,1.275,0,1,1,1.275,0,1.274,1.274,0,0,1,2.55,1.276" transform="translate(15.3 21.25)" fill="#030000"/>
          <path id="Fill_11-2" data-name="Fill 11" d="M2.55,1.276A1.275,1.275,0,1,1,1.275,0,1.275,1.275,0,0,1,2.55,1.276" transform="translate(27.2 21.25)" fill="#030000"/>
          <path id="Fill_13-4" data-name="Fill 13" d="M6.8,0c0,1.408-1.52,2.55-3.4,2.55S0,1.408,0,0Z" transform="translate(19.55 29.75)" fill="#ee9094"/>
          <path id="Fill_15-2" data-name="Fill 15" d="M20.877,11.837a16.2,16.2,0,0,0,1.435,3.34S12.1,15.177,7.7,9.326c0,0-3.848,4.114-7.7,7.674l.162-5.672L4.171,2.707,14.314,0,29.569,5.666l.181,11.248Z" transform="translate(7.65 3.4)" fill="#030000"/>
          <path id="Fill_17-2" data-name="Fill 17" d="M22.328,0C2.921-.139-.179,17.981.008,30.6H45.05C45,18.078,41.575.138,22.328,0" transform="translate(0 40.8)" fill="#f8ceb9"/>
          <path id="Fill_19-4" data-name="Fill 19" d="M0,7.735.434.013,7.2,0,7.65,8.412S7.4,10.884,4.268,11.043C2.075,11.15.084,10.073,0,7.735" transform="translate(18.7 33.15)" fill="#f8ceb9"/>
          <path id="Fill_21-2" data-name="Fill 21" d="M30.6,20.4,26.062,0H4.54L0,20.4Z" transform="translate(6.8 51)" fill="#ffe286"/>
          <path id="Fill_23-2" data-name="Fill 23" d="M4.25,11.268V0L0,1.8V11.9Z" transform="translate(11.9 39.95)" fill="#ffe286"/>
          <path id="Fill_25-4" data-name="Fill 25" d="M0,11.268V0L4.25,1.8V11.9Z" transform="translate(28.9 39.95)" fill="#ffe286"/>
        </g>
      </g>
    </g>
    <g id="Group_42-5" data-name="Group 42" transform="translate(14.5 408.1)">
      <circle id="Mask-8" data-name="Mask" cx="45.9" cy="45.9" r="45.9" transform="translate(0 0)" fill="none"/>
      <g id="Group_42-6" data-name="Group 42" clip-path="url(#clip-path-2)">
        <g id="Group_42-7" data-name="Group 42" transform="translate(22.95 19.7)">
          <g id="Group_3-3" data-name="Group 3" transform="translate(6.203 6.424)">
            <path id="Clip_2-6" data-name="Clip 2" d="M0,20.024c0,9.494,6.972,14.359,15.573,14.359h0c8.6,0,15.571-4.865,15.571-14.359h0C31.144,10.532,24.174,0,15.573,0h0C6.972,0,0,10.532,0,20.024Z" transform="translate(0.899 0.642)" fill="none"/>
            <g id="Group_3-4" data-name="Group 3" clip-path="url(#clip-path-43)">
              <path id="Fill_1-5" data-name="Fill 1" d="M0,37.578H34.34V0H0Z" transform="translate(-0.699 -0.957)" fill="#f4cbb6"/>
            </g>
          </g>
          <g id="Group_6-3" data-name="Group 6" transform="translate(2.068 21.964)">
            <path id="Clip_5-4" data-name="Clip 5" d="M0,4.447A4.452,4.452,0,0,0,4.449,8.9h0A4.453,4.453,0,0,0,8.9,4.447h0A4.45,4.45,0,0,0,4.449,0h0A4.449,4.449,0,0,0,0,4.447Z" transform="translate(0.38 0.473)" fill="none"/>
            <g id="Group_6-4" data-name="Group 6" clip-path="url(#clip-path-44)">
              <path id="Fill_4-3" data-name="Fill 4" d="M0,12.1H12.093V0H0Z" transform="translate(-1.218 -1.125)" fill="#f4cbb6"/>
            </g>
          </g>
          <g id="Group_9-5" data-name="Group 9" transform="translate(33.081 21.964)">
            <path id="Clip_8-6" data-name="Clip 8" d="M0,4.447A4.454,4.454,0,0,0,4.449,8.9h0A4.454,4.454,0,0,0,8.9,4.447h0A4.451,4.451,0,0,0,4.449,0h0A4.452,4.452,0,0,0,0,4.447Z" transform="translate(0.918 0.473)" fill="none"/>
            <g id="Group_9-6" data-name="Group 9" clip-path="url(#clip-path-45)">
              <path id="Fill_7-5" data-name="Fill 7" d="M0,12.1H12.1V0H0Z" transform="translate(-0.678 -1.125)" fill="#f4cbb6"/>
            </g>
          </g>
          <g id="Group_12-5" data-name="Group 12" transform="translate(15.473 21.964)">
            <path id="Clip_11-6" data-name="Clip 11" d="M0,1.373A1.371,1.371,0,0,0,1.371,2.737h0A1.368,1.368,0,0,0,2.74,1.373h0A1.369,1.369,0,0,0,1.371,0h0A1.372,1.372,0,0,0,0,1.373Z" transform="translate(0.125 0.924)" fill="none"/>
            <g id="Group_12-6" data-name="Group 12" clip-path="url(#clip-path-46)">
              <path id="Fill_10-3" data-name="Fill 10" d="M0,5.934H5.934V0H0Z" transform="translate(-1.471 -0.674)" fill="#060001"/>
            </g>
          </g>
          <g id="Group_15-5" data-name="Group 15" transform="translate(26.878 21.964)">
            <path id="Clip_14-6" data-name="Clip 14" d="M0,1.373A1.369,1.369,0,0,0,1.371,2.737h0A1.368,1.368,0,0,0,2.74,1.373h0A1.369,1.369,0,0,0,1.371,0h0A1.369,1.369,0,0,0,0,1.373Z" transform="translate(0.132 0.924)" fill="none"/>
            <g id="Group_15-6" data-name="Group 15" clip-path="url(#clip-path-47)">
              <path id="Fill_13-5" data-name="Fill 13" d="M0,5.934H5.934V0H0Z" transform="translate(-1.464 -0.674)" fill="#060001"/>
            </g>
          </g>
          <g id="Group_18-5" data-name="Group 18" transform="translate(18.608 30.235)">
            <path id="Clip_17-6" data-name="Clip 17" d="M0,0A3.238,3.238,0,0,0,3.236,3.238h0A3.237,3.237,0,0,0,6.469,0H0Z" transform="translate(0.831 0.614)" fill="none"/>
            <g id="Group_18-6" data-name="Group 18" clip-path="url(#clip-path-48)">
              <path id="Fill_16-4" data-name="Fill 16" d="M0,6.432H9.664V0H0Z" transform="translate(-0.765 -0.984)" fill="#e48a8f"/>
            </g>
          </g>
          <g id="Group_21-5" data-name="Group 21" transform="translate(5.135 0.221)">
            <path id="Clip_20-6" data-name="Clip 20" d="M8.462,4.784S-3.768,7.452,1.178,21.778h0l.87.722L9.489,9.939a20.037,20.037,0,0,0,8.845,6.887h0l.411-3.953L26.1,17.824l2-3.033,4.828,7.72.825-.616s5.115-13.83-8.595-20h0A19,19,0,0,0,17.392,0h0a9.983,9.983,0,0,0-8.93,4.784Z" transform="translate(0.136 0.834)" fill="none"/>
            <g id="Group_21-6" data-name="Group 21" clip-path="url(#clip-path-49)">
              <path id="Fill_19-5" data-name="Fill 19" d="M0,25.708H37.882V0H0Z" transform="translate(-1.461 -0.764)" fill="#060001"/>
            </g>
          </g>
          <g id="Group_24-5" data-name="Group 24" transform="translate(12.405 0.221)">
            <path id="Clip_23-6" data-name="Clip 23" d="M.055,7.456,4.293,4.743C3.446,3.9,2.77,0,2.77,0h0C-.621,2.372.055,7.456.055,7.456Z" transform="translate(0.72 0.269)" fill="none"/>
            <g id="Group_24-6" data-name="Group 24" clip-path="url(#clip-path-50)">
              <path id="Fill_22-4" data-name="Fill 22" d="M0,10.652H7.487V0H0Z" transform="translate(-0.877 -1.329)" fill="#060001"/>
            </g>
          </g>
          <g id="Group_27-8" data-name="Group 27" transform="translate(7.203 5.424)">
            <path id="Clip_26-6" data-name="Clip 26" d="M0,.577,2.715,3.629l3.556-.676L5.425.066A13.61,13.61,0,0,0,4,0H4A13,13,0,0,0,0,.577Z" transform="translate(0.693 0.461)" fill="none"/>
            <g id="Group_27-9" data-name="Group 27" clip-path="url(#clip-path-51)">
              <path id="Fill_25-5" data-name="Fill 25" d="M0,6.823H9.467V0H0Z" transform="translate(-0.903 -1.135)" fill="#060001"/>
            </g>
          </g>
          <g id="Group_30-5" data-name="Group 30" transform="translate(0 41.573)">
            <path id="Clip_29-6" data-name="Clip 29" d="M21.714,0C3.451.13.033,17.43,0,30.222H0v.372c0,.3,0,.589.006.881H44.668C44.622,18.594,41.221.143,22.14,0h-.426Z" transform="translate(0.337 0.096)" fill="none"/>
            <g id="Group_30-6" data-name="Group 30" clip-path="url(#clip-path-52)">
              <path id="Fill_28-4" data-name="Fill 28" d="M0,34.669H47.862V0H0Z" transform="translate(-1.261 -1.5)" fill="#534c47"/>
            </g>
          </g>
          <g id="Group_33-5" data-name="Group 33" transform="translate(12.405 41.573)">
            <path id="Clip_32-6" data-name="Clip 32" d="M9.695,0A21.514,21.514,0,0,0,0,2.07H0L6.395,9.676l3.72-4.433,3.227,4.433L19.52,2.068A22.071,22.071,0,0,0,9.906,0H9.695Z" transform="translate(0.132 0.03)" fill="none"/>
            <g id="Group_33-6" data-name="Group 33" clip-path="url(#clip-path-53)">
              <path id="Fill_31-4" data-name="Fill 31" d="M0,12.871H22.714V0H0Z" transform="translate(-1.464 -1.569)" fill="#a9a29d"/>
            </g>
          </g>
          <g id="Group_36-5" data-name="Group 36" transform="translate(19.608 47.775)">
            <path id="Clip_35-6" data-name="Clip 35" d="M1.884,0A2.215,2.215,0,0,0,0,2.436H0l.01.959A2.188,2.188,0,0,0,1.944,5.769h0A2.214,2.214,0,0,0,3.823,3.333h0l-.008-.961A2.191,2.191,0,0,0,1.911,0H1.884Z" transform="translate(0.968 0.578)" fill="none"/>
            <g id="Group_36-6" data-name="Group 36" clip-path="url(#clip-path-54)">
              <path id="Fill_34-4" data-name="Fill 34" d="M0,8.963H7.017V0H0Z" transform="translate(-0.628 -1.021)" fill="#a9a29d"/>
            </g>
          </g>
          <g id="Group_39-5" data-name="Group 39" transform="translate(19.608 52.978)">
            <path id="Clip_38-6" data-name="Clip 38" d="M0,19.28H5.512C5.512,8.63,4.28,0,2.758,0h0C1.234,0,0,8.63,0,19.28Z" transform="translate(0.123 0.862)" fill="none"/>
            <g id="Group_39-6" data-name="Group 39" clip-path="url(#clip-path-55)">
              <path id="Fill_37-4" data-name="Fill 37" d="M0,22.474H8.7V0H0Z" transform="translate(-1.473 -0.736)" fill="#a9a29d"/>
            </g>
          </g>
          <path id="Fill_40-4" data-name="Fill 40" d="M.471.014,0,8.349l4.152,4.4,4.125-4.4L7.795,0Z" transform="translate(18.575 34.17)" fill="#f4cbb6"/>
          <path id="Fill_41-2" data-name="Fill 41" d="M0,1.9H6.35V.164H0Z" transform="translate(29.188 55.398)" fill="#a9a29d"/>
        </g>
      </g>
    </g>
  </g>
</svg>
