<svg xmlns="http://www.w3.org/2000/svg" width="120.388" height="92.515" viewBox="0 0 120.388 92.515">
  <g id="グループ_35" data-name="グループ 35" transform="translate(-1405.77 -5881.754)">
    <path id="パス_107" data-name="パス 107" d="M-3528.151,5759.637l44.1-6.35,48.466,6.35" transform="translate(4947.63 132)" fill="none" stroke="#c49525" stroke-linecap="round" stroke-width="7"/>
    <path id="Icon_awesome-box-open" data-name="Icon awesome-box-open" d="M80.077,44.388a9.118,9.118,0,0,1-7.787-4.4L60.2,19.935,48.12,39.986a9.148,9.148,0,0,1-7.806,4.42,8.651,8.651,0,0,1-2.5-.357L12.043,36.676V70.157a6,6,0,0,0,4.552,5.831L57.261,86.163a12.227,12.227,0,0,0,5.831,0l40.7-10.176a6.032,6.032,0,0,0,4.552-5.831V36.676L82.579,44.03A8.651,8.651,0,0,1,80.077,44.388Zm39.989-21.1L110.379,3.947a3.072,3.072,0,0,0-3.141-1.674l-47.043,6L77.444,36.883a3.092,3.092,0,0,0,3.48,1.373l37.224-10.627a3.1,3.1,0,0,0,1.919-4.345ZM10.012,3.947.325,23.283a3.066,3.066,0,0,0,1.9,4.326L39.448,38.237a3.092,3.092,0,0,0,3.48-1.373L60.2,8.273l-47.061-6A3.074,3.074,0,0,0,10.012,3.947Z" transform="translate(1405.773 5887.752)" fill="#c49525"/>
  </g>
</svg>
