<svg id="icons_Categories" data-name="icons/Categories" xmlns="http://www.w3.org/2000/svg" xmlns:xlink="http://www.w3.org/1999/xlink" width="26" height="26" viewBox="0 0 26 26">
  <defs>
    <clipPath id="clip-path">
      <path id="Mask" d="M2.291,22A2.294,2.294,0,0,1,0,19.708V2.291A2.294,2.294,0,0,1,2.291,0H19.708A2.294,2.294,0,0,1,22,2.291V19.708A2.294,2.294,0,0,1,19.708,22ZM.917,19.708a1.376,1.376,0,0,0,1.374,1.375H19.708a1.376,1.376,0,0,0,1.375-1.375V5.5H.917Zm0-17.417V4.584H21.083V2.291A1.376,1.376,0,0,0,19.708.917H2.291A1.376,1.376,0,0,0,.917,2.291ZM12.374,19.25a.459.459,0,0,1-.458-.458V14.208a.459.459,0,0,1,.458-.458h6.417a.458.458,0,0,1,.458.458v4.584a.459.459,0,0,1-.458.458Zm.459-.916h5.5V14.667h-5.5Zm-9.167.916a.459.459,0,1,1,0-.917H7.333a.459.459,0,0,1,0,.917Zm0-1.833a.459.459,0,1,1,0-.917H7.333a.459.459,0,0,1,0,.917Zm5.041-1.833h-5.5a.459.459,0,0,1-.458-.459V7.791a.458.458,0,0,1,.458-.458H9.625a.458.458,0,0,1,.458.458v7.333a.459.459,0,0,1-.458.459ZM8.249,11A1.817,1.817,0,0,1,7.7,12.3a3.249,3.249,0,0,1,1.427,2.362h.04V8.25h-5.5v6.416h.039A3.247,3.247,0,0,1,5.132,12.3,1.832,1.832,0,1,1,8.249,11ZM4.62,14.666H8.213a2,2,0,0,0-1.8-1.833A2,2,0,0,0,4.62,14.666ZM5.5,11a.917.917,0,1,0,.916-.916A.918.918,0,0,0,5.5,11Zm6.874,1.833a.459.459,0,0,1-.458-.458V7.791a.459.459,0,0,1,.458-.458h6.417a.458.458,0,0,1,.458.458v4.584a.458.458,0,0,1-.458.458Zm.459-.916h5.5V8.25h-5.5ZM8.249,2.75a.917.917,0,1,1,.917.916A.918.918,0,0,1,8.249,2.75ZM5.5,2.75a.917.917,0,1,1,.917.916A.918.918,0,0,1,5.5,2.75Zm-2.75,0a.917.917,0,1,1,.917.916A.918.918,0,0,1,2.75,2.75Z" transform="translate(0)" fill="#060101"/>
    </clipPath>
  </defs>
  <g id="color_000000" data-name="color/#000000" transform="translate(2 2)">
    <path id="Mask-2" data-name="Mask" d="M2.291,22A2.294,2.294,0,0,1,0,19.708V2.291A2.294,2.294,0,0,1,2.291,0H19.708A2.294,2.294,0,0,1,22,2.291V19.708A2.294,2.294,0,0,1,19.708,22ZM.917,19.708a1.376,1.376,0,0,0,1.374,1.375H19.708a1.376,1.376,0,0,0,1.375-1.375V5.5H.917Zm0-17.417V4.584H21.083V2.291A1.376,1.376,0,0,0,19.708.917H2.291A1.376,1.376,0,0,0,.917,2.291ZM12.374,19.25a.459.459,0,0,1-.458-.458V14.208a.459.459,0,0,1,.458-.458h6.417a.458.458,0,0,1,.458.458v4.584a.459.459,0,0,1-.458.458Zm.459-.916h5.5V14.667h-5.5Zm-9.167.916a.459.459,0,1,1,0-.917H7.333a.459.459,0,0,1,0,.917Zm0-1.833a.459.459,0,1,1,0-.917H7.333a.459.459,0,0,1,0,.917Zm5.041-1.833h-5.5a.459.459,0,0,1-.458-.459V7.791a.458.458,0,0,1,.458-.458H9.625a.458.458,0,0,1,.458.458v7.333a.459.459,0,0,1-.458.459ZM8.249,11A1.817,1.817,0,0,1,7.7,12.3a3.249,3.249,0,0,1,1.427,2.362h.04V8.25h-5.5v6.416h.039A3.247,3.247,0,0,1,5.132,12.3,1.832,1.832,0,1,1,8.249,11ZM4.62,14.666H8.213a2,2,0,0,0-1.8-1.833A2,2,0,0,0,4.62,14.666ZM5.5,11a.917.917,0,1,0,.916-.916A.918.918,0,0,0,5.5,11Zm6.874,1.833a.459.459,0,0,1-.458-.458V7.791a.459.459,0,0,1,.458-.458h6.417a.458.458,0,0,1,.458.458v4.584a.458.458,0,0,1-.458.458Zm.459-.916h5.5V8.25h-5.5ZM8.249,2.75a.917.917,0,1,1,.917.916A.918.918,0,0,1,8.249,2.75ZM5.5,2.75a.917.917,0,1,1,.917.916A.918.918,0,0,1,5.5,2.75Zm-2.75,0a.917.917,0,1,1,.917.916A.918.918,0,0,1,2.75,2.75Z" transform="translate(0)" fill="#060101"/>
    <g id="color_000000-2" data-name="color/#000000" clip-path="url(#clip-path)">
      <g id="color_000000-3" data-name="color/#000000" transform="translate(-2 -2)">
        <rect id="Rectangle" width="26" height="26" fill="#fff"/>
      </g>
    </g>
  </g>
</svg>
