<svg id="icons_Categories" data-name="icons/Categories" xmlns="http://www.w3.org/2000/svg" xmlns:xlink="http://www.w3.org/1999/xlink" width="26" height="26" viewBox="0 0 26 26">
  <defs>
    <clipPath id="clip-path">
      <path id="Mask" d="M11.5,20a.5.5,0,0,1-.224-.053A7.7,7.7,0,0,1,7,13.062C6.136,13.02,5.317,13,4.5,13h-1A3.5,3.5,0,0,1,0,9.5v-2A3.5,3.5,0,0,1,3.5,4h1A32.251,32.251,0,0,0,20.365.47l.929-.425A.493.493,0,0,1,21.5,0a.5.5,0,0,1,.272.08A.5.5,0,0,1,22,.5V6a2,2,0,0,1,2,2V9a2,2,0,0,1-2,2v5.5a.5.5,0,0,1-.5.5.506.506,0,0,1-.207-.045l-.923-.423A31.255,31.255,0,0,0,8.007,13.123a6.71,6.71,0,0,0,3.717,5.93A.5.5,0,0,1,11.5,20ZM21,1.279l-.217.1A32.015,32.015,0,0,1,8,4.881v7.239a32.027,32.027,0,0,1,12.788,3.5l.212.1V1.279ZM3.5,5A2.5,2.5,0,0,0,1,7.5v2A2.5,2.5,0,0,0,3.5,12h1c.821,0,1.639.02,2.5.061V4.939C6.132,4.981,5.314,5,4.5,5ZM22,7v3a1,1,0,0,0,1-1V8A1,1,0,0,0,22,7Z" transform="translate(0 0)" fill="#060101"/>
    </clipPath>
  </defs>
  <g id="color_000000" data-name="color/#000000" transform="translate(1 3)">
    <path id="Mask-2" data-name="Mask" d="M11.5,20a.5.5,0,0,1-.224-.053A7.7,7.7,0,0,1,7,13.062C6.136,13.02,5.317,13,4.5,13h-1A3.5,3.5,0,0,1,0,9.5v-2A3.5,3.5,0,0,1,3.5,4h1A32.251,32.251,0,0,0,20.365.47l.929-.425A.493.493,0,0,1,21.5,0a.5.5,0,0,1,.272.08A.5.5,0,0,1,22,.5V6a2,2,0,0,1,2,2V9a2,2,0,0,1-2,2v5.5a.5.5,0,0,1-.5.5.506.506,0,0,1-.207-.045l-.923-.423A31.255,31.255,0,0,0,8.007,13.123a6.71,6.71,0,0,0,3.717,5.93A.5.5,0,0,1,11.5,20ZM21,1.279l-.217.1A32.015,32.015,0,0,1,8,4.881v7.239a32.027,32.027,0,0,1,12.788,3.5l.212.1V1.279ZM3.5,5A2.5,2.5,0,0,0,1,7.5v2A2.5,2.5,0,0,0,3.5,12h1c.821,0,1.639.02,2.5.061V4.939C6.132,4.981,5.314,5,4.5,5ZM22,7v3a1,1,0,0,0,1-1V8A1,1,0,0,0,22,7Z" transform="translate(0 0)" fill="#060101"/>
    <g id="color_000000-2" data-name="color/#000000" clip-path="url(#clip-path)">
      <g id="color_000000-3" data-name="color/#000000" transform="translate(-1 -3)">
        <rect id="Rectangle" width="26" height="26" fill="#fff"/>
      </g>
    </g>
  </g>
</svg>
