<svg id="icons_Instagram" data-name="icons/Instagram" xmlns="http://www.w3.org/2000/svg" xmlns:xlink="http://www.w3.org/1999/xlink" width="42" height="42" viewBox="0 0 26 26">
  <defs>
    <clipPath id="clip-path">
      <path id="Mask" d="M12,24A12,12,0,1,1,24,12,12.014,12.014,0,0,1,12,24ZM8.912,5.1A3.816,3.816,0,0,0,5.1,8.912v6.175A3.817,3.817,0,0,0,8.912,18.9h6.176A3.817,3.817,0,0,0,18.9,15.087V8.912A3.816,3.816,0,0,0,15.088,5.1Zm6.176,12.946H8.912a2.963,2.963,0,0,1-2.959-2.959V8.912A2.963,2.963,0,0,1,8.912,5.953h6.176a2.963,2.963,0,0,1,2.959,2.959v6.175A2.963,2.963,0,0,1,15.088,18.046Zm-3.18-9.7a3.641,3.641,0,1,0,3.641,3.641A3.646,3.646,0,0,0,11.908,8.341Zm4.138-1.076a.924.924,0,1,0,.924.924A.926.926,0,0,0,16.046,7.266Zm-4.138,7.5A2.788,2.788,0,1,1,14.7,11.982,2.792,2.792,0,0,1,11.908,14.77Z" transform="translate(1 1)" fill="none"/>
    </clipPath>
  </defs>
  <g id="グループ_4" data-name="グループ 4">
    <path id="Mask-2" data-name="Mask" d="M12,24A12,12,0,1,1,24,12,12.014,12.014,0,0,1,12,24ZM8.912,5.1A3.816,3.816,0,0,0,5.1,8.912v6.175A3.817,3.817,0,0,0,8.912,18.9h6.176A3.817,3.817,0,0,0,18.9,15.087V8.912A3.816,3.816,0,0,0,15.088,5.1Zm6.176,12.946H8.912a2.963,2.963,0,0,1-2.959-2.959V8.912A2.963,2.963,0,0,1,8.912,5.953h6.176a2.963,2.963,0,0,1,2.959,2.959v6.175A2.963,2.963,0,0,1,15.088,18.046Zm-3.18-9.7a3.641,3.641,0,1,0,3.641,3.641A3.646,3.646,0,0,0,11.908,8.341Zm4.138-1.076a.924.924,0,1,0,.924.924A.926.926,0,0,0,16.046,7.266Zm-4.138,7.5A2.788,2.788,0,1,1,14.7,11.982,2.792,2.792,0,0,1,11.908,14.77Z" transform="translate(1 1)" fill="none"/>
    <g id="マスクグループ_13" data-name="マスクグループ 13" clip-path="url(#clip-path)">
      <g id="color_000000" data-name="color/#000000" transform="translate(0)">
        <rect id="Rectangle" width="42" height="42" fill="#27b291"/>
      </g>
    </g>
  </g>
</svg>
