<svg id="icons_Categories" data-name="icons/Categories" xmlns="http://www.w3.org/2000/svg" xmlns:xlink="http://www.w3.org/1999/xlink" width="26" height="26" viewBox="0 0 26 26">
  <defs>
    <clipPath id="clip-path">
      <path id="Mask" d="M.5,23.17a.491.491,0,0,1-.354-.146.5.5,0,0,1-.124-.5l2-6.5a.031.031,0,0,1,0-.008.031.031,0,0,0,0-.009.506.506,0,0,1,.115-.189l12-12,1.5-1.5L17.232.732a2.5,2.5,0,0,1,3.535,0L22.44,2.4a2.505,2.505,0,0,1,0,3.535L19.354,9.024l-12,12a.479.479,0,0,1-.191.114l-.007,0-.007,0-6.5,2A.488.488,0,0,1,.5,23.17Zm1.174-2.618-.418,1.363L2.618,21.5Zm1.059-3.441-.726,2.36L3.7,21.163l2.361-.726-.413-.412A.5.5,0,0,1,5.5,19.67v-2h-2a.5.5,0,0,1-.354-.146ZM16.751,7.128h0L6.5,17.377v2.086l.5.5L18.293,8.671,16.751,7.128ZM14.5,4.878h0L3.208,16.17l.5.5H5.793l10.25-10.25L14.5,4.878Zm1.5-1.5h0l-.793.793L19,7.963l.793-.793L16,3.378ZM19,1a1.49,1.49,0,0,0-1.06.437L16.708,2.67,20.5,6.464l1.232-1.232a1.506,1.506,0,0,0,0-2.122L20.06,1.438A1.49,1.49,0,0,0,19,1Z" transform="translate(0 0)" fill="#060101"/>
    </clipPath>
  </defs>
  <g id="color_000000" data-name="color/#000000" transform="translate(1 1)">
    <path id="Mask-2" data-name="Mask" d="M.5,23.17a.491.491,0,0,1-.354-.146.5.5,0,0,1-.124-.5l2-6.5a.031.031,0,0,1,0-.008.031.031,0,0,0,0-.009.506.506,0,0,1,.115-.189l12-12,1.5-1.5L17.232.732a2.5,2.5,0,0,1,3.535,0L22.44,2.4a2.505,2.505,0,0,1,0,3.535L19.354,9.024l-12,12a.479.479,0,0,1-.191.114l-.007,0-.007,0-6.5,2A.488.488,0,0,1,.5,23.17Zm1.174-2.618-.418,1.363L2.618,21.5Zm1.059-3.441-.726,2.36L3.7,21.163l2.361-.726-.413-.412A.5.5,0,0,1,5.5,19.67v-2h-2a.5.5,0,0,1-.354-.146ZM16.751,7.128h0L6.5,17.377v2.086l.5.5L18.293,8.671,16.751,7.128ZM14.5,4.878h0L3.208,16.17l.5.5H5.793l10.25-10.25L14.5,4.878Zm1.5-1.5h0l-.793.793L19,7.963l.793-.793L16,3.378ZM19,1a1.49,1.49,0,0,0-1.06.437L16.708,2.67,20.5,6.464l1.232-1.232a1.506,1.506,0,0,0,0-2.122L20.06,1.438A1.49,1.49,0,0,0,19,1Z" transform="translate(0 0)" fill="#060101"/>
    <g id="color_000000-2" data-name="color/#000000" clip-path="url(#clip-path)">
      <g id="color_000000-3" data-name="color/#000000" transform="translate(-1 -1)">
        <rect id="Rectangle" width="26" height="26" fill="#fff"/>
      </g>
    </g>
  </g>
</svg>
