<svg id="icons_Categories" data-name="icons/Categories" xmlns="http://www.w3.org/2000/svg" xmlns:xlink="http://www.w3.org/1999/xlink" width="26" height="26" viewBox="0 0 26 26">
  <defs>
    <clipPath id="clip-path">
      <path id="Mask" d="M11.205,21.41H0V10.205H.026A10.694,10.694,0,1,1,11.2,21.384v.025ZM1,15.222H1V20.41H6.189c-.066-.031-.131-.066-.194-.1-.046-.025-.091-.049-.137-.072L5.787,20.2c-.1-.05-.2-.1-.3-.156-.184-.1-.36-.214-.508-.31l-.091-.056c-.081-.05-.163-.1-.241-.155-.18-.124-.355-.26-.518-.388l-.084-.063c-.061-.046-.124-.093-.183-.143-.242-.2-.476-.414-.7-.633l-.055-.055c-.22-.222-.433-.457-.633-.7-.05-.06-.1-.123-.145-.185l-.061-.081c-.142-.181-.269-.345-.388-.518-.054-.078-.1-.16-.154-.239l-.058-.093c-.1-.151-.209-.327-.31-.508-.057-.1-.109-.2-.16-.3l-.033-.064c-.023-.045-.047-.09-.071-.135C1.067,15.354,1.031,15.289,1,15.222Zm9.7-8.914a4.4,4.4,0,0,1,.5,8.768V20.4A9.7,9.7,0,1,0,1.013,10.205H6.335A4.395,4.395,0,0,1,10.7,6.307Zm-9.679,4.9,0,.052c0,.069.005.141.011.211.013.159.027.3.042.428.022.184.053.365.08.517.024.135.049.275.08.41.04.182.088.358.13.507l.01.035c.033.117.067.237.105.354.055.169.117.332.182.5l.046.119c.031.08.063.163.1.242.068.155.146.309.221.457l.017.033.051.1c.037.076.074.152.114.224.1.169.2.335.3.491L2.581,16c.035.058.072.118.11.174.121.176.249.342.393.525.023.029.046.06.068.09s.054.073.082.108a9.84,9.84,0,0,0,1.283,1.282c.035.029.071.056.106.081s.062.046.092.07c.183.144.349.273.525.393.06.041.123.079.184.116l.1.06c.164.105.326.207.491.3.077.042.158.082.235.12l.092.046c.159.08.324.164.49.238.08.034.162.066.242.1l.119.047c.158.061.327.126.5.182.1.033.211.064.314.093l.076.022c.138.039.32.089.506.13.133.03.265.054.411.081.2.035.367.061.517.079s.278.03.428.041c.058,0,.118.007.175.01l.087,0V15.075a4.41,4.41,0,0,1-3.87-3.87Zm9.679-3.9a3.4,3.4,0,1,0,3.4,3.4A3.4,3.4,0,0,0,10.7,7.307Z" transform="translate(0)" fill="#060101"/>
    </clipPath>
  </defs>
  <g id="color_000000" data-name="color/#000000" transform="translate(2 2)">
    <path id="Mask-2" data-name="Mask" d="M11.205,21.41H0V10.205H.026A10.694,10.694,0,1,1,11.2,21.384v.025ZM1,15.222H1V20.41H6.189c-.066-.031-.131-.066-.194-.1-.046-.025-.091-.049-.137-.072L5.787,20.2c-.1-.05-.2-.1-.3-.156-.184-.1-.36-.214-.508-.31l-.091-.056c-.081-.05-.163-.1-.241-.155-.18-.124-.355-.26-.518-.388l-.084-.063c-.061-.046-.124-.093-.183-.143-.242-.2-.476-.414-.7-.633l-.055-.055c-.22-.222-.433-.457-.633-.7-.05-.06-.1-.123-.145-.185l-.061-.081c-.142-.181-.269-.345-.388-.518-.054-.078-.1-.16-.154-.239l-.058-.093c-.1-.151-.209-.327-.31-.508-.057-.1-.109-.2-.16-.3l-.033-.064c-.023-.045-.047-.09-.071-.135C1.067,15.354,1.031,15.289,1,15.222Zm9.7-8.914a4.4,4.4,0,0,1,.5,8.768V20.4A9.7,9.7,0,1,0,1.013,10.205H6.335A4.395,4.395,0,0,1,10.7,6.307Zm-9.679,4.9,0,.052c0,.069.005.141.011.211.013.159.027.3.042.428.022.184.053.365.08.517.024.135.049.275.08.41.04.182.088.358.13.507l.01.035c.033.117.067.237.105.354.055.169.117.332.182.5l.046.119c.031.08.063.163.1.242.068.155.146.309.221.457l.017.033.051.1c.037.076.074.152.114.224.1.169.2.335.3.491L2.581,16c.035.058.072.118.11.174.121.176.249.342.393.525.023.029.046.06.068.09s.054.073.082.108a9.84,9.84,0,0,0,1.283,1.282c.035.029.071.056.106.081s.062.046.092.07c.183.144.349.273.525.393.06.041.123.079.184.116l.1.06c.164.105.326.207.491.3.077.042.158.082.235.12l.092.046c.159.08.324.164.49.238.08.034.162.066.242.1l.119.047c.158.061.327.126.5.182.1.033.211.064.314.093l.076.022c.138.039.32.089.506.13.133.03.265.054.411.081.2.035.367.061.517.079s.278.03.428.041c.058,0,.118.007.175.01l.087,0V15.075a4.41,4.41,0,0,1-3.87-3.87Zm9.679-3.9a3.4,3.4,0,1,0,3.4,3.4A3.4,3.4,0,0,0,10.7,7.307Z" transform="translate(0)" fill="#060101"/>
    <g id="color_000000-2" data-name="color/#000000" clip-path="url(#clip-path)">
      <g id="color_000000-3" data-name="color/#000000" transform="translate(-2 -2)">
        <rect id="Rectangle" width="26" height="26" fill="#fff"/>
      </g>
    </g>
  </g>
</svg>
