<svg id="icons_Categories" data-name="icons/Categories" xmlns="http://www.w3.org/2000/svg" xmlns:xlink="http://www.w3.org/1999/xlink" width="26" height="26" viewBox="0 0 26 26">
  <defs>
    <clipPath id="clip-path">
      <path id="Mask" d="M.5,23.955a.5.5,0,0,1-.5-.5v-21a.5.5,0,0,1,.5-.5h14a.5.5,0,1,1,0,1H1v20H19v-11.5a.5.5,0,1,1,1,0v12a.5.5,0,0,1-.5.5Zm7.02-7.475a.5.5,0,0,1-.105-.55l2.12-4.951a.527.527,0,0,1,.107-.156l8.839-8.841,0,0L20.321.146a.5.5,0,0,1,.707,0l2.827,2.83A.492.492,0,0,1,24,3.326a.5.5,0,0,1-.148.355L22.022,5.516,13.178,14.36a.5.5,0,0,1-.158.106L8.072,16.588a.525.525,0,0,1-.2.041A.5.5,0,0,1,7.52,16.481Zm1.306-1.305,3.121-1.337-1.783-1.785Zm1.876-4L12.824,13.3,20.96,5.164,18.839,3.043Zm8.842-8.842,2.121,2.12,1.128-1.129L20.675,1.207Z" transform="translate(0 0)" fill="#060101"/>
    </clipPath>
  </defs>
  <g id="color_000000" data-name="color/#000000" transform="translate(1 1)">
    <path id="Mask-2" data-name="Mask" d="M.5,23.955a.5.5,0,0,1-.5-.5v-21a.5.5,0,0,1,.5-.5h14a.5.5,0,1,1,0,1H1v20H19v-11.5a.5.5,0,1,1,1,0v12a.5.5,0,0,1-.5.5Zm7.02-7.475a.5.5,0,0,1-.105-.55l2.12-4.951a.527.527,0,0,1,.107-.156l8.839-8.841,0,0L20.321.146a.5.5,0,0,1,.707,0l2.827,2.83A.492.492,0,0,1,24,3.326a.5.5,0,0,1-.148.355L22.022,5.516,13.178,14.36a.5.5,0,0,1-.158.106L8.072,16.588a.525.525,0,0,1-.2.041A.5.5,0,0,1,7.52,16.481Zm1.306-1.305,3.121-1.337-1.783-1.785Zm1.876-4L12.824,13.3,20.96,5.164,18.839,3.043Zm8.842-8.842,2.121,2.12,1.128-1.129L20.675,1.207Z" transform="translate(0 0)" fill="#060101"/>
    <g id="color_000000-2" data-name="color/#000000" clip-path="url(#clip-path)">
      <g id="color_000000-3" data-name="color/#000000" transform="translate(-1 -1)">
        <rect id="Rectangle" width="26" height="26" fill="#fff"/>
      </g>
    </g>
  </g>
</svg>
