<svg id="icons_Twitter" data-name="icons/Twitter" xmlns="http://www.w3.org/2000/svg" xmlns:xlink="http://www.w3.org/1999/xlink" width="26" height="26" viewBox="0 0 26 26">
  <defs>
    <clipPath id="clip-path">
      <path id="Mask" d="M12,24A12,12,0,1,1,24,12,12.014,12.014,0,0,1,12,24ZM5.746,16.031h0a7.474,7.474,0,0,0,4.036,1.183,7.173,7.173,0,0,0,5.559-2.441A7.749,7.749,0,0,0,17.27,9.725c0-.133,0-.242-.008-.34a3.79,3.79,0,0,0,.858-1.317,6.592,6.592,0,0,1,.381-.715c-.005,0-1.352.146-1.95.265a2.632,2.632,0,0,0-4.485,2.4A7.487,7.487,0,0,1,6.64,7.269a2.632,2.632,0,0,0,.814,3.514,2.644,2.644,0,0,1-1.192-.328v.034a2.636,2.636,0,0,0,2.11,2.579,2.586,2.586,0,0,1-.689.092,2.733,2.733,0,0,1-.5-.046,2.634,2.634,0,0,0,2.458,1.828,5.247,5.247,0,0,1-3.267,1.126A5.428,5.428,0,0,1,5.746,16.031Z" transform="translate(1 1)" fill="#231f20"/>
    </clipPath>
  </defs>
  <g id="グループ_3" data-name="グループ 3">
    <path id="Mask-2" data-name="Mask" d="M12,24A12,12,0,1,1,24,12,12.014,12.014,0,0,1,12,24ZM5.746,16.031h0a7.474,7.474,0,0,0,4.036,1.183,7.173,7.173,0,0,0,5.559-2.441A7.749,7.749,0,0,0,17.27,9.725c0-.133,0-.242-.008-.34a3.79,3.79,0,0,0,.858-1.317,6.592,6.592,0,0,1,.381-.715c-.005,0-1.352.146-1.95.265a2.632,2.632,0,0,0-4.485,2.4A7.487,7.487,0,0,1,6.64,7.269a2.632,2.632,0,0,0,.814,3.514,2.644,2.644,0,0,1-1.192-.328v.034a2.636,2.636,0,0,0,2.11,2.579,2.586,2.586,0,0,1-.689.092,2.733,2.733,0,0,1-.5-.046,2.634,2.634,0,0,0,2.458,1.828,5.247,5.247,0,0,1-3.267,1.126A5.428,5.428,0,0,1,5.746,16.031Z" transform="translate(1 1)" fill="#231f20"/>
    <g id="マスクグループ_12" data-name="マスクグループ 12" clip-path="url(#clip-path)">
      <g id="color_000000" data-name="color/#000000">
        <rect id="Rectangle" width="26" height="26"/>
      </g>
    </g>
  </g>
</svg>
