<svg id="logo_happyprinters" data-name="logo/happyprinters" xmlns="http://www.w3.org/2000/svg" width="196.181" height="26" viewBox="0 0 196.181 26">
  <g id="logo_happyprinters-2" data-name="logo/happyprinters" transform="translate(0.392 0.52)">
    <path id="Fill_1" data-name="Fill 1" d="M31.651,19.869H.7a.7.7,0,0,1-.7-.7V9.441a.7.7,0,0,1,.249-.534L10.568.168A.694.694,0,0,1,11.022,0a.718.718,0,0,1,.3.063A.705.705,0,0,1,11.724.7V7.927L20.88.168A.7.7,0,0,1,22.039.7V7.927L31.2.168A.709.709,0,0,1,31.654,0a.718.718,0,0,1,.295.063A.7.7,0,0,1,32.354.7V19.17A.7.7,0,0,1,31.651,19.869ZM10.317,2.216,1.407,9.765v8.7H30.948V2.216l-9.159,7.76a.709.709,0,0,1-.455.166.67.67,0,0,1-.293-.067.7.7,0,0,1-.41-.635V2.218L11.476,9.975a.711.711,0,0,1-.456.166.666.666,0,0,1-.293-.067.7.7,0,0,1-.41-.635Z" transform="translate(0 0)"/>
    <path id="Fill_4" data-name="Fill 4" d="M3.153,12.686h.762a1.732,1.732,0,0,1,.942.19.737.737,0,0,1,.274.646.839.839,0,0,1-.241.69,1.935,1.935,0,0,1-1.047.186h-3a.84.84,0,0,1-.632-.218A.916.916,0,0,1,0,13.522a.776.776,0,0,1,.246-.654,1.658,1.658,0,0,1,.93-.183h.205V1.749H1.2a1.621,1.621,0,0,1-.938-.2A.8.8,0,0,1,0,.874.906.906,0,0,1,.213.212.885.885,0,0,1,.866,0H3.734A2.2,2.2,0,0,1,4.888.189a.829.829,0,0,1,.244.685.739.739,0,0,1-.307.68,2.388,2.388,0,0,1-1.162.2h-.51V5.97h6.915V1.749H9.3a1.575,1.575,0,0,1-.927-.206.784.784,0,0,1-.28-.669A.808.808,0,0,1,8.346.189,2.557,2.557,0,0,1,9.6,0h2.774A.822.822,0,0,1,13,.218a.914.914,0,0,1,.211.655.823.823,0,0,1-.238.671,1.315,1.315,0,0,1-.85.2h-.276V12.686h.183a1.661,1.661,0,0,1,.933.184.784.784,0,0,1,.247.652.843.843,0,0,1-.238.69,2.083,2.083,0,0,1-1.1.186H9.512a2.331,2.331,0,0,1-1.171-.186.826.826,0,0,1-.25-.69.7.7,0,0,1,.294-.654,2.357,2.357,0,0,1,1.127-.183h.556V7.638H3.153Z" transform="translate(38.056 5.279)"/>
    <path id="Fill_6" data-name="Fill 6" d="M3.776,11.815A3.768,3.768,0,0,1,1.043,10.8,3.473,3.473,0,0,1,0,8.182,3.541,3.541,0,0,1,1.381,5.209,6.292,6.292,0,0,1,5.264,4.151,9.708,9.708,0,0,1,6.6,4.245,10.176,10.176,0,0,1,7.97,4.53V4.444a2.92,2.92,0,0,0-.626-2.062A2.552,2.552,0,0,0,5.4,1.711a4.743,4.743,0,0,0-1.979.51,4.573,4.573,0,0,1-1.442.513.666.666,0,0,1-.548-.285,1.18,1.18,0,0,1-.216-.738c0-.479.412-.875,1.258-1.211A8.858,8.858,0,0,1,5.686,0,3.968,3.968,0,0,1,8.709,1.087,4.545,4.545,0,0,1,9.733,4.3V9.8h.558a2.157,2.157,0,0,1,1.081.181.719.719,0,0,1,.27.655.872.872,0,0,1-.224.655.952.952,0,0,1-.684.218H8.946a.693.693,0,0,1-.521-.209,1.064,1.064,0,0,1-.271-.591L8.061,9.97A6.941,6.941,0,0,1,6.03,11.341,5.751,5.751,0,0,1,3.776,11.815ZM5.6,5.716a5.241,5.241,0,0,0-2.765.633,1.929,1.929,0,0,0-1.011,1.7,1.719,1.719,0,0,0,.631,1.36,2.421,2.421,0,0,0,1.609.533A4.832,4.832,0,0,0,6.74,9.135c.816-.537,1.23-1.1,1.23-1.682V6.14a8.17,8.17,0,0,0-1.21-.318A6.633,6.633,0,0,0,5.6,5.716Z" transform="translate(52.961 8.167)"/>
    <path id="Fill_8" data-name="Fill 8" d="M4.069,16.083H.921a.959.959,0,0,1-.684-.22A.83.83,0,0,1,0,15.219a.752.752,0,0,1,.291-.679,2.159,2.159,0,0,1,1.079-.192h.211V1.747H1.37a2.062,2.062,0,0,1-1.079-.2A.747.747,0,0,1,0,.875.816.816,0,0,1,.236.237.974.974,0,0,1,.921.025H2.652a.778.778,0,0,1,.492.12A.443.443,0,0,1,3.3.522V1.7A5.268,5.268,0,0,1,5.011.426,4.888,4.888,0,0,1,7.029,0a5.017,5.017,0,0,1,3.819,1.651,5.858,5.858,0,0,1,1.539,4.143,5.5,5.5,0,0,1-1.459,3.925,4.893,4.893,0,0,1-3.715,1.546,5.411,5.411,0,0,1-2.22-.454A4.552,4.552,0,0,1,3.3,9.508v4.841h.863a.883.883,0,0,1,.648.215.914.914,0,0,1,.218.655.868.868,0,0,1-.215.671A1.106,1.106,0,0,1,4.069,16.083ZM6.823,1.869A3.4,3.4,0,0,0,4.251,2.938a3.866,3.866,0,0,0-1,2.731,3.894,3.894,0,0,0,1,2.743A3.379,3.379,0,0,0,6.823,9.48,3.443,3.443,0,0,0,9.417,8.419a3.833,3.833,0,0,0,1.01-2.75A3.8,3.8,0,0,0,9.412,2.947,3.434,3.434,0,0,0,6.823,1.869Z" transform="translate(65.794 8.436)"/>
    <path id="Fill_10" data-name="Fill 10" d="M4.066,16.083H.924a.963.963,0,0,1-.689-.22A.83.83,0,0,1,0,15.219a.757.757,0,0,1,.291-.679,2.143,2.143,0,0,1,1.076-.192h.216V1.747H1.367a2.077,2.077,0,0,1-1.076-.2A.752.752,0,0,1,0,.875.817.817,0,0,1,.235.237.979.979,0,0,1,.924.025H2.652a.771.771,0,0,1,.492.12A.44.44,0,0,1,3.3.522V1.7A5.222,5.222,0,0,1,5.013.426,4.884,4.884,0,0,1,7.029,0a5.017,5.017,0,0,1,3.819,1.651,5.876,5.876,0,0,1,1.539,4.143,5.511,5.511,0,0,1-1.456,3.925,4.9,4.9,0,0,1-3.716,1.546,5.4,5.4,0,0,1-2.22-.454,4.563,4.563,0,0,1-1.7-1.3v4.841h.866a.872.872,0,0,1,.646.215.9.9,0,0,1,.216.655.893.893,0,0,1-.206.671A1.148,1.148,0,0,1,4.066,16.083ZM6.826,1.869A3.393,3.393,0,0,0,4.254,2.938a3.85,3.85,0,0,0-1,2.731,3.894,3.894,0,0,0,.994,2.743A3.376,3.376,0,0,0,6.826,9.48,3.435,3.435,0,0,0,9.417,8.419a3.839,3.839,0,0,0,1.013-2.75A3.792,3.792,0,0,0,9.409,2.947,3.419,3.419,0,0,0,6.826,1.869Z" transform="translate(79.552 8.436)"/>
    <path id="Fill_12" data-name="Fill 12" d="M5.483,14.322h.488a2.287,2.287,0,0,1,1.124.189.742.742,0,0,1,.3.683.832.832,0,0,1-.235.643.94.94,0,0,1-.673.222H2.679a1.085,1.085,0,0,1-.742-.2.861.861,0,0,1-.216-.669.889.889,0,0,1,.222-.657.926.926,0,0,1,.667-.215H3.637l1.846-3.87L1.307,1.722A1.909,1.909,0,0,1,.282,1.527.759.759,0,0,1,0,.85.821.821,0,0,1,.232.212.938.938,0,0,1,.913,0H4.08a1.354,1.354,0,0,1,.853.186A.838.838,0,0,1,5.151.85a.759.759,0,0,1-.283.677,1.993,1.993,0,0,1-1.047.195H3.4L6.485,8.41,9.622,1.722H9.176A2.116,2.116,0,0,1,8.1,1.527.761.761,0,0,1,7.8.85.855.855,0,0,1,8.017.186,1.4,1.4,0,0,1,8.885,0H11.69a.947.947,0,0,1,.687.212A.835.835,0,0,1,12.6.85a.776.776,0,0,1-.252.652,1.58,1.58,0,0,1-.886.22Z" transform="translate(92.423 8.462)"/>
    <path id="Fill_14" data-name="Fill 14" d="M.865,6.911A.845.845,0,0,1,.207,6.6.922.922,0,0,1,.3,5.329L6.113.214a.844.844,0,0,1,1.22.1.923.923,0,0,1-.1,1.267L1.428,6.7a.831.831,0,0,1-.564.212" transform="translate(122.243 8.597)"/>
    <path id="Fill_16" data-name="Fill 16" d="M.867,4.127A.85.85,0,0,1,.2,3.811a.92.92,0,0,1,.1-1.267L2.951.214a.846.846,0,0,1,1.223.1.916.916,0,0,1-.1,1.264L1.426,3.914a.838.838,0,0,1-.559.212" transform="translate(131.819 2.96)"/>
    <path id="Fill_18" data-name="Fill 18" d="M6.034,14.366H.755a.718.718,0,0,1-.562-.223A.957.957,0,0,1,0,13.493a.9.9,0,0,1,.186-.633.775.775,0,0,1,.589-.2H2.166V1.747H1.415A2.242,2.242,0,0,1,.23,1.557.827.827,0,0,1,0,.875.943.943,0,0,1,.193.231.687.687,0,0,1,.755,0h5A6.123,6.123,0,0,1,9.74,1.139,4.167,4.167,0,0,1,11.1,4.5,4.122,4.122,0,0,1,9.751,7.837a6.148,6.148,0,0,1-4,1.125H3.866v3.7H6.123a1.151,1.151,0,0,1,.762.2.765.765,0,0,1,.242.633.852.852,0,0,1-.23.679A1.371,1.371,0,0,1,6.034,14.366ZM3.866,1.747v5.62H5.882a3.906,3.906,0,0,0,2.538-.7,2.582,2.582,0,0,0,.84-2.119,2.569,2.569,0,0,0-.848-2.093,3.89,3.89,0,0,0-2.53-.7Z" transform="translate(107.49 5.279)"/>
    <path id="Fill_20" data-name="Fill 20" d="M4.254,9.482H6.391a.842.842,0,0,1,.623.2.854.854,0,0,1,.2.633A.96.96,0,0,1,7.025,11a1,1,0,0,1-.7.189H.852a.868.868,0,0,1-.636-.214A.928.928,0,0,1,0,10.315a.833.833,0,0,1,.222-.633.988.988,0,0,1,.686-.2H2.64V1.718H1.908A2.748,2.748,0,0,1,.6,1.529.789.789,0,0,1,.343.85.863.863,0,0,1,.551.212.858.858,0,0,1,1.195,0h2.46A.639.639,0,0,1,4.1.128a.443.443,0,0,1,.157.367V9.482Z" transform="translate(119.567 8.456)"/>
    <path id="Fill_22" data-name="Fill 22" d="M.871,6.911A.856.856,0,0,1,.206,6.6a.922.922,0,0,1,.1-1.267L6.113.214a.845.845,0,0,1,1.221.1.925.925,0,0,1-.1,1.267L1.425,6.7a.808.808,0,0,1-.554.212" transform="translate(177.903 8.597)"/>
    <path id="Fill_24" data-name="Fill 24" d="M4.251,9.482H6.388a.853.853,0,0,1,.626.2.874.874,0,0,1,.2.633A.96.96,0,0,1,7.023,11a1,1,0,0,1-.7.189H.853a.89.89,0,0,1-.64-.214A.942.942,0,0,1,0,10.315a.833.833,0,0,1,.222-.633,1,1,0,0,1,.686-.2H2.64V1.718H1.908A2.74,2.74,0,0,1,.6,1.529.786.786,0,0,1,.34.85.839.839,0,0,1,.553.212.852.852,0,0,1,1.195,0H3.656A.648.648,0,0,1,4.1.128a.451.451,0,0,1,.153.367V9.482Z" transform="translate(175.229 8.456)"/>
    <path id="Fill_26" data-name="Fill 26" d="M4.545,9.482H6.563a.84.84,0,0,1,.623.2.854.854,0,0,1,.2.633A.966.966,0,0,1,7.2,11a.992.992,0,0,1-.7.189H.866a.894.894,0,0,1-.65-.214A.928.928,0,0,1,0,10.315a.834.834,0,0,1,.227-.633,1.014,1.014,0,0,1,.684-.2H2.9V1.718h-1.1a.9.9,0,0,1-.675-.226A.848.848,0,0,1,.9.85.84.84,0,0,1,1.118.212.871.871,0,0,1,1.764,0H3.919a.727.727,0,0,1,.457.134.448.448,0,0,1,.169.36Z" transform="translate(130.753 8.456)"/>
    <path id="Fill_28" data-name="Fill 28" d="M1.509,9.775V2.011H1.3a1.9,1.9,0,0,1-1.021-.2A.765.765,0,0,1,0,1.143.824.824,0,0,1,.23.495a1.093,1.093,0,0,1,.742-.2H2.535a.729.729,0,0,1,.459.134.455.455,0,0,1,.161.36v.828A5.818,5.818,0,0,1,4.73.395,3.582,3.582,0,0,1,6.35,0,3.19,3.19,0,0,1,8.943,1.143a4.8,4.8,0,0,1,.944,3.143V9.775H10.4a1.219,1.219,0,0,1,.787.2.777.777,0,0,1,.236.633.806.806,0,0,1-.254.674,1.6,1.6,0,0,1-.913.2H7.847a1.473,1.473,0,0,1-.9-.183.93.93,0,0,1-.2-.691.777.777,0,0,1,.229-.649,1.452,1.452,0,0,1,.866-.184h.38V4.738a3.5,3.5,0,0,0-.579-2.167,2,2,0,0,0-1.677-.739A2.726,2.726,0,0,0,4,2.666a2.778,2.778,0,0,0-.85,2.072V9.775h.382a1.471,1.471,0,0,1,.88.184.768.768,0,0,1,.233.649.922.922,0,0,1-.2.691,1.6,1.6,0,0,1-.957.183H.917a.956.956,0,0,1-.673-.214.873.873,0,0,1-.221-.66.752.752,0,0,1,.255-.66,1.955,1.955,0,0,1,1-.173Z" transform="translate(139.8 8.163)"/>
    <path id="Fill_30" data-name="Fill 30" d="M8.914,2.864a1.207,1.207,0,0,1,.772.206.81.81,0,0,1,.241.657A.822.822,0,0,1,9.7,4.36a.956.956,0,0,1-.679.217H4.36V8.614c0,1.326-.056,2.2.246,2.619a1.42,1.42,0,0,0,1.359.626,4.922,4.922,0,0,0,2.14-.641,6.481,6.481,0,0,1,1.7-.643.659.659,0,0,1,.515.243.874.874,0,0,1,.21.594,1,1,0,0,1-.263.7,2.577,2.577,0,0,1-.9.579,12.165,12.165,0,0,1-1.908.69,5,5,0,0,1-1.378.215,3.652,3.652,0,0,1-1.912-.456,2.832,2.832,0,0,1-1.278-1.351A14.347,14.347,0,0,1,2.7,8.99V4.577H.863A.91.91,0,0,1,.2,4.371.867.867,0,0,1,0,3.727a.747.747,0,0,1,.279-.682,2.549,2.549,0,0,1,1.2-.181H2.7V1.019A1.205,1.205,0,0,1,2.9.25.751.751,0,0,1,3.519,0a.7.7,0,0,1,.658.3A3.135,3.135,0,0,1,4.36,1.682V2.864Z" transform="translate(151.48 6.268)"/>
    <path id="Fill_32" data-name="Fill 32" d="M5.334,11.8a5.009,5.009,0,0,1-3.876-1.593A6.038,6.038,0,0,1,0,5.992,6.13,6.13,0,0,1,1.544,1.658,5.23,5.23,0,0,1,5.556,0,4.955,4.955,0,0,1,9.278,1.55,5.249,5.249,0,0,1,10.755,5.3a1.254,1.254,0,0,1-.253.914,2.355,2.355,0,0,1-1.349.227H1.848A3.974,3.974,0,0,0,2.887,9.137a3.532,3.532,0,0,0,2.6.95A6,6,0,0,0,8.2,9.331a6.836,6.836,0,0,1,1.771-.757A.7.7,0,0,1,10.5,8.8a.814.814,0,0,1,.21.568,1.027,1.027,0,0,1-.221.644,2.455,2.455,0,0,1-.714.574,9.9,9.9,0,0,1-2.195.9A8.494,8.494,0,0,1,5.334,11.8ZM5.556,1.658A3.493,3.493,0,0,0,3.178,2.5,4.1,4.1,0,0,0,1.905,4.858H8.822A3.712,3.712,0,0,0,7.761,2.533,3.038,3.038,0,0,0,5.556,1.658Z" transform="translate(163.158 8.14)"/>
    <path id="Fill_34" data-name="Fill 34" d="M0,10.608V8.457a1.277,1.277,0,0,1,.182-.768.675.675,0,0,1,.573-.228c.3,0,.529.228.7.679a3.224,3.224,0,0,0,.312.612A3.1,3.1,0,0,0,3.108,9.8a4.82,4.82,0,0,0,1.957.4A2.957,2.957,0,0,0,6.9,9.675a1.63,1.63,0,0,0,.7-1.368,1.362,1.362,0,0,0-.556-1.225,3.7,3.7,0,0,0-1.91-.363H4.535a5.568,5.568,0,0,1-3.358-.856,2.916,2.916,0,0,1-1.159-2.5A2.979,2.979,0,0,1,1.151.885,5.014,5.014,0,0,1,4.319,0a5.788,5.788,0,0,1,1.7.265q.864.255.9.254A1.078,1.078,0,0,0,7.377.287,1.142,1.142,0,0,1,8.038.048a.585.585,0,0,1,.54.3,1.811,1.811,0,0,1,.178.911V2.682a1.912,1.912,0,0,1-.169.925.6.6,0,0,1-.55.281c-.218,0-.49-.2-.8-.616-.224-.285-.409-.5-.548-.644a3.485,3.485,0,0,0-1.223-.849,3.952,3.952,0,0,0-1.52-.264,2.518,2.518,0,0,0-1.636.5A1.576,1.576,0,0,0,1.681,3.3a1.139,1.139,0,0,0,.637,1.089,7.442,7.442,0,0,0,2.746.373,5.55,5.55,0,0,1,3.281.88A3.022,3.022,0,0,1,9.384,8.165a3.264,3.264,0,0,1-1.143,2.61,4.618,4.618,0,0,1-3.087.984,8.254,8.254,0,0,1-1.375-.128q-.756-.129-1.9-.427a4.634,4.634,0,0,1-.653.413,1.031,1.031,0,0,1-.446.142A.654.654,0,0,1,.2,11.464a1.508,1.508,0,0,1-.2-.856" transform="translate(186.405 8.163)"/>
  </g>
</svg>
