<svg xmlns="http://www.w3.org/2000/svg" width="109.898" height="30.638" viewBox="0 0 109.898 30.638">
  <g id="logo_happyfabric" data-name="logo/happyfabric" transform="translate(0.489 0.35)">
    <g id="logo_happyfabric-2" data-name="logo/happyfabric" transform="translate(0 0.138)">
      <path id="Stroke_37" data-name="Stroke 37" d="M0,29.66H108.921V0H0Z" transform="translate(0 0)" fill="none" stroke="#000" stroke-miterlimit="10" stroke-width="0.977"/>
      <path id="Stroke_39" data-name="Stroke 39" d="M.977,1.3V.172" transform="translate(3.522 28.365)" fill="none" stroke="#000" stroke-linecap="round" stroke-miterlimit="10" stroke-width="0.977"/>
      <path id="Stroke_40" data-name="Stroke 40" d="M.977,24.248V0" transform="translate(3.522 2.179)" fill="none" stroke="#000" stroke-linecap="round" stroke-miterlimit="10" stroke-width="0.977" stroke-dasharray="3.022 3.022"/>
      <path id="Stroke_41" data-name="Stroke 41" d="M.977,1.3V.172" transform="translate(3.522 -0.172)" fill="none" stroke="#000" stroke-linecap="round" stroke-miterlimit="10" stroke-width="0.977"/>
      <path id="Stroke_42" data-name="Stroke 42" d="M.977,1.285V.2" transform="translate(103.444 28.375)" fill="none" stroke="#000" stroke-linecap="round" stroke-miterlimit="10" stroke-width="0.977"/>
      <path id="Stroke_43" data-name="Stroke 43" d="M.977,24.315V0" transform="translate(103.444 2.144)" fill="none" stroke="#000" stroke-linecap="round" stroke-miterlimit="10" stroke-width="0.977" stroke-dasharray="3.031 3.031"/>
      <path id="Stroke_44" data-name="Stroke 44" d="M.977,1.285V.2" transform="translate(103.444 -0.198)" fill="none" stroke="#000" stroke-linecap="round" stroke-miterlimit="10" stroke-width="0.977"/>
      <path id="Fill_45" data-name="Fill 45" d="M1.743,1.129H6.8V0H0V12.946H1.743v-6.6H5.4V5.329H1.743Z" transform="translate(57.763 7.992)"/>
      <path id="Fill_46" data-name="Fill 46" d="M2.05,8.582a2.23,2.23,0,0,1-.85-.158,1.932,1.932,0,0,1-.649-.434,1.852,1.852,0,0,1-.408-.652A2.261,2.261,0,0,1,0,6.525,2.2,2.2,0,0,1,.205,5.57a2.634,2.634,0,0,1,.56-.764,4.022,4.022,0,0,1,.826-.6,8.95,8.95,0,0,1,1-.467c.357-.14.725-.264,1.092-.368s.726-.2,1.1-.3V2.559a3.539,3.539,0,0,0-.108-.946A1.65,1.65,0,0,0,4.366.988a1.143,1.143,0,0,0-.487-.34,1.871,1.871,0,0,0-.645-.1,1.674,1.674,0,0,0-.656.107,1.007,1.007,0,0,0-.4.284.987.987,0,0,0-.2.4,2.075,2.075,0,0,0-.052.457,2.634,2.634,0,0,1-.033.414,1.047,1.047,0,0,1-.123.348.691.691,0,0,1-.243.241.742.742,0,0,1-.391.093A.77.77,0,0,1,.8,2.817a.762.762,0,0,1-.263-.2.912.912,0,0,1-.172-.308,1.166,1.166,0,0,1-.06-.384,1.261,1.261,0,0,1,.261-.759,2.289,2.289,0,0,1,.7-.608A3.952,3.952,0,0,1,2.3.149,5.069,5.069,0,0,1,3.532,0,4.9,4.9,0,0,1,4.866.157,2.368,2.368,0,0,1,5.744.6a1.664,1.664,0,0,1,.485.69,2.617,2.617,0,0,1,.149.9V8.4h-1.6V7.276c-.2.158-.381.306-.554.453a4.584,4.584,0,0,1-.589.421,3.115,3.115,0,0,1-.7.311A3.046,3.046,0,0,1,2.05,8.582ZM4.782,3.6c-.255.086-.487.172-.711.262-.241.1-.484.2-.723.326a6.55,6.55,0,0,0-.673.391,3.644,3.644,0,0,0-.562.447,2.092,2.092,0,0,0-.384.506,1.207,1.207,0,0,0-.141.561,1.561,1.561,0,0,0,.108.571,1.653,1.653,0,0,0,.287.475,1.41,1.41,0,0,0,.414.322,1.062,1.062,0,0,0,.487.119,1.722,1.722,0,0,0,.511-.073,2.411,2.411,0,0,0,.468-.2,3.77,3.77,0,0,0,.455-.288c.148-.106.3-.219.465-.348Z" transform="translate(64.309 12.048)"/>
      <path id="Fill_47" data-name="Fill 47" d="M3.069,12.63a5.811,5.811,0,0,1-1.676-.239A3.9,3.9,0,0,1,0,11.647V.46L1.124,0h.463V5.759A2.89,2.89,0,0,1,2.1,5.1a3.954,3.954,0,0,1,.689-.546,3.764,3.764,0,0,1,.775-.371,2.36,2.36,0,0,1,.775-.139,2.836,2.836,0,0,1,1.284.292,3.188,3.188,0,0,1,1.009.789A3.693,3.693,0,0,1,7.293,6.3a4.231,4.231,0,0,1,.239,1.425,5.227,5.227,0,0,1-.161,1.308,5.362,5.362,0,0,1-.446,1.17,4.749,4.749,0,0,1-.7.993,4.563,4.563,0,0,1-.906.768,4.345,4.345,0,0,1-1.065.494A4.011,4.011,0,0,1,3.069,12.63Zm.463-7.316a2.087,2.087,0,0,0-.556.077,2.586,2.586,0,0,0-.548.215,2.66,2.66,0,0,0-.48.321,1.9,1.9,0,0,0-.36.392V11.1c.1.1.205.2.326.3a2.867,2.867,0,0,0,.394.273,2.29,2.29,0,0,0,.485.2,2.178,2.178,0,0,0,.6.077,1.936,1.936,0,0,0,1.015-.275,2.5,2.5,0,0,0,.777-.772,3.994,3.994,0,0,0,.5-1.173A5.807,5.807,0,0,0,5.87,8.251,3.583,3.583,0,0,0,5.688,7.1a3.082,3.082,0,0,0-.5-.931,2.4,2.4,0,0,0-.744-.625A1.9,1.9,0,0,0,3.532,5.314Z" transform="translate(72.474 7.999)"/>
      <path id="Fill_48" data-name="Fill 48" d="M4.742.3A1.419,1.419,0,0,0,4.351.08,1.441,1.441,0,0,0,3.866,0a1.518,1.518,0,0,0-.63.139,2.649,2.649,0,0,0-.6.375,4.344,4.344,0,0,0-.559.552,6.909,6.909,0,0,0-.5.66V.169H0V8.4H1.58V2.7q.164-.276.328-.51a3.413,3.413,0,0,1,.324-.406,1.429,1.429,0,0,1,.32-.269.619.619,0,0,1,.317-.1.845.845,0,0,1,.335.059c.089.038.179.082.265.13a1.908,1.908,0,0,0,.291.131,1.3,1.3,0,0,0,.429.059,1.01,1.01,0,0,0,.673-.2A.741.741,0,0,0,5.1.99a.8.8,0,0,0-.1-.38A1.011,1.011,0,0,0,4.742.3" transform="translate(81.16 12.047)"/>
      <path id="Fill_49" data-name="Fill 49" d="M1.983.342a1.184,1.184,0,0,0-.37-.251A1.137,1.137,0,0,0,1.159,0,1.1,1.1,0,0,0,.713.091,1.175,1.175,0,0,0,.348.342,1.209,1.209,0,0,0,.1.712a1.071,1.071,0,0,0-.1.451,1.084,1.084,0,0,0,.1.451,1.219,1.219,0,0,0,.253.368,1.2,1.2,0,0,0,.365.251,1.1,1.1,0,0,0,.447.091,1.137,1.137,0,0,0,.453-.091,1.207,1.207,0,0,0,.37-.251,1.271,1.271,0,0,0,.253-.368,1.128,1.128,0,0,0,.094-.451A1.113,1.113,0,0,0,2.236.712a1.259,1.259,0,0,0-.253-.37" transform="translate(86.746 7.877)"/>
      <path id="Fill_50" data-name="Fill 50" d="M0,.468V8.4H1.58V0H1.117Z" transform="translate(87.022 12.047)"/>
      <path id="Fill_51" data-name="Fill 51" d="M6.966,5.092a7.569,7.569,0,0,1-.388.858,3.047,3.047,0,0,1-.518.713,2.256,2.256,0,0,1-.712.488,2.394,2.394,0,0,1-.97.18A2.185,2.185,0,0,1,3.234,7.02a2.874,2.874,0,0,1-.879-.84,4.184,4.184,0,0,1-.565-1.234,5.387,5.387,0,0,1-.2-1.5,3.807,3.807,0,0,1,.156-1.1,2.734,2.734,0,0,1,.455-.9A2.2,2.2,0,0,1,2.928.84,2.066,2.066,0,0,1,3.9.614a1.8,1.8,0,0,1,.662.1A.971.971,0,0,1,4.977,1a1.031,1.031,0,0,1,.209.428,2.3,2.3,0,0,1,.059.533.892.892,0,0,0,.064.33.875.875,0,0,0,.186.288.982.982,0,0,0,.295.207.9.9,0,0,0,.388.08,1.052,1.052,0,0,0,.382-.074A1.2,1.2,0,0,0,6.9,2.6a1.023,1.023,0,0,0,.243-.288.7.7,0,0,0,.093-.349A1.4,1.4,0,0,0,7,1.189,2.1,2.1,0,0,0,6.363.563,3.422,3.422,0,0,0,5.388.149,4.911,4.911,0,0,0,4.149,0,3.767,3.767,0,0,0,2.533.352a4.235,4.235,0,0,0-1.318.965,4.6,4.6,0,0,0-.89,1.435A4.751,4.751,0,0,0,0,4.508,4.292,4.292,0,0,0,.295,6.1a4.132,4.132,0,0,0,.8,1.3,3.8,3.8,0,0,0,1.2.87,3.48,3.48,0,0,0,1.471.319,3.574,3.574,0,0,0,1.271-.222A3.316,3.316,0,0,0,6.09,7.714,4,4,0,0,0,6.9,6.679a5.839,5.839,0,0,0,.545-1.388Z" transform="translate(89.83 12.048)"/>
      <path id="Fill_52" data-name="Fill 52" d="M6.957,5.58H1.744V0H0V12.946H1.744V6.82H6.957v6.127H8.7V0H6.957Z" transform="translate(12.308 7.991)"/>
      <path id="Fill_53" data-name="Fill 53" d="M2.049,8.582a2.239,2.239,0,0,1-.85-.158A1.932,1.932,0,0,1,.55,7.989a1.868,1.868,0,0,1-.408-.652A2.262,2.262,0,0,1,0,6.525,2.2,2.2,0,0,1,.2,5.57a2.66,2.66,0,0,1,.56-.764,4.051,4.051,0,0,1,.826-.6,8.992,8.992,0,0,1,1-.467c.355-.14.722-.264,1.091-.368.353-.1.712-.2,1.1-.3V2.559a3.539,3.539,0,0,0-.108-.946,1.649,1.649,0,0,0-.31-.625,1.143,1.143,0,0,0-.487-.34,1.9,1.9,0,0,0-.645-.1,1.7,1.7,0,0,0-.655.107,1.013,1.013,0,0,0-.4.284.978.978,0,0,0-.2.4,2.076,2.076,0,0,0-.052.457,2.562,2.562,0,0,1-.033.414,1.024,1.024,0,0,1-.123.348.7.7,0,0,1-.243.241.742.742,0,0,1-.391.093A.766.766,0,0,1,.8,2.817a.8.8,0,0,1-.264-.2.921.921,0,0,1-.172-.308,1.2,1.2,0,0,1-.059-.384,1.26,1.26,0,0,1,.26-.759,2.307,2.307,0,0,1,.7-.608A3.955,3.955,0,0,1,2.294.149,5.079,5.079,0,0,1,3.53,0,4.9,4.9,0,0,1,4.865.157,2.355,2.355,0,0,1,5.743.6a1.642,1.642,0,0,1,.485.69,2.632,2.632,0,0,1,.149.9V8.4H4.782V7.276c-.184.144-.366.292-.556.453a4.412,4.412,0,0,1-.589.421,3.09,3.09,0,0,1-.7.311A3.038,3.038,0,0,1,2.049,8.582ZM4.782,3.6c-.247.083-.48.169-.711.262s-.484.2-.724.326a6.55,6.55,0,0,0-.673.391,3.654,3.654,0,0,0-.563.447,2.066,2.066,0,0,0-.382.506,1.187,1.187,0,0,0-.143.561,1.561,1.561,0,0,0,.108.571,1.653,1.653,0,0,0,.287.475,1.4,1.4,0,0,0,.414.322,1.077,1.077,0,0,0,.487.119,1.722,1.722,0,0,0,.511-.073,2.458,2.458,0,0,0,.47-.2,3.975,3.975,0,0,0,.455-.288c.145-.1.3-.218.465-.348Z" transform="translate(22.424 12.048)"/>
      <path id="Fill_54" data-name="Fill 54" d="M.462,12.2H0V.169H1.587V1.848c.165-.217.345-.433.533-.641A4.611,4.611,0,0,1,2.773.613a3.327,3.327,0,0,1,.785-.44A2.491,2.491,0,0,1,4.5,0,2.753,2.753,0,0,1,5.789.305a3.076,3.076,0,0,1,.99.833,3.885,3.885,0,0,1,.634,1.23,5.027,5.027,0,0,1,.223,1.5,6.218,6.218,0,0,1-.274,1.883,4.632,4.632,0,0,1-.783,1.492,3.6,3.6,0,0,1-1.229.981,3.678,3.678,0,0,1-1.624.354,4.822,4.822,0,0,1-.618-.037,3.567,3.567,0,0,1-.541-.106,2.88,2.88,0,0,1-.495-.188,4.562,4.562,0,0,1-.484-.276v3.765L.462,12.2ZM3.793,1.111a2.034,2.034,0,0,0-.668.111,2.764,2.764,0,0,0-.594.3,3.18,3.18,0,0,0-.519.426,4.19,4.19,0,0,0-.424.5V6.18a1.621,1.621,0,0,0,.157.7,1.681,1.681,0,0,0,.44.571,2.164,2.164,0,0,0,.677.384,2.551,2.551,0,0,0,.864.142,1.6,1.6,0,0,0,.838-.234,2.2,2.2,0,0,0,.685-.663,3.461,3.461,0,0,0,.463-1.024,4.925,4.925,0,0,0,.167-1.322,7.186,7.186,0,0,0-.156-1.592,3.734,3.734,0,0,0-.436-1.13,1.92,1.92,0,0,0-.658-.675A1.633,1.633,0,0,0,3.793,1.111Z" transform="translate(30.587 12.048)"/>
      <path id="Fill_55" data-name="Fill 55" d="M.462,12.2H0V.169H1.587V1.848c.165-.217.345-.433.533-.641A4.611,4.611,0,0,1,2.773.613a3.327,3.327,0,0,1,.785-.44A2.491,2.491,0,0,1,4.5,0,2.76,2.76,0,0,1,5.789.305a3.086,3.086,0,0,1,.99.833,3.885,3.885,0,0,1,.634,1.23,5.027,5.027,0,0,1,.223,1.5,6.16,6.16,0,0,1-.276,1.883,4.59,4.59,0,0,1-.781,1.492,3.6,3.6,0,0,1-1.231.981,3.662,3.662,0,0,1-1.622.354,4.822,4.822,0,0,1-.618-.037,3.567,3.567,0,0,1-.541-.106,2.88,2.88,0,0,1-.495-.188,4.356,4.356,0,0,1-.484-.276v3.765L.462,12.2ZM3.793,1.111a2.034,2.034,0,0,0-.668.111,2.8,2.8,0,0,0-.6.3,3.223,3.223,0,0,0-.518.426,4.19,4.19,0,0,0-.424.5V6.18a1.621,1.621,0,0,0,.157.7,1.681,1.681,0,0,0,.44.571,2.154,2.154,0,0,0,.677.384,2.551,2.551,0,0,0,.864.142,1.6,1.6,0,0,0,.838-.234,2.2,2.2,0,0,0,.685-.663A3.462,3.462,0,0,0,5.71,6.053a4.875,4.875,0,0,0,.168-1.322,7.186,7.186,0,0,0-.156-1.592,3.8,3.8,0,0,0-.436-1.13,1.927,1.927,0,0,0-.658-.675A1.64,1.64,0,0,0,3.793,1.111Z" transform="translate(39.377 12.048)"/>
      <path id="Fill_56" data-name="Fill 56" d="M4.9,5.943,1.81,0H0L4.1,7.845,3.562,9.079c-.066.149-.138.308-.217.483a2.877,2.877,0,0,1-.276.48,1.647,1.647,0,0,1-.351.363.7.7,0,0,1-.438.147.956.956,0,0,1-.366-.057,2.206,2.206,0,0,1-.253-.131,1.757,1.757,0,0,0-.264-.131,1.122,1.122,0,0,0-.4-.057.975.975,0,0,0-.392.076.985.985,0,0,0-.3.2.846.846,0,0,0-.19.288.867.867,0,0,0-.067.333.775.775,0,0,0,.1.383.961.961,0,0,0,.277.3,1.365,1.365,0,0,0,.408.195,1.791,1.791,0,0,0,.5.068,2.257,2.257,0,0,0,.774-.142,3.442,3.442,0,0,0,.882-.43,3.743,3.743,0,0,0,.71-.731A5.06,5.06,0,0,0,4.3,9.67L8.378,0H7.42Z" transform="translate(47.289 12.224)"/>
    </g>
  </g>
</svg>
