<svg id="logo_logo1" data-name="logo/logo1" xmlns="http://www.w3.org/2000/svg" width="180" height="35.833" viewBox="0 0 180 35.833">
  <g id="Group_10" data-name="Group 10" transform="translate(0 0)">
    <path id="Fill_8" data-name="Fill 8" d="M123.871,35.488a12.815,12.815,0,1,1,12.814-12.814A12.829,12.829,0,0,1,123.871,35.488Zm0-19.708a6.894,6.894,0,1,0,6.894,6.894A6.9,6.9,0,0,0,123.871,15.78ZM90.552,35.488h0a14.507,14.507,0,0,1-3.7-4.837,14.309,14.309,0,0,1-1.174-6V16.657H81.265V10.743h4.409V3.48h5.914v7.263h4.669v5.914H91.589v7.989a9.275,9.275,0,0,0,3.943,7.885l-4.979,2.957Zm-26.816-.883H57.821V21.012a9.275,9.275,0,0,0-3.943-7.886l4.981-2.957.207.208a17.037,17.037,0,0,1,2.8,3.32s0,0,.007-.008a16.423,16.423,0,0,1,2.38-1.911,10.481,10.481,0,0,1,5.5-1.919,8.372,8.372,0,0,1,5.57,2.055,7.075,7.075,0,0,1,2.419,5.363V34.6H71.828V20.078a6,6,0,0,0-.48-2.7,2.479,2.479,0,0,0-2.425-1.3c-3.165,0-5.188,4.417-5.188,4.462V34.6Zm43.307,0h-6.018V10.74h6.018V34.6Zm-57.937,0H43.088V10.74h6.018V34.6Zm-16.6,0H26.59V21.012a9.275,9.275,0,0,0-3.943-7.886l4.981-2.957.207.208a17.141,17.141,0,0,1,2.8,3.32s0,0,.011-.011a22.733,22.733,0,0,1,2.427-1.857,9.8,9.8,0,0,1,4.772-1.867h.259l1.142,6.173h-.26c-.858.015-2.313.413-4.371,2.224a19.478,19.478,0,0,0-2.114,2.186V34.6Zm-26.38,0H0V3.461H7.994a13.433,13.433,0,0,1,8.571,3.082,10.235,10.235,0,0,1,3.783,7.87,10.235,10.235,0,0,1-3.783,7.87,13.433,13.433,0,0,1-8.571,3.082H6.125V34.6Zm0-25.019V19.24H7.994a7.317,7.317,0,0,0,4.192-1.285,4.212,4.212,0,0,0,0-7.085A7.316,7.316,0,0,0,7.994,9.585ZM104.034,7.16a3.591,3.591,0,0,1-2.51-1.07,3.591,3.591,0,0,1-1.07-2.51,3.591,3.591,0,0,1,1.07-2.51,3.478,3.478,0,0,1,5.019,0,3.592,3.592,0,0,1,1.07,2.51,3.592,3.592,0,0,1-1.07,2.51A3.59,3.59,0,0,1,104.034,7.16ZM46.1,7.16a3.591,3.591,0,0,1-2.51-1.07,3.591,3.591,0,0,1-1.07-2.51,3.591,3.591,0,0,1,1.07-2.51,3.478,3.478,0,0,1,5.019,0,3.592,3.592,0,0,1,1.07,2.51,3.592,3.592,0,0,1-1.07,2.51A3.59,3.59,0,0,1,46.1,7.16Z" transform="translate(43.255)"/>
    <g id="logo" transform="translate(0 0)">
      <path id="Combined_Shape" data-name="Combined Shape" d="M17.5,35h0V24.305A6.806,6.806,0,1,0,10.694,17.5H0A17.5,17.5,0,0,1,29.875,5.126,17.5,17.5,0,0,1,17.5,35Z" transform="translate(0)" fill="#27b291"/>
      <path id="Combined_Shape-2" data-name="Combined Shape" d="M17.345,17.5a17.379,17.379,0,0,1-6.657-1.375,17.436,17.436,0,0,1-5.563-3.751,17.434,17.434,0,0,1-3.75-5.563A17.384,17.384,0,0,1,0,0H10.694A6.814,6.814,0,0,0,17.5,6.806V17.5Z" transform="translate(0 17.5)" fill="#2151a2"/>
      <path id="Fill_4" data-name="Fill 4" d="M0,0H0V17.5H17.5A17.5,17.5,0,0,1,0,0" transform="translate(0 17.5)" fill="#e6da25"/>
    </g>
  </g>
</svg>
