<svg xmlns="http://www.w3.org/2000/svg" width="357.742" height="219.736" viewBox="0 0 357.742 219.736">
  <g id="グループ_22" data-name="グループ 22" transform="translate(-89.243 -127.74)">
    <g id="グループ_21" data-name="グループ 21" transform="translate(89.243 303.852)">
      <g id="グループ_20" data-name="グループ 20">
        <path id="パス_82" data-name="パス 82" d="M109.078,213.7h3.581v5.282H128.73v2.983H112.659v4.913H132.77v3.077H123.4a47,47,0,0,1-3.766,6.749h11.893v2.985H112.659v5.143h17.632v3.032H112.659v9.459h-3.581v-9.459H91.767V244.83h17.31v-5.143H90.526V236.7h10.838l-.322-.688a57.7,57.7,0,0,0-2.983-6.06H89.243v-3.077h19.835v-4.913h-15.8V218.98h15.8Zm-7.208,16.255.227.367a57.433,57.433,0,0,1,2.987,6.382h10.742a49.52,49.52,0,0,0,3.581-6.749Z" transform="translate(-89.243 -213.698)" fill="#231815"/>
        <path id="パス_83" data-name="パス 83" d="M137.293,247.549H123.564v-2.756h13.729v-3.169h-11.16V227.069h11.16v-2.893h-9.642v-2.157h-3.215v-6.8h29.48v6.8H150.7v2.157H140.692v2.893h11.523v14.555H140.692v3.169h14.233v2.756H140.692v4.682H155.8a15.137,15.137,0,0,0-1.055,3.307H135.963c-7.075-.047-12.26-1.928-15.841-5.788a50.777,50.777,0,0,1-6.568,6.888l-2.065-3.4a42.9,42.9,0,0,0,6.29-5.188V235.885H111.81v-3.352h9.41v14.186c3.493,3.813,7.533,5.329,14.559,5.511h1.514Zm-18.046-22.914a51.02,51.02,0,0,0-6.2-8.265l2.711-2.067a44.034,44.034,0,0,1,6.337,8.037Zm8.544-6.659v3.536h9.5v-3.536Zm1.651,11.664v3.352h7.851V229.64Zm0,5.786v3.581h7.851v-3.581Zm11.25-13.913h9.871v-3.536h-9.871Zm0,11.479h8.263V229.64h-8.263Zm0,6.015h8.263v-3.581h-8.263Z" transform="translate(-65.912 -213.063)" fill="#231815"/>
        <path id="パス_84" data-name="パス 84" d="M158.083,235.858c-.184,7.851-.688,13.362-1.514,15.886-.92,2.848-2.711,3.95-6.249,3.95a74.484,74.484,0,0,1-8.355-.459l-.733-3.581a80.986,80.986,0,0,0,8.4.641c2.159,0,2.848-.459,3.4-2.25.551-1.93.873-4.684,1.287-11.066H139.531c-.229,1.1-.506,2.3-.828,3.536l-3.671-.828a93.167,93.167,0,0,0,2.8-15.979h15.659v-6.843H135.9V215.7h21.168v13.088H141.137c-.32,2.938-.686,5.556-1.008,7.07Zm13.821-21.4v41.464h-3.676V214.46Z" transform="translate(-41.219 -212.899)" fill="#231815"/>
        <path id="パス_85" data-name="パス 85" d="M168.873,250.294a34.992,34.992,0,0,0,14.278,2.985h17.542a17.859,17.859,0,0,0-1.147,3.215H182.969c-11.25-.277-17.218-2.8-21.488-9.093a39.4,39.4,0,0,1-2.893,9.736l-2.342-2.8c1.608-3.993,2.94-11.479,3.213-18.55l3.122.6a67.657,67.657,0,0,1-.551,6.843,18.983,18.983,0,0,0,3.538,4.544v-15.7h-8.816v-3.077h8.722v-6.105h-7.3v-3.077h7.3V213.7h3.354v6.108h6.288v3.077h-6.288v6.105h7.484v3.077h-7.439V238.4h6.476v3.075h-6.476Zm12.121-9.23c1.653-.826,3.309-1.791,5.007-2.848l.5,2.94a87.531,87.531,0,0,1-10.424,5.923l-1.7-3.03c1.192-.459,2.295-.873,3.4-1.424V222.377h8.355c-.137-2.434-.232-5.831-.277-8.679h3.26c.045,2.8.139,6.751.277,8.679h9.965v3.075h-9.781v.232a65.185,65.185,0,0,0,1.791,11.111,56.573,56.573,0,0,0,3.9-8.769l2.846,1.422a67.513,67.513,0,0,1-5.6,11.25c.916,2.756,2.618,5.694,3.215,5.694.506,0,1.149-2.571,1.516-5.97l2.8,1.838c-.826,5.649-2.112,8.494-3.809,8.494s-4.135-2.846-5.878-6.978a38.746,38.746,0,0,1-7.533,7.714l-2.43-2.3a35.373,35.373,0,0,0,8.539-8.585l.182-.279a70.056,70.056,0,0,1-2.756-14.876h-5.372Zm14.233-19.744a31.47,31.47,0,0,0-3.717-6.013l2.434-1.426a39.946,39.946,0,0,1,3.948,5.833Z" transform="translate(-18.969 -213.698)" fill="#231815"/>
        <path id="パス_86" data-name="パス 86" d="M192.868,214.706V225.27l22-2.94,2.295,2.25c-2.526,7.255-6.476,12.49-11.572,15.428l-2.711-2.387a21.625,21.625,0,0,0,9.826-11.709l-19.835,2.846V245.2c0,1.975.412,2.8,1.559,3.213,1.014.369,3.858.6,7.716.6a124.366,124.366,0,0,0,12.49-.641v3.764c-3.721.275-7.21.414-11.018.414-6.659,0-10.148-.277-11.666-.873-1.928-.828-2.756-2.526-2.756-5.7V229.263l-9.687,1.379-.367-3.536,10.054-1.332V214.706Z" transform="translate(5.041 -212.641)" fill="#231815"/>
        <path id="パス_87" data-name="パス 87" d="M214.974,224.314a79.844,79.844,0,0,0-13.635-4.684l1.192-3.489a63.352,63.352,0,0,1,13.729,4.636Zm-13.27,23.1c10.424-.871,16.669-2.846,21.215-6.8,5.278-4.546,8.445-10.7,10.008-19.193l3.12,2.252c-3.809,18.044-12.946,25.575-33.428,27.548Z" transform="translate(28.325 -211.136)" fill="#231815"/>
        <path id="パス_88" data-name="パス 88" d="M255.867,221.762c-1.791,8.816-5.278,16.345-9.963,21.58-4.407,4.868-11.709,9.138-18.824,11.021l-1.885-3.215c7.808-2.112,14.145-5.741,18.138-10.379a70.1,70.1,0,0,0-12.033-9l2.112-2.616a66.42,66.42,0,0,1,12.125,8.724,40.746,40.746,0,0,0,6.2-15.016H235.2a37.979,37.979,0,0,1-12.348,12.674l-2.434-2.571a34.453,34.453,0,0,0,14.876-18.5l3.536.918-.047.137c-.783,1.93-1.055,2.618-1.791,4.087H253.39Z" transform="translate(48.338 -212.899)" fill="#231815"/>
        <path id="パス_89" data-name="パス 89" d="M279.332,223.066V226.6H240.624v-3.536Z" transform="translate(69.527 -203.873)" fill="#231815"/>
      </g>
      <circle id="楕円形_36" data-name="楕円形 36" cx="3.266" cy="3.266" r="3.266" transform="translate(351.21 35.353)" fill="#231815"/>
    </g>
    <path id="パス_90" data-name="パス 90" d="M211.674,184.339V174.5l-3.391,1.958V186.3Z" transform="translate(124.851 49.039)" fill="#705400"/>
    <path id="パス_91" data-name="パス 91" d="M277.589,171.047v10.781l3.391-1.958V167.8l-1.084-.626-68.3-39.436L142.2,167.8v2.947l67.434-38.933Z" transform="translate(55.545 0)" fill="#705400"/>
    <path id="パス_92" data-name="パス 92" d="M211.674,190.356v-7.728l-3.391,1.958v7.727Z" transform="translate(124.851 57.568)" fill="#705400"/>
    <path id="パス_93" data-name="パス 93" d="M211.674,178.011V164.643l-3.391,1.957v13.368Z" transform="translate(124.851 38.705)" fill="#705400"/>
    <path id="パス_94" data-name="パス 94" d="M211.674,166.355v-9.843l-3.391,1.958v9.843Z" transform="translate(124.851 30.176)" fill="#705400"/>
    <path id="パス_95" data-name="パス 95" d="M200.4,180.952l-16.305,9.417v13.368L200.4,194.32l3.914-2.26,16.305-9.417V169.275l-16.305,9.417Z" transform="translate(99.478 43.564)" fill="#c4950e"/>
    <path id="パス_96" data-name="パス 96" d="M194.4,201.72l28.446-16.426v-9.843L194.4,191.877Z" transform="translate(110.289 50.041)" fill="#c4950e"/>
    <path id="パス_97" data-name="パス 97" d="M204.254,281.662l7.337,4.236,31.862-18.466v-7.721l-31.862,18.472v-6.818l31.862-18.472V243.05l-31.862,18.472V254.7l11.643-6.8V234.541l-11.643,6.8v-6.818l31.862-18.472V206.2l-31.862,18.472v-6.818l31.862-18.472V187.31l5.69-3.218v12.075l28.446-16.426V168.961l-67.952-39.232L142.2,168.662v77.176Z" transform="translate(55.545 2.086)" fill="#c4950e"/>
    <path id="パス_98" data-name="パス 98" d="M194.4,207.731l28.446-16.421v-7.727L194.4,200.009Z" transform="translate(110.289 58.57)" fill="#c4950e"/>
    <path id="パス_99" data-name="パス 99" d="M204.267,183.716l8.228-4.75V165.6l-8.228,4.75Z" transform="translate(120.639 39.707)" fill="#c4950e"/>
    <path id="パス_100" data-name="パス 100" d="M194.4,183.736l28.446-16.426v-9.843L194.4,173.893Z" transform="translate(110.289 31.179)" fill="#c4950e"/>
  </g>
</svg>
