<svg xmlns="http://www.w3.org/2000/svg" width="280" height="120" viewBox="0 0 280 120">
  <g id="グループ_45" data-name="グループ 45" transform="translate(-1090)">
    <rect id="長方形_101" data-name="長方形 101" width="280" height="120" transform="translate(1090)" fill="#070506"/>
    <path id="Icon_zocial-call" data-name="Icon zocial-call" d="M3.329,8.735a2.171,2.171,0,0,1,.553-1.179L8.3,3.136q.516-.442.774.147l3.573,6.7a.965.965,0,0,1-.184,1.142L10.843,12.75a1.833,1.833,0,0,0-.516,1.142,5.623,5.623,0,0,0,1.142,2.836,24.221,24.221,0,0,0,2.247,2.948l1.142,1.178c.344.344.785.768,1.327,1.271a22.237,22.237,0,0,0,2.669,1.989,5.975,5.975,0,0,0,2.928,1.234,1.6,1.6,0,0,0,1.179-.479l1.917-1.915a.809.809,0,0,1,1.1-.147L32.43,26.6a.538.538,0,0,1,.295.387.47.47,0,0,1-.147.424l-4.42,4.42a2.165,2.165,0,0,1-1.178.551,8.911,8.911,0,0,1-4.071-.5,18.42,18.42,0,0,1-4.2-2.007q-1.934-1.252-3.591-2.54t-2.652-2.21l-.958-.922q-.368-.368-.976-1.013t-2.12-2.54a36.993,36.993,0,0,1-2.615-3.7,21.6,21.6,0,0,1-1.915-4.107A8.737,8.737,0,0,1,3.329,8.735Z" transform="translate(1117.733 43.053)" fill="#fff"/>
    <text id="_03-1234-5678_" data-name="03-1234-5678
" transform="translate(1161 50)" fill="#fff" font-size="22" font-family="HiraKakuPro-W6, Hiragino Kaku Gothic Pro"><tspan x="0" y="19">03-1234-5678</tspan></text>
  </g>
</svg>
